<?xml version="1.0" encoding="utf-8"?>
<!-- Generator: Adobe Illustrator 13.0.0, SVG Export Plug-In . SVG Version: 6.00 Build 14948)  -->
<!DOCTYPE svg PUBLIC "-//W3C//DTD SVG 1.1//EN" "http://www.w3.org/Graphics/SVG/1.1/DTD/svg11.dtd">
<svg version="1.1" id="Layer_13" xmlns="http://www.w3.org/2000/svg" xmlns:xlink="http://www.w3.org/1999/xlink" x="0px" y="0px"
	 width="390px" height="150px" viewBox="0 0 390 150" enable-background="new 0 0 390 150" xml:space="preserve">
<g>
	<path fill="#FFFFFF" d="M241.1,75c0,35.9-20.6,65-46.1,65s-46.1-29.1-46.1-65c0-35.9,20.6-65,46.1-65S241.1,39.1,241.1,75"/>
</g>
<path fill="#D2232A" d="M166,113.8c0-0.7,0-0.7-0.7-0.8v-0.2h2c1.3,0,2.3,0.4,2.3,2.4c0,2.2-1.2,2.4-2.6,2.4H166V113.8 M166.8,116.8
	c0,0.3,0,0.5,0.5,0.5c1.3,0,1.6-0.6,1.6-2c0-1.2-0.1-2-1.5-2c-0.4,0-0.6,0-0.6,0.4V116.8z"/>
<path fill="#D2232A" d="M171.6,113.8c0-0.1,0.1-0.4,0.1-0.4c0-0.3-0.3-0.3-0.5-0.3v-0.2h1.3l1.7,4.8h-0.7l-0.5-1.5h-1.8l-0.5,1.5
	h-0.4L171.6,113.8 M171.3,115.8h1.6l-0.8-2.1L171.3,115.8z"/>
<path fill="#D2232A" d="M175.2,113.8c0-0.6,0-0.6-0.7-0.7V113l1.5-0.2v4c0,0.5,0,0.5,0.5,0.5h0.6c0.4,0,0.8,0,0.8-0.7h0.2l0,1h-2.9
	V113.8"/>
<path fill="#D2232A" d="M179.3,113.8c0-0.6,0-0.6-0.7-0.7V113l1.5-0.2v4c0,0.5,0,0.5,0.5,0.5h0.6c0.4,0,0.8,0,0.8-0.7h0.2l0,1h-2.9
	V113.8"/>
<path fill="#D2232A" d="M184.2,113.8c0-0.1,0.1-0.4,0.1-0.4c0-0.3-0.3-0.3-0.5-0.3v-0.2h1.3l1.7,4.8h-0.7l-0.5-1.5h-1.8l-0.5,1.5
	h-0.4L184.2,113.8 M183.9,115.8h1.6l-0.8-2.1L183.9,115.8z"/>
<path fill="#D2232A" d="M190.2,113.5c-0.2-0.1-0.7-0.3-1.3-0.3c-0.4,0-0.7,0.2-0.7,0.7c0,1.1,2.3,1,2.3,2.5c0,1-0.8,1.4-1.8,1.4
	c-0.5,0-1.1-0.1-1.2-0.2V117c0.2,0.1,0.8,0.4,1.3,0.4c0.4,0,0.9-0.2,0.9-0.8c0-1.1-2.3-1-2.3-2.5c0-0.8,0.6-1.2,1.6-1.2
	c0.5,0,0.9,0.1,1.1,0.1V113.5"/>
<path fill="#D2232A" d="M194.2,113.8c0-0.7,0-0.7-0.7-0.8v-0.2h2.1c0.8,0,1.7,0.2,1.7,1.1c0,0.7-0.5,1-0.8,1.1v0
	c0.5,0.1,1.1,0.4,1.1,1.3c0,1.3-1.4,1.3-2,1.3h-1.3V113.8 M195,115h0.5c0.6,0,1.1-0.2,1.1-0.9c0-0.6-0.4-0.8-1-0.8
	c-0.4,0-0.5,0-0.5,0.4V115z M195,117c0,0.3,0.3,0.3,0.7,0.3c0.8,0,1.1-0.3,1.1-1.1c0-0.7-0.5-0.9-1.1-0.9H195V117z"/>
<path fill="#D2232A" d="M202.1,115.8c0,0.9-0.1,1.9-1.7,1.9c-1.2,0-1.7-0.6-1.7-1.6v-2.3c0-0.6,0-0.6-0.7-0.7V113l1.5-0.2v2.9
	c0,0.8,0,1.7,1,1.7c1.1,0,1.1-0.8,1.1-1.5v-3h0.5V115.8"/>
<path fill="#D2232A" d="M203.6,113.8c0-0.7,0-0.7-0.7-0.8v-0.2h1.7c0.5,0,2,0,2,1.3c0,0.8-0.5,1.1-1.1,1.2l1.3,2.3h-0.8l-1.2-2.2
	h-0.4v2.2h-0.8V113.8 M204.4,115.1h0.4c0.5,0,1.1-0.1,1.1-0.9c0-0.8-0.4-1-1-1c-0.5,0-0.5,0.1-0.5,0.6V115.1z"/>
<path fill="#D2232A" d="M210.3,113.5c-0.2-0.1-0.7-0.3-1.3-0.3c-0.4,0-0.7,0.2-0.7,0.7c0,1.1,2.3,1,2.3,2.5c0,1-0.8,1.4-1.8,1.4
	c-0.5,0-1.1-0.1-1.2-0.2V117c0.2,0.1,0.8,0.4,1.3,0.4c0.4,0,0.9-0.2,0.9-0.8c0-1.1-2.3-1-2.3-2.5c0-0.8,0.6-1.2,1.6-1.2
	c0.5,0,0.9,0.1,1.1,0.1V113.5"/>
<path fill="#D2232A" d="M212.6,113.2h-0.5c-0.6,0-0.7,0.2-0.8,0.7h-0.2l0-1h3.6l0,1h-0.2c0-0.5-0.2-0.7-0.8-0.7h-0.5v4.4h-0.8V113.2
	"/>
<path fill="#D2232A" d="M215.3,115.3c0-1.5,0.4-2.5,2-2.5c1.5,0,1.9,1,1.9,2.5c0,1.5-0.4,2.4-1.9,2.4
	C215.8,117.7,215.3,116.8,215.3,115.3 M217.3,117.4c1.1,0,1.1-1.2,1.1-2.1c0-0.9-0.1-2.1-1.1-2.1c-1.1,0-1.2,1.2-1.2,2.1
	C216.1,116.2,216.2,117.4,217.3,117.4z"/>
<path fill="#D2232A" d="M220.5,113.8c0-0.7-0.1-0.6-0.7-0.7v-0.2h1.5l2.2,3.8h0v-3.8h0.4v4.8h-0.7l-2.3-4h0v4h-0.4V113.8"/>
<path fill="#D2232A" d="M176.6,120.8c0-0.7,0-0.7-0.7-0.8v-0.2h2.2c0.9,0,1.4,0.5,1.4,1.3c0,1.3-1.1,1.3-1.9,1.3h-0.2v2.1h-0.8
	V120.8 M177.4,122.2h0.4c0.6,0,1-0.2,1-1c0-0.8-0.4-0.9-1-0.9c-0.4,0-0.4,0.1-0.4,0.4V122.2z"/>
<path fill="#D2232A" d="M180.4,122.3c0-1.5,0.4-2.5,2-2.5c1.5,0,1.9,1,1.9,2.5c0,1.5-0.4,2.4-1.9,2.4
	C180.9,124.7,180.4,123.8,180.4,122.3 M182.3,124.4c1.1,0,1.1-1.2,1.1-2.1c0-0.9-0.1-2.1-1.1-2.1c-1.1,0-1.2,1.2-1.2,2.1
	C181.2,123.1,181.3,124.4,182.3,124.4z"/>
<path fill="#D2232A" d="M185.6,120.8c0-0.6,0-0.6-0.7-0.7V120l1.5-0.2v4c0,0.5,0,0.5,0.5,0.5h0.6c0.4,0,0.8,0,0.8-0.7h0.2l0,1h-2.9
	V120.8"/>
<path fill="#D2232A" d="M189.3,122.3c0-1.5,0.4-2.5,2-2.5c1.5,0,1.9,1,1.9,2.5c0,1.5-0.4,2.4-1.9,2.4
	C189.8,124.7,189.3,123.8,189.3,122.3 M191.3,124.4c1.1,0,1.1-1.2,1.1-2.1c0-0.9-0.1-2.1-1.1-2.1c-1.1,0-1.2,1.2-1.2,2.1
	C190.1,123.1,190.2,124.4,191.3,124.4z"/>
<path fill="#D2232A" d="M200.1,124.4c-0.2,0.1-0.7,0.3-1.4,0.3c-1.4,0-2-0.9-2-2.5c0-1.3,0.4-2.4,2-2.4c1.1,0,1.5,0.5,1.6,1h-0.8
	c0-0.2-0.2-0.7-0.8-0.7c-1,0-1.1,1.2-1.1,1.9c0,0.8,0.1,2.3,1.4,2.3c0.6,0,1-0.2,1.2-0.4V124.4"/>
<path fill="#D2232A" d="M201.3,120.8c0-0.6,0-0.6-0.7-0.7V120l1.5-0.2v4c0,0.5,0,0.5,0.5,0.5h0.6c0.4,0,0.8,0,0.8-0.7h0.2l0,1h-2.9
	V120.8"/>
<path fill="#D2232A" d="M208.8,122.8c0,0.9-0.1,1.9-1.7,1.9c-1.2,0-1.7-0.6-1.7-1.6v-2.3c0-0.6,0-0.6-0.7-0.7V120l1.5-0.2v2.9
	c0,0.8,0,1.7,1,1.7c1.1,0,1.1-0.8,1.1-1.5v-3h0.5V122.8"/>
<path fill="#D2232A" d="M210.3,120.8c0-0.7,0-0.7-0.7-0.8v-0.2h2.1c0.8,0,1.7,0.2,1.7,1.1c0,0.7-0.5,1-0.8,1.1v0
	c0.5,0.1,1.1,0.4,1.1,1.3c0,1.3-1.4,1.3-2,1.3h-1.3V120.8 M211.1,121.9h0.5c0.6,0,1.1-0.2,1.1-0.9c0-0.6-0.4-0.8-1-0.8
	c-0.4,0-0.5,0-0.5,0.4V121.9z M211.1,124c0,0.3,0.3,0.3,0.7,0.3c0.8,0,1.1-0.3,1.1-1.1c0-0.7-0.5-0.9-1.1-0.9h-0.6V124z"/>
<path fill="#BBBDC0" d="M196.8,44.4c0,0-0.1,0.1-0.1,0.4c0,0.1-0.3,0.6-0.4,1c-0.1,0.4,0.2,1.4,0.2,1.4s-1.8-1.3-2.1-1.4
	c-0.2-0.1-0.5-0.2-0.5-0.2s-0.8-0.5-1.3-0.6c-0.6-0.1-1.4-0.2-1.5-0.3c-0.1-0.1-0.6-0.8-0.6-0.8s-0.2-0.2-0.3-0.1
	c-0.1,0.1-0.8,0.4-0.8,0.4s-0.2-0.2-0.1-0.4c0.1-0.2-0.1-0.5-0.1-0.5s0.1-0.2,0.1-0.3c-0.1-0.4-1-2.2-2.7-2.7
	c-1.6-0.4-3.1,0-4.1,1.6c-0.9,1.6-0.1,3.1-0.1,3.2c0,0.1-1.4,1-1.1,1.3c0.3,0.3,2.1-0.4,2.1-0.4s0.1,0.1,0,0.3c0,0.3-0.3,0.9,0,1
	c0.2,0,0.2,0,0.4,0c0.3,0,0.2,0.1,0.3,0.3c0,0.2,0.3,0.2,0.3,0.2s0,0.2,0.1,0.3c0.1,0,0.3,0.1,0.4,0.3c0,0.1,0.1,0.5,0.4,0.5
	c0.4,0,1-0.6,1-0.6s0.1,0,0.3,0c0.1,0,0.3-0.2,0.3-0.2l0.2,0.1c0,0-0.1,0.5-0.1,0.6c0,0.1,0.3,0.1,0.3,0.1c0,0,0,0.7,0.1,1
	c0.1,0.4,0.5,0.7,0.6,0.8c0.1,0.2,0.3,0.8,0.5,1.2s1,1.7,1.2,1.9c0.2,0.3,1.2,2.2,1.4,2.5c0.2,0.3,0.4,0.4,0.5,0.6
	c0.1,0.2,0.4,0.9,0.6,1.1c0.1,0.2,0.4,0.5,0.4,0.5s0,0.4-0.2,0.6c-0.2,0.2-0.6,0.4-0.7,0.6c-0.1,0.2-0.3,0.6-0.4,0.6
	c-0.1,0.1-0.2,0.3-0.2,0.4c0,0.1,0,0.2-0.1,0.2s-0.3,0.3-0.4,0.4c-0.1,0.1-0.2,0.4-0.2,0.5c0,0-0.2,0.2-0.5,0.4
	c-0.7-1.3-1.5-3.2-1.9-3.9c-0.5-1.2-2.3-3.5-2.4-3.7c-0.2-0.1-0.2-0.5-0.1-0.8c0.2-0.3,0.8-1.2,0.9-1.8c0.1-0.6,0-1,0-1.4
	c0-0.3-0.6,0.5-0.8,0.8c-0.2,0.3-1.7,1.5-1.7,1.5s-0.2,0-0.5-0.1c-0.2,0-0.7-0.1-0.7-0.1s-0.4-1.7-0.6-2c-0.2-0.3-0.8,0.9-1,1.2
	c-0.3,0.3-0.4,1.9-0.4,1.9l-0.5,0.4c0,0-0.6,0.2-0.7,0.3c-0.1,0.1,0,0.5,0,0.5s-0.5,0.5-0.7,0.8c-0.2,0.3-0.9,0.9-1.2,1.1
	c-0.2,0.2-0.3,0.6-0.3,0.9c0,0.3,0,0.9,0,0.9l-1.7,2.6c0,0-0.3,0.1-0.4,0.2c-0.1,0.1,0,0.4,0,0.4s-0.4,1.1-0.5,1.2
	c-0.1,0.2-0.4,0.6-0.7,0.9c-0.3,0.3-0.1,1.8-0.1,2.1c0,0.3-0.1,0.5-0.1,1c0,0.5,1,0.4,1.3,0.5c0.3,0.1,0.3,0.1,0.6,0.2
	c0.2,0.2,0.5,0.1,0.6,0.1c0.1,0,1.4-0.1,1.7-0.1c0,0,0,0,0,0c0.1,0.2,0.1,0.3,0.2,0.5c0,0,0,0,0,0c-0.1,0.1-0.1,0.2-0.1,0.3
	c0,0.1,0,0.2,0.1,0.2c0,0.9,0.2,2.4,0.3,2.9c0.3,3.2,1.8,5.2,2.7,5.7c0.7,0.4,1.5,0.6,1.9,0.7c-0.1,0.6-0.1,1.2,0,1.8
	c0.3,1.7,1.2,2.7,1.2,2.9s-2.1,3-2.6,3.6c-0.4,0.6-2.6,2.7-3,3c-0.4,0.4-0.3,1.1-0.3,1.1s-0.2,0.6-0.1,1.2c0,0.6,0.6,1.1,0.6,1.3
	c0.1,0.2-0.2,0.4-0.2,0.8s0.8,1.9,1,2.7c0.2,0.8,0.7,3,1.1,3.4c0.2,0.2,1,0.1,1.3,0.2c0.3,0.1,0.7,0.9,0.9,1.3
	c0.1,0.3,0.6,0.3,0.7,0.4c0.1,0.1,0.4,0.2,0.4,0.2s0.7,0.8,1.2,0.9c1.1,0.3,1.6-0.8,1.4-2.1c-0.2-1.4-0.8-1.7-1-1.7
	c-0.2-0.1-0.8-0.1-0.8-0.1s-0.3-0.2-0.4-0.2c-0.3-0.2-0.7,0-0.8,0c-0.1,0-0.4-0.3-0.4-0.4c0-0.1,0.1-0.5-0.2-1.3
	c-0.2-0.5-0.6-0.5-0.8-0.9c-0.3-0.4-1.2-3.1-1.4-3.3c-0.1-0.2-0.3-0.6-0.3-1c0-0.4,0.4-1.3,0.7-1.4c0.2-0.1,0.5-0.4,1.1-0.7
	c0.5-0.3,1.2-0.5,1.8-0.7c0.7-0.3,1.4-0.9,2.1-1.3c0.4-0.2,0.8-0.3,1.1-0.3c0.4,0.6,1,1.5,2,1.9c0.6,0.3,1.1,0.3,1.5,0.2
	c-0.3,1.1-0.7,2.3-1,2.6c-0.4,0.7-2,3.8-2.2,4.1c-0.2,0.3,0.1,0.9,0.2,1.1c0.1,0.2,0.2,0.9,0.4,1.2c0.2,0.3,2.7,1.1,3.3,1.4
	c0.6,0.3,1.2,0.6,1.4,0.8c0.2,0.3,1,0.3,1.5,0.3c0.5,0.1,1-0.1,1.1-0.2c0.1-0.1,0.5-0.2,0.8-0.3c0.3,0,1,0.3,1.1,0.4
	c0.1,0.1,0.5,0,0.5,0s1.4,0.5,1.7,0.5c0.3,0,0.4-1,0.3-1.6c-0.2-1.1-0.6-1.4-0.8-1.5c-0.1-0.1-0.5-0.1-0.5-0.1s-0.3-0.2-0.4-0.2
	c-0.2-0.1-0.6-0.1-0.9-0.1c-0.3,0-0.5,0.4-0.7,0.5c-0.2,0.1-1.1-0.2-1.1-0.2s-0.3-0.1-0.4-0.3c-0.1-0.2-0.8-0.3-0.8-0.3s0-0.2,0-0.3
	c-0.1-0.1-0.4-0.2-0.5-0.2c0,0.1,0,0.2,0,0.2l-1-0.3c0,0,0-0.2,0-0.2c0-0.1-0.5-0.2-0.5-0.2c0,0.1,0,0.2,0,0.2s-0.9-0.3-1-0.2
	c-0.1,0-0.2,0.2-0.4,0.2c-0.2,0-0.3-0.6-0.2-0.8c0-0.2,4.9-6.7,5.1-7.1c0.2-0.3,0.5-0.7,1-0.9c0.5-0.2,0.7-0.7,0.8-0.8
	c0.2-0.1,2.2,0,4.8-0.8c0.1,0,0.1,4.4,0.2,5.1c0.1,0.7,0.5,1.5,0.6,2.1c0.1,0.6-0.4,4.6-0.6,5.1c-0.2,0.5-3.7,6.4-3.8,6.7
	c-0.2,0.3-2,1.6-2.3,1.8c-0.3,0.2-0.3,0.5-0.3,0.5s-1.5,1.5-1.1,2c0.1,0.2,3.2,0.2,3.9-0.1c0.2-0.1,0.5-0.7,0.5-0.7s0.3-0.1,0.3-0.2
	c0.1-0.3-0.2-0.6-0.2-0.8c0-0.1,0.6-0.1,1.1-0.4c0.4-0.2,2.3-4.2,2.3-4.2s1.8-0.4,2.5-1.1c0.1-0.1,0-0.8,0-1.1
	c0-0.2,0.1-0.2,0.1-0.4c0-0.2-0.4-0.2-0.4-0.6c0-0.4,0.3-0.4,0.6-0.5c0.3-0.1,0.7-0.6,0.8-0.9c0.3-0.5,2.9-2.4,3.3-2.7
	c0.4-0.3,2.4-1.6,2.8-1.7c0.4-0.1,0.4-0.3,0.7-0.9c0.4-0.6,0.4-0.9,0.2-1.5c-0.2-0.6,0.5-3.3,0.6-4.6c0.1-1.3,2-3,2.8-3.7
	c0.9-0.9,1.8-1.9,3.5-5c0.7-1.3,0.5-3.2-0.2-5c0.2,0.2,0.5,0.4,0.8,0.7c0.3,0.2,1,0.4,1,0.4c0,0,0.2,0.4,0.6,0.7
	c0,0.1-0.2,0.4,0,1.1c0.1,0.5,0.8,1,0.8,1c0,0,0,0.5,0.3,1c0.4,0.5,0.8,0.7,0.9,0.7c0,0,0.2,0.7,0.7,0.5c0.5-0.1,0.5-0.5,0.3-0.9
	c-0.1-0.4,0.4-0.5,0.2-1.1c-0.1-0.6-0.5-0.9-0.5-0.9c0,0,0.2-0.6-0.2-1c-0.4-0.4-0.9-0.6-1.2-0.7c-0.3-0.2-0.6-0.7-0.6-0.7
	c0,0,0.2-0.6-0.2-1.1c-0.4-0.4-1.4-0.6-1.4-0.6c0,0-0.8-0.4-1-0.8c-0.3-0.8-0.6-1.3-1.6-1.4c-0.4,0-0.7-0.1-0.9-0.1
	c-0.9-1-1.9-1.7-2.6-2.4c-2.3-2.4-3.7-1.4-4.6-1.7c-2.1-0.8-4.4,0.1-4.4,0.1s0.1-0.2,0-0.5c-0.2-0.4-0.4-0.6-0.4-0.6s0.6-1-0.5-1.8
	c-1.2-0.8-3.5,1.4-4.4,1.9c0.1-0.2,1.1-1.9,0.9-4.5c-0.1-1.7-1.1-2.6-1.2-2.7c-0.1-0.1-0.2-1.1-0.2-1.1s-0.1-0.1-0.2-0.1
	c0,0,0-0.4-0.1-0.6c0-0.2-0.3-0.8-0.4-1c-0.1-0.1-0.5-0.6-0.6-1c-0.1-0.4-0.8-1.1-0.9-1.3c-0.2-0.2-0.7-0.7-0.8-0.9
	c-0.1-0.2-0.2-1.4-0.2-1.4s0.5,0.3,0.7,0.3c0.2,0,0.4,0,0.5,0c0.1,0,0.3,0.1,0.5-0.1c0.1-0.2,0.5-0.5,0.4-1.1
	c-0.1-0.6-0.3-1.3-0.5-1.5s-0.4-0.4-0.5-0.5c-0.1-0.1-0.1-0.3-0.1-0.3c0-0.1,0.1-0.1,0.2-0.1c0.2-0.2,0.3-0.6,0.3-0.9
	c0.1-0.3,0.1-0.4,0-0.5c-0.1-0.1-0.1-0.2-0.1-0.4c0-0.2,0-0.2-0.1-0.3c-0.1,0-0.2-0.1-0.2-0.1s0.2-0.5,0.2-0.6
	c0-0.1-0.2-0.3-0.3-0.3c-0.1,0-0.3,0-0.3,0s0.1-0.7,0.1-0.9c0-0.2-0.1-0.5-0.2-0.6s-0.3,0-0.3,0s-0.4-0.8-0.6-1.4 M181.2,65
	c0.6-0.3,0.9-0.7,0.9-0.7s0.4-0.2,0.5-0.1c0,0,0.1,0.3,0.1,0.8c-0.6,0.2-1.8,0.4-2.5,0.4C180.6,65.3,181,65.1,181.2,65z M179.6,66
	c0.8,0,2.4-0.4,3.2-0.6c0,0.2,0,0.4,0.1,0.5c-0.6,0.2-1.7,0.5-2.3,0.7c-0.1-0.1-0.3-0.2-0.5-0.2c-0.2,0-0.4,0.1-0.5,0.3
	C179.6,66.5,179.6,66.3,179.6,66z M179.6,66.9c0-0.2,0.2-0.4,0.5-0.4c0.1,0,0.2,0.1,0.3,0.1c-0.2,0,0,0.5,0.1,0.5
	c-0.1,0.2-0.2,0.3-0.4,0.3c-0.1,0-0.3-0.1-0.3-0.2c0.1,0,0.2-0.1,0.2-0.2C179.9,67,179.8,66.9,179.6,66.9z M178.4,68
	c-0.1-0.1-0.2-0.2-0.2-0.4c0.2-0.1,0.4-0.4,0.4-0.6c0.1-0.3,0.3-1,0.3-1s0,0,0,0c0.1,0.9,0.2,1.7,0.1,2c-0.1,0-0.2,0-0.3,0
	C178.7,68,178.5,68,178.4,68z M184,73.4c0,0.1-0.1,0.5-0.2,0.9c-0.1,0.1-0.3,0.3-0.4,0.6c0,0.3,0,0.4,0.1,0.6c0,0.1,0,0.2,0,0.2
	s-0.2,0.7-0.4,1.6c-0.4,0-1.4-0.1-2.3-0.6c-0.4-0.3-1.2-1.8-1.7-3.4c-0.4-1.6-0.1-3.9-0.1-4.4c0.2-0.1,0.4-0.2,0.4-0.4
	c0-0.1-0.1-0.3-0.2-0.3c0.1-0.5,0-1.5-0.1-2.2c0,0,0.1,0,0.1,0c0,0.5,0,1.4,0.2,1.4c0,0,0.1,0,0.2,0c0.1,0.2,0.3,0.3,0.5,0.3
	c0.3,0,0.5-0.2,0.6-0.4c0.7-0.2,1.6-0.5,2.3-0.8c0.1,0.6,0.2,1.3,0.3,2C183.5,70.4,184,72.5,184,73.4z M194.1,60.5
	c0.3,0.1,0.7,0.9,0.7,0.9l-0.4,0.3c0,0-0.1-0.2-0.3-0.4c-0.1-0.1-0.3-0.3-0.3-0.3L194.1,60.5z M191.4,61.9c0,0,0.1,0.2,0.3,0.2
	c0.2,0,0.5-0.1,0.5-0.1s0.1,0.1,0.3,0c0.1,0,0.3-0.1,0.3-0.1s0,0.1,0.2,0.1c0.2,0,0.4-0.1,0.4-0.1l0.2-0.2l0.4,0.3
	c0,0-1.6,1.6-2.4,3c-0.2-0.3-0.5-0.8-0.7-1.1c0-0.6,0.1-1.2,0.1-1.4C191,62.3,191.4,61.9,191.4,61.9z M190.4,61.9l0.4-0.3l0.2,0.1
	c0,0-0.1,0.2-0.2,0.3c-0.1,0-0.3,0.1-0.4,0.1C190.4,62.2,190.4,61.9,190.4,61.9z M190.8,62.4c0,0-0.1,0.2-0.1,0.4
	c0,0.1,0,0.5-0.1,0.9c0-0.1-0.1-0.2-0.1-0.2c-0.1-0.1-0.2-0.3-0.3-0.6c0-0.1,0-0.1,0-0.1C190.3,62.7,190.8,62.4,190.8,62.4z
	 M190.1,62.1v0.2l-0.1,0.1c0-0.1-0.1-0.1-0.1-0.2L190.1,62.1z M191,89.1c-0.3,0.1-0.9,0.3-1.4,0c-0.6-0.4-1.3-1.2-1.6-1.7
	c0.4-0.2,0.7-0.7,1-0.7c0.4,0,2.4,1.1,2.4,1.1S191.3,88.3,191,89.1z M210.2,90.8c-0.3,0.5-0.8,0.7-0.7,1.2c0.1,0.2-0.1,1.4-0.4,1.4
	c-0.3,0-0.6,0.3-0.7,0.7c0,0.2-1.4,1.1-1.8,1.4c-0.2,0.1-0.1-2.3-0.2-3.2c-0.1-1,0.4-3.4,0.6-4c0.2-0.5,0.2-1.1,0.6-1.4
	c0.4-0.3,3.4-3.5,3.6-3.1C211.2,83.8,210.5,90.3,210.2,90.8z"/>
<path fill="#BBBDC0" d="M197.8,43.2c-0.1-0.2-2.4-7.7-6.1-14.6c-3.1-5.7-7.8-10.9-7.8-10.9l1.4-1.1c0,0,0.3-0.2,0.3-0.5
	c0-0.2-0.2-0.4-0.2-0.4s-1.2-0.1-1.4,0c-0.2,0.1-2.9,2-2.9,2.4c0,0.4,0.1,0.4,0.2,0.6c0.1,0.2,0.4,0.3,0.7,0.1s1.3-0.9,1.3-0.9
	c0.9,0.9,5.2,5.5,7.8,10.8c3,6,5.1,11.5,6,14.7"/>
<path fill="#D2232A" d="M208.3,56.3c-5.4,0-8.5,0.3-12.7,0.3c-3.2,0-3.6-0.1-3.9-0.5c-0.1-0.2-0.2-0.3-0.3-0.3
	c-0.3,0.3-0.6,1-0.6,1.6c0,0.8,0.5,1,1.6,1c2,0,7.7-1.3,11.2-1.3c0.8,0,0.6,0.5,0.5,0.8c-2.2,4.8-6.4,12.6-8.8,17.1
	c-3,5.5-7.7,14-11.8,21c-0.4,0.6-0.8,1.3-2.4,3.1l0.6,0.5c1.7-1.4,4.4-2.6,5.4-2.6c0.5,0,1.4,0.4,2.2,0.9c3.6,1.8,8.2,2.4,11.9,2.4
	c12.8,0,20.7-8.3,20.7-15.5c0-5.8-6-6.8-9.6-7.5c-0.2,0-0.2-0.1-0.2-0.2s0-0.3,0.2-0.3c10.1-2.3,13.6-9.1,13.6-12.7
	C225.9,57.3,220,56.3,208.3,56.3 M221.2,63.4c0,6.3-4.9,10.9-9.5,12.9c-1,0.4-2.7,0.6-3.9,0.6c-1.4,0-2.7-0.6-4.1-0.6
	c-0.6,0-1.1,0.6-1.1,1.2c0,0.8,0.2,0.9,0.6,1c1.6,0,4.1-0.7,5.9-0.7c5.1,0.3,8.1,2.2,8.1,6c0,8.9-9.4,15.4-18.2,15.7
	c-6.9,0.1-9.3-3.7-9.3-5.1c0.1-0.7,0.3-1.2,0.6-1.7c4.8-9.6,10-19.6,14.2-27.1c1.3-2.2,2.8-4.9,4.3-6.8c0.9-1.2,2.2-1.4,3.6-1.4
	C216.6,57.3,221.2,58.4,221.2,63.4z"/>
<path fill="#D2232A" d="M164.7,87c1.7-1.4,4-2.4,5-2.4c0.6,0,1.1,0.2,1.6,0.5c3.9,2,7.8,2.4,12.2,2.4c5.3,0,10.7-1,15.6-3.1
	c9.8-4.4,18.4-16.2,18.4-27c0-11.7-10.9-13.6-20.9-13.6c-3.2,0-6.3,0.2-9.5,0.3c-2.7,0.2-7.1,0.5-9.4,0.5c-1.8,0-4-1.2-4.2-1.2
	c-0.4,0-0.5,1.1-0.5,1.4c0,1.2,0.6,1.5,1.7,1.5c4.2-0.1,8.1-1.3,12.2-1.3c0.3,0,0.8,0.1,0.8,0.5c-2.6,5.9-17.5,31.5-19.8,35.4
	c-0.8,1.5-2.3,3.8-4,5.6L164.7,87 M212.5,56.8c0,16.9-13.3,29.9-29,29.9c-4,0-8.1-1.2-10.4-3.5c-0.4-0.4-0.6-0.8-0.6-1.2
	c0-0.3,0.2-0.8,0.4-1.2c4.7-9.6,13.4-25,19.8-35c0.8-1.3,1.7-1.2,3.1-1.2C209.3,44.8,212.5,51.1,212.5,56.8z"/>
<path fill="#D2232A" d="M173.3,101.4c-0.9,0-1.5,0.7-1.5,1.5s0.7,1.5,1.5,1.5c0.9,0,1.5-0.7,1.5-1.5S174.1,101.4,173.3,101.4"/>
<path fill="#D2232A" d="M163.2,119.7c-8.1-11.5-13.1-27.3-13.1-44.7l0,0c0-17.5,5-33.3,13.1-44.7l0,0c8.1-11.5,19.4-18.6,31.8-18.6
	l0,0c12.4,0,23.7,7.1,31.8,18.6l0,0c8.1,11.5,13.1,27.3,13.1,44.7l0,0c0,17.5-5,33.3-13.1,44.7l0,0c-8.1,11.5-19.4,18.6-31.8,18.6
	l0,0C182.6,138.3,171.3,131.2,163.2,119.7L163.2,119.7z M163.6,30.6c-8.1,11.4-13,27.1-13,44.4l0,0c0,17.4,5,33.1,13,44.4l0,0
	c8.1,11.4,19.2,18.4,31.4,18.4l0,0c12.2,0,23.3-7,31.4-18.4l0,0c8.1-11.4,13-27.1,13-44.4l0,0c0-17.4-5-33.1-13-44.4l0,0
	c-8.1-11.4-19.2-18.4-31.4-18.4l0,0c0,0,0,0,0,0l0,0C182.8,12.2,171.7,19.2,163.6,30.6L163.6,30.6z"/>
<path fill="#D2232A" d="M185.2,128l-0.5,1.7h-1.8l1.4,1l-0.5,1.7l1.4-1l1.4,1l-0.5-1.7l1.4-1h-1.8L185.2,128 M190.1,128l-0.5,1.7
	h-1.8l1.4,1l-0.5,1.7l1.4-1l1.4,1l-0.5-1.7l1.4-1h-1.8L190.1,128z M195,128l-0.5,1.7h-1.8l1.4,1l-0.5,1.7l1.4-1l1.4,1l-0.5-1.7
	l1.4-1h-1.8L195,128z M199.9,128l-0.5,1.7h-1.8l1.4,1l-0.5,1.7l1.4-1l1.4,1l-0.5-1.7l1.4-1h-1.8L199.9,128z M204.8,128l-0.5,1.7
	h-1.8l1.4,1l-0.5,1.7l1.4-1l1.4,1l-0.5-1.7l1.4-1h-1.8L204.8,128z"/>
</svg>
