<?xml version="1.0" encoding="utf-8"?>
<!-- Generator: Adobe Illustrator 13.0.0, SVG Export Plug-In . SVG Version: 6.00 Build 14948)  -->
<!DOCTYPE svg PUBLIC "-//W3C//DTD SVG 1.1//EN" "http://www.w3.org/Graphics/SVG/1.1/DTD/svg11.dtd">
<svg version="1.1" id="Layer_19" xmlns="http://www.w3.org/2000/svg" xmlns:xlink="http://www.w3.org/1999/xlink" x="0px" y="0px"
	 width="390px" height="150px" viewBox="0 0 390 150" enable-background="new 0 0 390 150" xml:space="preserve">
<g>
	<defs>
		<rect id="SVGID_1_" x="82" y="12" width="225" height="126"/>
	</defs>
	<use xlink:href="#SVGID_1_"  overflow="visible" fill="#D1232A"/>
	<clipPath id="SVGID_2_">
		<use xlink:href="#SVGID_1_"  overflow="visible"/>
	</clipPath>
	<polygon clip-path="url(#SVGID_2_)" fill="#740304" points="82,138 307,138 307,114 82,114 	"/>
</g>
<path fill="#FFFFFF" d="M107.1,49.2c0-9.2,0-10.9-0.2-12.9c-0.2-2.1-1.1-3.1-3.2-3.4c-1-0.2-2.3-0.2-3.4-0.2c-0.9,0-1.5-0.1-1.5-0.6
	c0-0.4,0.8-0.5,2.3-0.5c3.6,0,9.5,0.2,12.3,0.2c2.4,0,7.9-0.2,11.5-0.2c1.2,0,2,0.1,2,0.5c0,0.5-0.6,0.6-1.5,0.6s-1.7,0.1-2.8,0.2
	c-2.5,0.3-3.3,1.3-3.5,3.5c-0.2,1.9-0.2,3.6-0.2,12.9v10.7c0,5.9,0,10.7,0.4,13.3c0.3,1.6,0.9,2.7,3.8,3c1.3,0.1,3.4,0.2,4.8,0.2
	c1,0,1.5,0.2,1.5,0.5c0,0.4-0.8,0.6-1.8,0.6c-6.2,0-12.2-0.2-14.7-0.2c-2.2,0-8.1,0.2-11.9,0.2c-1.2,0-1.9-0.2-1.9-0.6
	c0-0.3,0.4-0.5,1.5-0.5c1.4,0,2.5-0.1,3.4-0.2c1.9-0.2,2.5-1.3,2.7-3c0.5-2.5,0.5-7.3,0.5-13.2V49.2"/>
<path fill="#FFFFFF" d="M190.1,52.2c3,3,18.3,19.4,20.6,21.4c1.6,1.3,3,2.1,5.5,2.6c1.6,0.3,2.7,0.4,3.6,0.4c0.7,0,1.2,0.1,1.2,0.5
	c0,0.4-0.8,0.6-1.8,0.6h-2.8c-2.3,0-9.7,0-17-0.1c-2.5-0.1-3.2-0.2-3.2-0.6c0-0.4,0.5-0.5,1.3-0.7c0.5-0.1,0.8-0.6,0.2-1.4
	c-5.2-5.9-10.6-12-14.9-16.5l-13.9,14.5c-0.9,1-1.4,1.9-1.3,2.5c0.1,0.5,0.9,0.9,1.8,1c0.6,0.1,1.4,0.1,2.2,0.1
	c0.6,0,1.1,0.2,1.1,0.5c0,0.4-0.7,0.5-1.9,0.5H169c-0.6,0-6.5-0.2-8.9-0.2c-1.8,0-6.4,0.2-7.9,0.2h-1.6c-0.9,0-1.4-0.2-1.4-0.5
	c0-0.4,0.6-0.5,1.3-0.5c0.7,0,2.1-0.1,3.5-0.3c2.7-0.5,4.5-1.6,7.7-4.6l18-16.6l-16.2-17.3c-2.3-2.4-4.5-3.9-7.8-4.6
	c-1.5-0.3-3-0.4-4-0.4c-0.6,0-0.9-0.2-0.9-0.6c0-0.4,0.7-0.5,1.9-0.5c2.3,0,9.9,0.2,14.3,0.2c1.3,0,6.6-0.2,10.1-0.2
	c1.3,0,1.9,0.1,1.9,0.5s-0.6,0.5-1.4,0.5c-0.6,0-1.8,0.1-2.5,0.2c-0.8,0.2-1.1,0.6-1.1,1c0,0.4,0.4,1.1,0.9,1.8
	c4.1,4.9,8.3,9.3,12,13.4c2.7-2.7,11.4-11.1,12.8-12.8c0.8-0.9,1-1.8,1-2.3c0-0.4-0.7-0.9-1.6-1.1c-0.9-0.2-2.3-0.2-3-0.2
	c-0.6,0-1.1-0.1-1.1-0.5c0-0.4,0.7-0.5,2-0.5c3.7,0,7.6,0.2,9.4,0.2c1.9,0,5.7-0.2,9.2-0.2c1,0,1.7,0.2,1.7,0.5
	c0,0.4-0.6,0.5-1.5,0.5s-2.1,0.1-3.4,0.4c-2.2,0.4-4.1,2.1-6.9,4.7L190.1,52.2"/>
<path fill="#FFFFFF" d="M262.5,59.9c0,7.8,0,12,2,13.1c1.6,0.9,4.1,1.3,11.4,1.3c5,0,8.7-0.1,11-1.7c1.1-0.8,2.3-2.5,2.5-3.6
	c0.1-0.5,0.3-0.9,1-0.9c0.7,0,0.8,0.3,0.8,1c0,0.7-0.7,5.2-1.4,7c-0.6,1.3-1,1.6-5.9,1.6c-6.8,0-11.7-0.1-15.9-0.2
	c-4.2-0.1-7.6-0.2-11.5-0.2c-1,0-3.1,0-5.4,0.1c-2.2,0-4.6,0.1-6.5,0.1c-1.2,0-1.9-0.2-1.9-0.6c0-0.3,0.4-0.5,1.5-0.5
	c1.4,0,2.5-0.1,3.4-0.2c1.9-0.2,2.4-1.6,2.7-3.3c0.5-2.5,0.5-7.3,0.5-12.9V49.2c0-9.2,0-10.9-0.2-12.9c-0.2-2.1-0.9-3-4.1-3.5
	c-0.8-0.1-1.9-0.2-3.1-0.2c-1,0-1.6-0.1-1.6-0.5s0.7-0.5,2.1-0.5c4.4,0,10.4,0.2,12.9,0.2c2.3,0,9.1-0.2,12.8-0.2c1.3,0,2,0.1,2,0.5
	s-0.6,0.5-1.7,0.5c-1,0-2.5,0.1-3.7,0.2c-2.5,0.3-3.3,1.3-3.5,3.5c-0.2,1.9-0.2,3.6-0.2,12.9V59.9"/>
<path fill="#FFFFFF" d="M117.6,22.2c0,2.6-2.1,4.8-4.8,4.8s-4.8-2.1-4.8-4.8c0-2.6,2.1-4.8,4.8-4.8S117.6,19.5,117.6,22.2"/>
<polyline fill="#FFFFFF" points="109,86.1 106.6,93.6 98.8,93.6 105.1,98.2 102.7,105.7 109,101.1 115.3,105.7 112.9,98.2 
	119.2,93.6 111.4,93.6 109,86.1 "/>
<polyline fill="#FFFFFF" points="152,86.1 149.6,93.6 141.8,93.6 148.1,98.2 145.7,105.7 152,101.1 158.3,105.7 155.9,98.2 
	162.2,93.6 154.4,93.6 152,86.1 "/>
<polyline fill="#FFFFFF" points="195,86.1 192.6,93.6 184.8,93.6 191.1,98.2 188.7,105.7 195,101.1 201.3,105.7 198.9,98.2 
	205.2,93.6 197.4,93.6 195,86.1 "/>
<polyline fill="#FFFFFF" points="238,86.1 235.6,93.6 227.8,93.6 234.1,98.2 231.7,105.7 238,101.1 244.3,105.7 241.9,98.2 
	248.2,93.6 240.4,93.6 238,86.1 "/>
<polyline fill="#FFFFFF" points="281,86.1 278.6,93.6 270.8,93.6 277.1,98.2 274.7,105.7 281,101.1 287.3,105.7 284.9,98.2 
	291.2,93.6 283.4,93.6 281,86.1 "/>
<path fill="#FFFFFF" d="M101.2,125c0-2,0-2.4,0-2.8c0-0.4-0.1-0.7-0.6-0.7c-0.1,0-0.3,0-0.4,0c-0.1,0-0.1,0-0.1-0.1
	c0-0.1,0.1-0.1,0.2-0.1c0.6,0,1.4,0,1.5,0c0.1,0,2.7,0,3,0c0.2,0,0.5,0,0.6-0.1c0.1,0,0.1-0.1,0.2-0.1c0,0,0.1,0.1,0.1,0.1
	c0,0.1-0.1,0.2-0.1,0.6c0,0.1,0,0.7-0.1,0.9c0,0.1,0,0.1-0.1,0.1c-0.1,0-0.1-0.1-0.1-0.2c0-0.1,0-0.3-0.1-0.5
	c-0.1-0.2-0.2-0.4-0.9-0.4c-0.2,0-1.6,0-1.8,0c-0.1,0-0.1,0-0.1,0.1v3.6c0,0.1,0,0.1,0.1,0.1c0.2,0,1.8,0,2.1,0
	c0.3,0,0.5-0.1,0.6-0.2c0.1-0.1,0.1-0.2,0.2-0.2c0,0,0.1,0,0.1,0.1s-0.1,0.3-0.1,0.7c0,0.3-0.1,0.7-0.1,0.8c0,0.1,0,0.2-0.1,0.2
	c-0.1,0-0.1-0.1-0.1-0.1c0-0.1,0-0.3-0.1-0.4c-0.1-0.2-0.2-0.4-0.7-0.5c-0.3,0-1.6-0.1-1.9-0.1c-0.1,0-0.1,0-0.1,0.1v1.1
	c0,0.4,0,2,0,2.2c0,0.9,0.2,1.1,1.5,1.1c0.3,0,0.9,0,1.2-0.1c0.3-0.1,0.5-0.4,0.6-0.9c0-0.1,0.1-0.2,0.1-0.2c0.1,0,0.1,0.1,0.1,0.2
	c0,0.1-0.1,1-0.2,1.3c-0.1,0.3-0.2,0.3-0.7,0.3c-2,0-2.8-0.1-3.2-0.1c-0.1,0-0.9,0-1.3,0c-0.1,0-0.2,0-0.2-0.1c0,0,0-0.1,0.1-0.1
	c0.1,0,0.3,0,0.4-0.1c0.3-0.1,0.3-0.3,0.4-0.7c0.1-0.5,0.1-1.6,0.1-2.8V125"/>
<path fill="#FFFFFF" d="M117.8,129.4c0.8-1.7,2.5-6.3,2.8-7.2c0.1-0.2,0.1-0.4,0.1-0.5c0-0.1,0-0.2-0.2-0.3
	c-0.2-0.1-0.4-0.1-0.5-0.1c-0.1,0-0.1,0-0.1-0.1c0-0.1,0.1-0.1,0.3-0.1c0.5,0,1.1,0,1.3,0c0.1,0,0.6,0,1,0c0.1,0,0.2,0,0.2,0.1
	s-0.1,0.1-0.2,0.1c-0.1,0-0.4,0-0.6,0.2c-0.2,0.1-0.4,0.3-0.7,1.2c-0.1,0.4-0.8,1.9-1.5,3.5c-0.8,1.9-1.4,3.3-1.7,3.9
	c-0.4,0.8-0.4,1-0.5,1c-0.2,0-0.2-0.2-0.5-0.8l-3.2-8c-0.3-0.7-0.5-0.9-0.9-1c-0.2-0.1-0.4-0.1-0.5-0.1s-0.1,0-0.1-0.1
	c0-0.1,0.1-0.1,0.3-0.1c0.6,0,1.4,0,1.5,0c0.1,0,0.7,0,1.2,0c0.2,0,0.4,0,0.4,0.1s0,0.1-0.1,0.1c-0.1,0-0.4,0-0.5,0.1
	c-0.1,0.1-0.2,0.2-0.2,0.3c0,0.2,0.2,0.6,0.4,1.1L117.8,129.4"/>
<path fill="#FFFFFF" d="M130.2,125c0-2,0-2.4,0-2.8c0-0.4-0.1-0.7-0.6-0.7c-0.1,0-0.3,0-0.4,0c-0.1,0-0.1,0-0.1-0.1
	c0-0.1,0.1-0.1,0.2-0.1c0.6,0,1.4,0,1.5,0c0.1,0,2.7,0,3,0c0.2,0,0.5,0,0.6-0.1c0.1,0,0.1-0.1,0.2-0.1c0,0,0.1,0.1,0.1,0.1
	c0,0.1-0.1,0.2-0.1,0.6c0,0.1,0,0.7-0.1,0.9c0,0.1,0,0.1-0.1,0.1c-0.1,0-0.1-0.1-0.1-0.2c0-0.1,0-0.3-0.1-0.5
	c-0.1-0.2-0.2-0.4-0.9-0.4c-0.2,0-1.6,0-1.8,0c-0.1,0-0.1,0-0.1,0.1v3.6c0,0.1,0,0.1,0.1,0.1c0.2,0,1.8,0,2.1,0
	c0.3,0,0.5-0.1,0.6-0.2c0.1-0.1,0.1-0.2,0.2-0.2c0,0,0.1,0,0.1,0.1s-0.1,0.3-0.1,0.7c0,0.3-0.1,0.7-0.1,0.8c0,0.1,0,0.2-0.1,0.2
	c-0.1,0-0.1-0.1-0.1-0.1c0-0.1,0-0.3-0.1-0.4c-0.1-0.2-0.2-0.4-0.7-0.5c-0.4,0-1.6-0.1-1.9-0.1c-0.1,0-0.1,0-0.1,0.1v1.1
	c0,0.4,0,2,0,2.2c0,0.9,0.2,1.1,1.5,1.1c0.3,0,0.9,0,1.2-0.1c0.3-0.1,0.5-0.4,0.6-0.9c0-0.1,0.1-0.2,0.1-0.2c0.1,0,0.1,0.1,0.1,0.2
	c0,0.1-0.1,1-0.2,1.3c-0.1,0.3-0.2,0.3-0.7,0.3c-2,0-2.8-0.1-3.2-0.1c-0.1,0-0.9,0-1.3,0c-0.1,0-0.2,0-0.2-0.1c0,0,0-0.1,0.1-0.1
	c0.1,0,0.3,0,0.4-0.1c0.3-0.1,0.3-0.3,0.4-0.7c0.1-0.5,0.1-1.6,0.1-2.8V125"/>
<path fill="#FFFFFF" d="M144,129.2c0,1.1,0.2,1.4,0.5,1.5c0.2,0.1,0.5,0.1,0.6,0.1c0.1,0,0.1,0,0.1,0.1c0,0.1-0.1,0.1-0.2,0.1
	c-0.7,0-1.3,0-1.4,0s-0.7,0-1.2,0c-0.1,0-0.2,0-0.2-0.1c0-0.1,0-0.1,0.1-0.1c0.1,0,0.3,0,0.5-0.1c0.3-0.1,0.4-0.5,0.4-1.7l0-7.5
	c0-0.5,0-0.7,0.1-0.7c0.1,0,0.3,0.3,0.5,0.4c0.2,0.2,2.1,2.3,4.1,4.5c1.3,1.4,2.7,3,3.1,3.4l-0.1-6.6c0-0.8-0.1-1.1-0.5-1.2
	c-0.2-0.1-0.5-0.1-0.6-0.1c-0.1,0-0.1,0-0.1-0.1c0-0.1,0.1-0.1,0.3-0.1c0.6,0,1.2,0,1.4,0c0.1,0,0.6,0,1.1,0c0.1,0,0.2,0,0.2,0.1
	c0,0.1-0.1,0.1-0.1,0.1c-0.1,0-0.2,0-0.3,0c-0.4,0.1-0.5,0.4-0.5,1.2l0,7.6c0,0.9,0,0.9-0.1,0.9c-0.1,0-0.3-0.1-1-0.8
	c-0.1-0.1-2-2-3.4-3.5c-1.5-1.6-3-3.3-3.4-3.7L144,129.2"/>
<path fill="#FFFFFF" d="M164.3,127.2c0,1.2,0,2.3,0.1,2.8c0,0.4,0.1,0.7,0.5,0.7c0.2,0,0.5,0.1,0.6,0.1c0.1,0,0.1,0,0.1,0.1
	c0,0.1-0.1,0.1-0.2,0.1c-0.7,0-1.5,0-1.6,0c-0.1,0-0.9,0-1.3,0c-0.1,0-0.2,0-0.2-0.1c0,0,0-0.1,0.1-0.1c0.1,0,0.3,0,0.4-0.1
	c0.3-0.1,0.3-0.3,0.4-0.7c0.1-0.5,0.1-1.6,0.1-2.8v-5.5l-1.9,0c-0.8,0-1.1,0.1-1.3,0.4c-0.1,0.2-0.2,0.3-0.2,0.4
	c0,0.1-0.1,0.1-0.1,0.1c0,0-0.1,0-0.1-0.1c0-0.1,0.3-1.2,0.3-1.4c0-0.1,0.1-0.2,0.1-0.2c0.1,0,0.2,0.1,0.6,0.2c0.4,0,0.9,0.1,1,0.1
	h4.9c0.8,0,1.2-0.1,1.3-0.1c0.1,0,0.1,0.1,0.1,0.2c0,0.4,0,1.3,0,1.4c0,0.1,0,0.2-0.1,0.2c-0.1,0-0.1,0-0.1-0.2l0-0.1
	c-0.1-0.4-0.4-0.7-1.6-0.7l-1.6,0V127.2"/>
<path fill="#FFFFFF" d="M175,130.8c-0.2-0.1-0.2-0.1-0.2-0.5c0-0.7,0.1-1.2,0.1-1.4c0-0.1,0-0.2,0.1-0.2c0.1,0,0.1,0,0.1,0.1
	c0,0.1,0,0.3,0,0.5c0.2,1,1.1,1.3,1.9,1.3c1.2,0,1.9-0.9,1.9-1.7c0-0.9-0.4-1.4-1.5-2.3l-0.6-0.5c-1.4-1.1-1.7-1.9-1.7-2.8
	c0-1.4,1-2.3,2.7-2.3c0.5,0,0.9,0.1,1.2,0.1c0.2,0.1,0.4,0.1,0.5,0.1c0.1,0,0.1,0,0.1,0.1s-0.1,0.5-0.1,1.4c0,0.2,0,0.3-0.1,0.3
	c-0.1,0-0.1-0.1-0.1-0.2c0-0.2-0.1-0.5-0.2-0.6c-0.1-0.1-0.4-0.7-1.6-0.7c-0.9,0-1.6,0.6-1.6,1.5c0,0.7,0.4,1.2,1.6,2.2l0.4,0.3
	c1.5,1.2,1.9,2,1.9,3.1c0,0.5-0.2,1.5-1.1,2.2c-0.6,0.4-1.3,0.5-2,0.5C176.2,131.2,175.6,131.1,175,130.8"/>
<path fill="#FFFFFF" d="M199.7,127.3c0,1.9,0.1,2.7,0.3,3c0.2,0.2,0.5,0.3,1.6,0.3c0.7,0,1.3,0,1.6-0.4c0.2-0.2,0.3-0.5,0.3-0.8
	c0-0.1,0-0.2,0.1-0.2c0.1,0,0.1,0.1,0.1,0.2s-0.1,0.9-0.2,1.3c-0.1,0.3-0.1,0.4-0.8,0.4c-1.9,0-2.7-0.1-3.5-0.1c-0.1,0-0.9,0-1.3,0
	c-0.1,0-0.2,0-0.2-0.1c0,0,0-0.1,0.1-0.1c0.1,0,0.3,0,0.4-0.1c0.3-0.1,0.3-0.3,0.4-0.7c0.1-0.5,0.1-1.6,0.1-2.8V125c0-2,0-2.4,0-2.8
	c0-0.4-0.1-0.7-0.6-0.7c-0.1,0-0.3,0-0.4,0c-0.1,0-0.1,0-0.1-0.1c0-0.1,0.1-0.1,0.2-0.1c0.6,0,1.4,0,1.5,0c0.1,0,1,0,1.4,0
	c0.1,0,0.2,0,0.2,0.1c0,0.1-0.1,0.1-0.1,0.1c-0.1,0-0.3,0-0.4,0c-0.4,0.1-0.5,0.3-0.5,0.7c0,0.4,0,0.8,0,2.8V127.3"/>
<path fill="#FFFFFF" d="M212.9,127.2c0,1.2,0,2.3,0.1,2.8c0,0.4,0.1,0.7,0.5,0.7c0.2,0,0.5,0.1,0.6,0.1c0.1,0,0.1,0,0.1,0.1
	c0,0.1-0.1,0.1-0.2,0.1c-0.7,0-1.5,0-1.6,0s-0.9,0-1.3,0c-0.1,0-0.2,0-0.2-0.1c0,0,0-0.1,0.1-0.1c0.1,0,0.3,0,0.4-0.1
	c0.3-0.1,0.3-0.3,0.4-0.7c0.1-0.5,0.1-1.6,0.1-2.8V125c0-2,0-2.4,0-2.8c0-0.4-0.2-0.7-0.4-0.7c-0.1,0-0.3-0.1-0.4-0.1
	c-0.1,0-0.1,0-0.1-0.1c0-0.1,0.1-0.1,0.2-0.1c0.4,0,1.2,0,1.3,0s0.9,0,1.3,0c0.1,0,0.2,0,0.2,0.1c0,0.1-0.1,0.1-0.1,0.1
	c-0.1,0-0.2,0-0.3,0c-0.4,0.1-0.5,0.3-0.5,0.7c0,0.4,0,0.8,0,2.8V127.2"/>
<path fill="#FFFFFF" d="M232.7,129.3c0.1,0.5,0.1,1.2,0.7,1.4c0.4,0.1,0.7,0.1,0.8,0.1c0.1,0,0.1,0,0.1,0.1c0,0.1-0.1,0.1-0.3,0.1
	c-0.3,0-1.7,0-2.2-0.1c-0.3,0-0.4-0.1-0.4-0.1c0-0.1,0-0.1,0.1-0.1c0.1,0,0.1-0.2,0.1-0.5l-0.6-6.7h0l-3.2,6.8
	c-0.3,0.6-0.3,0.7-0.4,0.7c-0.1,0-0.2-0.1-0.4-0.6c-0.3-0.6-1.5-2.9-1.5-3c-0.1-0.2-1.6-3.4-1.7-3.7h-0.1l-0.5,6c0,0.2,0,0.4,0,0.7
	c0,0.2,0.1,0.4,0.3,0.4c0.2,0.1,0.4,0.1,0.5,0.1c0.1,0,0.1,0,0.1,0.1c0,0.1-0.1,0.1-0.2,0.1c-0.5,0-1.1,0-1.2,0c-0.1,0-0.7,0-1.1,0
	c-0.1,0-0.2,0-0.2-0.1c0,0,0.1-0.1,0.1-0.1c0.1,0,0.2,0,0.4,0c0.4-0.1,0.5-0.6,0.5-1.1l0.9-8.5c0-0.1,0.1-0.2,0.1-0.2
	c0.1,0,0.1,0.1,0.2,0.2l4,8.2l3.8-8.2c0.1-0.1,0.1-0.2,0.2-0.2s0.1,0.1,0.2,0.4L232.7,129.3"/>
<path fill="#FFFFFF" d="M243.3,127.2c0,1.2,0,2.3,0.1,2.8c0,0.4,0.1,0.7,0.5,0.7c0.2,0,0.5,0.1,0.6,0.1c0.1,0,0.1,0,0.1,0.1
	c0,0.1-0.1,0.1-0.2,0.1c-0.7,0-1.5,0-1.6,0c-0.1,0-0.9,0-1.3,0c-0.1,0-0.2,0-0.2-0.1c0,0,0-0.1,0.1-0.1c0.1,0,0.3,0,0.4-0.1
	c0.3-0.1,0.3-0.3,0.4-0.7c0.1-0.5,0.1-1.6,0.1-2.8V125c0-2,0-2.4,0-2.8c0-0.4-0.2-0.7-0.4-0.7c-0.1,0-0.3-0.1-0.4-0.1
	c-0.1,0-0.1,0-0.1-0.1c0-0.1,0.1-0.1,0.2-0.1c0.4,0,1.2,0,1.3,0c0.1,0,0.9,0,1.3,0c0.1,0,0.2,0,0.2,0.1c0,0.1-0.1,0.1-0.1,0.1
	c-0.1,0-0.2,0-0.3,0c-0.4,0.1-0.5,0.3-0.5,0.7c0,0.4,0,0.8,0,2.8V127.2"/>
<path fill="#FFFFFF" d="M256.3,127.2c0,1.2,0,2.3,0.1,2.8c0,0.4,0.1,0.7,0.5,0.7c0.2,0,0.5,0.1,0.6,0.1c0.1,0,0.1,0,0.1,0.1
	c0,0.1-0.1,0.1-0.2,0.1c-0.7,0-1.5,0-1.6,0c-0.1,0-0.9,0-1.3,0c-0.1,0-0.2,0-0.2-0.1c0,0,0-0.1,0.1-0.1c0.1,0,0.3,0,0.4-0.1
	c0.3-0.1,0.3-0.3,0.4-0.7c0.1-0.5,0.1-1.6,0.1-2.8v-5.5l-1.9,0c-0.8,0-1.1,0.1-1.3,0.4c-0.1,0.2-0.2,0.3-0.2,0.4
	c0,0.1-0.1,0.1-0.1,0.1c0,0-0.1,0-0.1-0.1c0-0.1,0.3-1.2,0.3-1.4c0-0.1,0.1-0.2,0.1-0.2c0.1,0,0.2,0.1,0.6,0.2c0.4,0,0.9,0.1,1,0.1
	h4.9c0.8,0,1.2-0.1,1.3-0.1c0.1,0,0.1,0.1,0.1,0.2c0,0.4,0,1.3,0,1.4c0,0.1,0,0.2-0.1,0.2c-0.1,0-0.1,0-0.1-0.2l0-0.1
	c-0.1-0.4-0.4-0.7-1.6-0.7l-1.6,0V127.2"/>
<path fill="#FFFFFF" d="M268,125c0-2,0-2.4,0-2.8c0-0.4-0.1-0.7-0.6-0.7c-0.1,0-0.3,0-0.4,0c-0.1,0-0.1,0-0.1-0.1
	c0-0.1,0.1-0.1,0.2-0.1c0.6,0,1.4,0,1.5,0c0.1,0,2.7,0,3,0c0.2,0,0.5,0,0.6-0.1c0.1,0,0.1-0.1,0.2-0.1c0,0,0.1,0.1,0.1,0.1
	c0,0.1-0.1,0.2-0.1,0.6c0,0.1,0,0.7-0.1,0.9c0,0.1,0,0.1-0.1,0.1c-0.1,0-0.1-0.1-0.1-0.2c0-0.1,0-0.3-0.1-0.5
	c-0.1-0.2-0.2-0.4-0.9-0.4c-0.2,0-1.6,0-1.8,0c-0.1,0-0.1,0-0.1,0.1v3.6c0,0.1,0,0.1,0.1,0.1c0.2,0,1.8,0,2.1,0
	c0.3,0,0.5-0.1,0.6-0.2c0.1-0.1,0.1-0.2,0.2-0.2c0,0,0.1,0,0.1,0.1s-0.1,0.3-0.1,0.7c0,0.3-0.1,0.7-0.1,0.8c0,0.1,0,0.2-0.1,0.2
	c-0.1,0-0.1-0.1-0.1-0.1c0-0.1,0-0.3-0.1-0.4c-0.1-0.2-0.2-0.4-0.7-0.5c-0.4,0-1.6-0.1-1.9-0.1c-0.1,0-0.1,0-0.1,0.1v1.1
	c0,0.4,0,2,0,2.2c0,0.9,0.2,1.1,1.5,1.1c0.3,0,0.9,0,1.2-0.1s0.5-0.4,0.6-0.9c0-0.1,0.1-0.2,0.1-0.2c0.1,0,0.1,0.1,0.1,0.2
	c0,0.1-0.1,1-0.2,1.3c-0.1,0.3-0.2,0.3-0.7,0.3c-2,0-2.8-0.1-3.2-0.1c-0.1,0-0.9,0-1.3,0c-0.1,0-0.2,0-0.2-0.1c0,0,0-0.1,0.1-0.1
	c0.1,0,0.3,0,0.4-0.1c0.3-0.1,0.3-0.3,0.4-0.7c0.1-0.5,0.1-1.6,0.1-2.8V125"/>
<path fill="#FFFFFF" d="M281.5,125c0-2,0-2.4,0-2.8c0-0.4-0.1-0.7-0.6-0.7c-0.1,0-0.3,0-0.4,0c-0.1,0-0.1,0-0.1-0.1
	c0-0.1,0.1-0.1,0.2-0.1c0.6,0,1.4,0,1.5,0c0.2,0,1,0,1.8,0c1.3,0,3.7-0.1,5.2,1.5c0.7,0.7,1.3,1.8,1.3,3.3c0,1.6-0.7,2.9-1.4,3.7
	c-0.6,0.6-1.7,1.5-3.9,1.5c-1.1,0-2.8-0.2-2.9-0.2c-0.1,0-0.9,0-1.3,0c-0.1,0-0.2,0-0.2-0.1c0,0,0-0.1,0.1-0.1c0.1,0,0.3,0,0.4-0.1
	c0.3-0.1,0.3-0.3,0.4-0.7c0.1-0.5,0.1-1.6,0.1-2.8V125 M282.6,126.4c0,1.4,0,2.6,0,2.8c0,0.3,0,0.8,0.1,1c0.2,0.2,0.7,0.5,2.2,0.5
	c1.2,0,2.3-0.4,3.1-1.2c0.7-0.7,1-1.9,1-3.1c0-1.7-0.7-2.7-1.2-3.3c-1.2-1.3-2.7-1.5-4.3-1.5c-0.3,0-0.7,0-0.8,0.1
	c-0.1,0.1-0.2,0.1-0.2,0.3c0,0.4,0,1.8,0,2.8V126.4z"/>
</svg>
