<?xml version="1.0" encoding="utf-8"?>
<!-- Generator: Adobe Illustrator 13.0.0, SVG Export Plug-In . SVG Version: 6.00 Build 14948)  -->
<!DOCTYPE svg PUBLIC "-//W3C//DTD SVG 1.1//EN" "http://www.w3.org/Graphics/SVG/1.1/DTD/svg11.dtd">
<svg version="1.1" id="Grosvenor_Casinos" xmlns="http://www.w3.org/2000/svg" xmlns:xlink="http://www.w3.org/1999/xlink" x="0px"
	 y="0px" width="390px" height="150px" viewBox="0 0 390 150" enable-background="new 0 0 390 150" xml:space="preserve">
<g>
	<path d="M194.6,13.1c-34.4,0-62.2,27.9-62.2,62.2c0,34.4,27.9,62.2,62.2,62.2c34.4,0,62.2-27.9,62.2-62.2
		C256.8,41,228.9,13.1,194.6,13.1 M194.6,134.4c-32.6,0-59.1-26.5-59.1-59.1c0-32.6,26.5-59.1,59.1-59.1c32.6,0,59.1,26.5,59.1,59.1
		C253.7,108,227.2,134.4,194.6,134.4"/>
	<path d="M241.6,84.7c-1.3-0.3-2.6,0.5-3,1.8c-0.3,1.3,0.5,2.6,1.8,2.9c1.3,0.3,2.6-0.4,3-1.7C243.7,86.4,242.9,85.1,241.6,84.7"/>
	<path d="M147.6,84.7c-1.3,0.3-2.1,1.7-1.8,3c0.3,1.3,1.7,2.1,3,1.7c1.3-0.3,2.1-1.7,1.8-2.9C150.2,85.2,148.9,84.4,147.6,84.7"/>
	<path d="M149.1,70c3.2-0.1,5.8-2.3,6.7-5.7c0.5-1.8,0.5-3.4,0.2-5.4l0-0.2l-5.9-1.6l-1.3,4.9l2.2,0.6l0.7-2.5l2.3,0.6
		c0,0.8,0,1.8-0.2,2.7c-0.6,2.4-2.4,3.9-4.6,4c-0.5,0-1,0-1.5-0.2c-1.3-0.3-2.4-1.2-3-2.3c-0.7-1.1-0.8-2.5-0.5-3.8
		c0.4-1.5,1.2-3,2.5-4.3l0.3-0.3l-2.5-0.6l-0.1,0.1c-1.4,1.8-2,2.9-2.4,4.5c-1.1,4.1,1.1,8.1,5.1,9.1C147.6,70,148.4,70.1,149.1,70"
		/>
	<path d="M159.6,54.7l-4.9-3.3l0.3-0.5c0.5-0.7,1.1-1.2,4.4-1.2l3.4,0.1l1.6-2.4l-1.5,0.1c-0.8,0-1.4,0-2.2,0l-0.1,0
		c-1.9-0.1-3.3-0.1-4.4,0.3c0.2-1.5-0.4-2.7-1.7-3.6c-0.7-0.5-1.5-0.7-2.3-0.7c-1.4,0-2.7,0.9-3.6,2.4l-2,3l11.7,7.8L159.6,54.7z
		 M153.5,49.3l-0.6,0.8l-3.1-2.1l0.6-0.8c0.9-1.3,1.8-1.7,2.9-1c0.5,0.3,0.8,0.7,0.9,1.1C154.2,47.9,154,48.6,153.5,49.3"/>
	<path d="M165.6,45c1.6,0,3.1-0.6,4.4-1.7c4-3,3.8-7.5,1.6-10.3c-1.4-1.9-3.6-2.9-5.8-2.8c-1.6,0-3.1,0.6-4.5,1.7
		c-3.4,2.6-4.1,7-1.6,10.3C161.1,44,163.3,45.1,165.6,45 M162.7,33.7c0.9-0.7,2-1.1,3-1.1c1.5-0.1,3,0.7,4,2c0.8,1.1,1.2,2.4,1,3.7
		c-0.2,1.3-0.9,2.5-2,3.3c-0.9,0.7-1.9,1.1-3,1.1l0,0c-1.6,0.1-3-0.7-4-2C159.9,38.4,160.4,35.5,162.7,33.7"/>
	<path d="M178.7,31.4c1.5,0.3,2.9,0.6,3.2,1.7c0.2,0.5,0,1.6-1.4,2c-1.2,0.4-2.5,0.2-3.8-0.7l-0.6-0.4l1.1,3.1l0.1,0
		c0.7,0.2,1.5,0.3,2.2,0.3c0.6,0,1.3-0.1,2-0.4c2.2-0.8,3.3-2.9,2.5-5c-0.8-2.4-3.1-2.8-4.9-3.2c-1.4-0.3-2.6-0.5-2.9-1.4
		c-0.3-0.8,0.3-1.6,1.4-1.9c1-0.3,2.1-0.2,3.3,0.3l0.5,0.2l-0.9-2.7l-0.1,0c-1.1-0.3-2.3-0.3-3.3,0.1c-2.5,0.9-3.6,2.8-2.9,5.1
		C174.9,30.6,176.9,31,178.7,31.4"/>
	<polygon points="208.1,34.5 202.3,33.3 203.1,29.6 208.5,30.8 209,28.6 203.6,27.5 204.3,23.9 209.9,25.1 210.4,22.9 202.4,21.2 
		199.5,34.7 199.5,35 207.6,36.7 	"/>
	<polygon points="212.2,38.6 217.5,30.1 219.6,43.2 221.4,44.3 228.7,32.3 226.8,31.1 221.5,39.7 219.2,26.5 217.6,25.5 210.3,37.4 
			"/>
	<path d="M225.6,45.8c-0.3,1.9,0.2,4,1.5,5.7c1.6,2.2,3.8,3.3,6.2,3.2c1.4,0,2.9-0.5,4-1.4c3.4-2.5,3.9-6.8,1.3-10.3
		c-1.6-2.1-3.8-3.3-6.2-3.2c-1.5,0-2.8,0.5-4,1.4C226.9,42.3,225.9,43.9,225.6,45.8 M229.9,43.1c0.8-0.6,1.8-1,2.8-1
		c1.6-0.1,3.1,0.7,4.1,2.1c1.7,2.4,1.3,5.3-1,7c-0.8,0.6-1.8,1-2.8,1c-1.6,0.1-3.1-0.7-4.2-2.1c-0.8-1.1-1.2-2.5-1-3.7
		C228.1,45.1,228.8,44,229.9,43.1"/>
	<path d="M246.6,58.8l-1-3.5l-13.2,3.9l-0.2,0.1l0.7,2.3l5.6-1.7l0.2,0.5c0.2,0.8,0.3,1.6-1.9,4.1l-2.2,2.6l0.8,2.8l0.5-0.6
		c0.8-1.1,1.2-1.5,1.9-2.3l0.1-0.1c1.2-1.3,2.1-2.4,2.6-3.6c1,1.1,2.4,1.4,3.8,1C246.5,63.7,247.4,61.6,246.6,58.8 M243.4,62
		c-0.2,0.1-0.4,0.1-0.6,0.1c-0.9,0-1.6-0.6-1.9-1.9l-0.3-1l3.6-1.1l0.3,1C245.1,61.2,244.2,61.8,243.4,62"/>
	<polygon points="191.8,35.1 192.6,35 197.7,20.5 195.2,20.7 191.9,30 187.4,21.1 184.9,21.3 191.8,34.9 	"/>
	<path d="M155.6,110.1c-1-1.2-1.5-2.5-1.5-3.8c0.1-1.3,0.7-2.5,1.7-3.4c1-0.9,2.1-1.3,3.3-1.2c1.4,0,2.8,0.7,3.8,1.9
		c1,1.1,1.6,2.5,1.9,4.3l0.1,0.4l2-1.7l0-0.2c-0.6-1.9-1.3-3.3-2.3-4.3c-1.5-1.7-3.5-2.7-5.6-2.8c-1.8-0.1-3.6,0.6-5,1.8
		c-2,1.8-3.9,6.1-0.3,10.3c1.6,1.8,3,2.5,4.2,3l0.1,0.1l2.1-1.8l-0.4-0.1C158,112.2,156.6,111.3,155.6,110.1"/>
	<path d="M160.4,118l2.2,1.3l3.5-2.6l4.7,2.8l-0.5,4.4l2.2,1.3l1.9-15.2l0-0.2l-1.5-0.9L160.4,118z M171,117.1l-3-1.8l3.5-2.6
		L171,117.1z"/>
	<path d="M183.8,113.8c-0.5-0.1-1-0.2-1.4-0.2c-1.9-0.1-3.3,1-3.8,2.8c-0.6,2,0.8,3.6,2.1,4.9c1.1,1.2,2,2.1,1.7,3.3
		c-0.1,0.5-0.7,1-1.6,1c-0.2,0-0.4,0-0.7-0.1c-1.2-0.3-2.2-1.3-2.8-2.7L177,122l-0.9,3.2l0.1,0.1c0.9,1.2,2,1.9,3.4,2.3
		c0.4,0.1,0.7,0.2,1.1,0.2c1.8,0.1,3.4-1.1,3.9-2.8c0.7-2.5-0.9-4.1-2.2-5.4c-1-1-1.8-1.8-1.6-2.8c0.2-0.6,0.7-0.9,1.5-0.9
		c0.2,0,0.5,0,0.7,0.1c1,0.3,1.9,1,2.5,2.1l0.3,0.5l0.8-2.8l-0.1-0.1C185.8,114.7,184.8,114,183.8,113.8"/>
	<polygon points="188.7,128.9 188.6,129.1 191.1,129.3 192.3,115.6 192.3,115.3 189.9,115.1 	"/>
	<polygon points="205.8,114 207.5,124 197.1,115.6 197.1,115.6 195.2,115.9 197.6,129.7 199.9,129.3 198.2,119.4 208.4,127.8 
		208.5,127.8 210.4,127.5 208,113.7 	"/>
	<path d="M220.1,108c-1.5,0-3,0.4-4.4,1.2c-1.8,1.1-3.1,2.8-3.6,4.7c-0.4,1.8-0.1,3.7,0.9,5.4c1.3,2.1,3.5,3.4,5.8,3.4
		c1.5,0,2.9-0.4,4.3-1.2c1.9-1.2,3.2-2.8,3.6-4.8c0.4-1.8,0.1-3.7-0.9-5.3C224.6,109.4,222.5,108.1,220.1,108 M222,119.6
		c-0.9,0.6-1.9,0.8-2.9,0.8c-1.6,0-3.1-0.9-4-2.4c-1.5-2.4-0.8-5.3,1.7-6.8c0.9-0.6,1.9-0.8,2.9-0.8c1.6,0.1,3.1,0.9,4,2.4
		C225.3,115.2,224.5,118.1,222,119.6"/>
	<path d="M233.2,104.1c-1.1,0-2.3,0.4-3.3,0.7c-0.8,0.3-1.6,0.6-2.3,0.6c-0.4,0-0.7-0.1-0.9-0.3c-0.6-0.5-0.5-1.5,0.2-2.3
		c0.7-0.8,1.7-1.3,3-1.4l0.6-0.1l-2.2-1.9l-0.1,0c-1.1,0.3-2.1,0.9-2.8,1.7c-0.8,1-1.3,2-1.3,3.1c0,1,0.5,2,1.3,2.8
		c0.6,0.5,1.3,0.8,2.2,0.8c1,0,2.1-0.3,3.1-0.6c0.9-0.3,1.8-0.6,2.5-0.5c0.5,0,0.8,0.2,1.2,0.4c0.3,0.2,0.4,0.6,0.4,1
		c0,0.3-0.1,0.9-0.6,1.5c-0.8,0.9-2,1.4-3.5,1.3l-0.9,0l2.5,2.2l0.1,0c1.4-0.3,2.6-1,3.6-2.1c1.5-1.8,1.4-4.1-0.3-5.6
		C235,104.4,234.2,104.1,233.2,104.1"/>
	<path d="M230.2,75.3c0-19.6-16-35.6-35.6-35.6c-19.6,0-35.6,16-35.6,35.6c0,19.6,16,35.6,35.6,35.6C214.2,111,230.2,95,230.2,75.3
		 M162.1,75.3c0-10.1,4.7-19.2,11.9-25.1c-5.3,6.3-7.4,15.9-2.7,23.3c-2,4.4-3.2,9-3.2,13.4c0,3.4,0.7,7,2.3,10.2
		C165.3,91.3,162.1,83.7,162.1,75.3 M194.6,107.8c-3.9,0-7.6-0.7-11-1.9c3.5,0.5,7.9,0.4,13.4-0.9c7.1-1.6,13.2-5.3,17.7-10.7
		c1.9-2.3,3.5-4.8,4.6-7.3c0.9-2,1.2-4.7,1.1-6.2c0-0.9-0.8-1.7-2-1.9s-2.5-0.1-3.5,0.6c-2.4,1.5-3.9,2.4-6.6,3.5
		c-0.8,0.3-2.5,1-3.3,1.3c-1.8,0.7-3.7,1.3-5.5,1.8c-2.1,0.6-4.5,0.9-6.7,0.8c-1.3,0-2.5,0-3.8-0.3c-0.5-0.1-1-0.2-1.6-0.3
		c-0.5,0-0.7,0.5-0.7,0.9c0,0.8,1.2,1.1,1.8,1.2c0.9,0.3,1.8,0.5,2.7,0.7c3.6,0.6,7.2,0.1,10.7-0.5c2.2-0.4,4.4-0.9,6.5-1.4
		c0.6-0.2,1.2-0.3,1.8-0.5c0.7-0.2,1.5-0.6,2.3-0.3c0.5,0.3,0.1,1.3-0.1,1.6c-0.5,0.9-1.2,1.8-1.9,2.6c-2.2,2.6-4.6,5.1-7.7,6.9
		c-0.9,0.5-1.7,1-2.7,1.4c-3,1.3-6.1,2-9.4,2.4c-8.2,0.8-13.9-3.7-16.1-11c-1.3-4.4-1.7-9.2-0.9-13.8c2.6,2.8,5.7,4.7,9.4,6.1
		c0.8,0.3,1.7,0.6,2.5,0.7c1.3,0.3,2.7,0.5,4.1,0.7c7.3,0.6,13.5-0.8,19.8-4.6c0.3-0.2,3.5-2,3.5-2.3c-0.1-0.6-1.7-0.7-2.6-0.7
		c-5.6,4.4-12.6,6.4-19.7,5.5c-5.9-0.8-13-4-15.8-10.4c0.3-0.9,0.7-1.7,1.1-2.5c1.3-2.6,3.1-5,5.1-7.1c3.2-3.6,7.2-6.9,12.1-8.3
		c6.3-1.8,19.2-1.2,21.2,5.8c0.8,2.9,0.4,5.6-0.8,8.1c0.4,0.9,1.1,1.5,2.7,0.7c1.9-3.5,1.6-6.5,0.9-8.2c-1.6-3.5-4.3-6.6-11.3-7.9
		c-5-0.9-10.2-0.3-15.2,2c-6.5,2.9-12.4,8.3-16.5,14.6c-0.6-2.6-0.7-5.1-0.2-7.8c0.7-4.2,2.5-8,5.5-10.8c1.1-1,2.4-2,3.8-2.7
		c1.8-0.9,4-1.8,6-1.9c2.4-0.2,5.1,0,7.3,1.4c0.6,0.4,0.9,1.2,1.5,1.6c1.3,0.8,3.8-0.1,2.2-1.8c-1.5-1.6-4.2-3-6.4-3.6
		c0.3,0,0.6,0,0.9,0c17.9,0,32.5,14.6,32.5,32.5C227,93.2,212.5,107.8,194.6,107.8"/>
</g>
</svg>
