<?xml version="1.0" encoding="utf-8"?>
<!-- Generator: Adobe Illustrator 13.0.0, SVG Export Plug-In . SVG Version: 6.00 Build 14948)  -->
<!DOCTYPE svg PUBLIC "-//W3C//DTD SVG 1.1//EN" "http://www.w3.org/Graphics/SVG/1.1/DTD/svg11.dtd">
<svg version="1.1" id="Layer_1" xmlns="http://www.w3.org/2000/svg" xmlns:xlink="http://www.w3.org/1999/xlink" x="0px" y="0px"
	 width="390px" height="390px" viewBox="0 0 390 390" enable-background="new 0 0 390 390" xml:space="preserve">
<g>
	<path fill="#171A05" d="M149.7,373.2c-17.5,0-29.9-5.2-36.8-15.3c-7.8-11.5-7.6-27.7,0.6-48.3c5.5-13.8,3.2-30.3,3.1-30.4
		l-2.2-14.8l88.2,24.3l-8.3,10c-0.4,2.1-1.1,7.4-1.7,19.4c-0.2,3.5,0,7.2,0.2,11c0.5,11.2,1.1,23.9-7.9,33.4
		C177.7,369.8,166.6,373.2,149.7,373.2L149.7,373.2z"/>
	<path fill="#F6AA45" d="M126.3,277.7c0,0,2.9,18.9-3.7,35.5c-6.6,16.6-15.4,50.3,27.2,50.3c42.6,0,32-24.3,33.2-46
		c1.1-21.7,2.6-23.5,2.6-23.5L126.3,277.7z"/>
</g>
<g>
	<path fill="#171A05" d="M230.3,373.2c17.5,0,29.9-5.2,36.8-15.3c7.8-11.5,7.6-27.7-0.6-48.3c-5.5-13.8-3.2-30.3-3.1-30.4l2.2-14.8
		l-88.2,24.3l8.3,10c0.4,2.1,1.1,7.4,1.7,19.4c0.2,3.5,0,7.2-0.2,11c-0.5,11.2-1.1,23.9,7.9,33.4
		C202.3,369.8,213.4,373.2,230.3,373.2L230.3,373.2z"/>
	<path fill="#F6AA45" d="M253.7,277.7c0,0-2.9,18.9,3.7,35.5c6.6,16.6,15.4,50.3-27.2,50.3c-42.6,0-32-24.3-33.2-46
		c-1.1-21.7-2.6-23.5-2.6-23.5L253.7,277.7z"/>
</g>
<g>
	<path fill="#171A05" d="M190.1,309.7c-29.3,0-51-8.4-64.5-25c-18.3-22.5-14.6-51.9-13.6-58.2l-1.2-72.1h157.3v72.1
		c1,6.1,4.8,35.7-13.6,58.2C241,301.3,219.3,309.7,190.1,309.7L190.1,309.7z"/>
	<path fill="#F6AA45" d="M121.7,227.4c0,0-14.9,72.6,68.3,72.6c83.2,0,68.3-72.6,68.3-72.6v-63.2H120.7L121.7,227.4z"/>
</g>
<path fill="#1A171B" d="M192.4,186.6c-17.1,0-23-4.4-32.8-13l-1.5-1.3c-2.5-2.2-4.4-4.5-5.8-6.9l-8.6-3c-1.6-0.6-10.5-4.2-24.7-19.1
	c-11.8-12.5-13.4-32.8-13.3-43.5c-7.1-3.1-18-9.6-24.3-21.8c-6.7-12.9-6.5-28.6,0.5-46.5C87,18.5,100.8,10,117.1,10
	c3.8,0,7.6,0.5,11.2,1.4c8.2,2.1,16.4,7.1,24.6,14.9c6.7-3.7,20.5-9.6,40.1-9.6c16.3,0,26.2,3.6,32,7.1c7.3-5.4,20.5-13.4,35.4-13.4
	c12.3,0,23.4,5.5,32.3,15.8c8.3,9.7,11.9,20.5,10.6,31.9c-1.9,17.2-14.8,31-21.7,37.4c0.4,6.1-0.8,15.5-4.4,30.2
	c-8.4,34.3-39.2,38.7-40.5,38.9l-5.6,0.7c-1.4,2.3-2.9,4.4-4.2,5.9C223.6,175,213.4,186.6,192.4,186.6L192.4,186.6z"/>
<path fill="#F6AA45" d="M235.6,156.2c0,0,26.2-3.4,33.3-32.5c7.1-29,3.1-31.3,3.1-31.3s40.3-30,14.2-60.6c-26.2-30.6-61.2,3-61.2,3
	s-6.6-9.6-32-9.6s-39.6,10.9-39.6,10.9s-1.7,0.7-3.3-0.6c-0.7-0.6-11.2-12.5-23.9-15.8c-14.2-3.7-31.2,1.7-36.4,15.1
	c-18.9,48.5,24.7,59.3,24.7,59.3s-2.7,29.3,10.7,43.5c13.4,14.2,21.3,16.9,21.3,16.9s0.1-12,5.6-10.4c5.4,1.6,2.1,13.7,11.6,21.9
	s13.2,12.2,28.7,12.2c15.6,0,23.7-7.4,28.2-12.4c4.4-5,11.7-21,11.7-21s0.6-2.7,4.4-0.7c3.9,2,2.1,6.3,2.1,6.3L235.6,156.2z"/>
<g>
	<path fill="#FFFFFF" d="M153.6,233.1l14.3-26.3c-2.8,0-4.5,0-5.1,0.1c-0.5,0.1-1,0.1-1.5,0.3c-1.6,0.4-2.8,1.2-3.7,2.6
		c-0.5,0.8-1.1,2.2-1.8,4.3h-1l0.8-8.7H175v0.7l-14.2,26.3c5.1,0,8.5-0.4,10.2-1.3c1.8-0.9,3.1-3.3,4.1-7.4h1l-1,10.1h-21.5V233.1z"
		/>
	<path fill="#FFFFFF" d="M179.5,216.8c1.6-2,3.5-2.9,5.9-2.9c2.4,0,4.4,1,6,3c1.5,2,2.3,4.4,2.3,7.3c0,2.8-0.8,5.2-2.3,7.3
		c-1.5,2-3.5,3-6,3c-2.4,0-4.4-1-5.9-3c-1.6-2-2.3-4.4-2.3-7.3C177.1,221.2,177.9,218.8,179.5,216.8z M182.9,230.4
		c0.4,1.8,1.2,2.7,2.5,2.7c1.2,0,2-0.7,2.3-2.1c0.4-1.4,0.6-3.7,0.6-6.8c0-3.1-0.2-5.4-0.6-6.8c-0.4-1.4-1.1-2.1-2.3-2.1
		c-1.2,0-2.1,0.9-2.5,2.7c-0.3,1.2-0.4,3.3-0.4,6.2C182.5,227.1,182.6,229.2,182.9,230.4z"/>
	<path fill="#FFFFFF" d="M197,216.6c1.5-1.8,3.3-2.7,5.4-2.7c1.2,0,2.3,0.4,3.4,1.1c1.1,0.7,1.9,1.7,2.5,3c0.4,1,0.7,2.2,0.9,3.8
		c0.1,0.7,0.1,1.3,0.1,1.7h-9.4c0.1,1.7,0.3,3.1,0.7,4.4c0.7,2.3,2,3.5,3.8,3.5c0.9,0,1.7-0.3,2.4-0.9c0.5-0.4,1-1,1.7-1.9l0.8,0.6
		c-1.1,2.1-2.4,3.6-3.9,4.5c-1,0.5-2.1,0.8-3.3,0.8c-1.8,0-3.5-0.8-5.1-2.4c-1.6-1.6-2.4-4.2-2.4-7.8
		C194.7,220.9,195.5,218.4,197,216.6z M196.8,206.5c0.5-0.5,1-0.8,1.6-0.8c0.7,0,1.2,0.3,1.7,0.8c0.5,0.5,0.7,1.2,0.7,1.9
		c0,0.8-0.2,1.4-0.7,1.9c-0.5,0.5-1,0.8-1.7,0.8c-0.6,0-1.1-0.3-1.6-0.8c-0.5-0.5-0.7-1.2-0.7-2
		C196.2,207.7,196.4,207.1,196.8,206.5z M204.7,221.9c0-2.5-0.2-4.2-0.5-5.2s-0.9-1.5-1.9-1.5c-1,0-1.6,0.6-2,1.7
		c-0.4,1.1-0.6,2.8-0.6,5H204.7z M207.8,210.4c-0.5,0.5-1,0.8-1.6,0.8c-0.7,0-1.2-0.3-1.7-0.8c-0.5-0.5-0.7-1.2-0.7-1.9
		c0-0.8,0.2-1.4,0.7-1.9c0.5-0.5,1-0.8,1.7-0.8c0.6,0,1.1,0.3,1.6,0.8c0.5,0.5,0.7,1.2,0.7,2C208.5,209.2,208.3,209.9,207.8,210.4z"
		/>
	<path fill="#FFFFFF" d="M212.6,217.9c1.1-0.9,1.9-1.6,2.5-2.3c1-1.2,1.5-2.2,1.5-3.3c0-0.3-0.1-0.5-0.2-0.7
		c-0.1-0.2-0.3-0.3-0.6-0.3c-0.4,0.1-0.7,0.1-0.8,0.1c-0.8,0-1.4-0.3-2-0.9c-0.5-0.6-0.8-1.4-0.8-2.4c0-1.1,0.3-1.9,0.8-2.6
		s1.3-1,2.2-1c1,0,1.9,0.4,2.6,1.3s1.1,2.1,1.1,3.6c0,2.2-0.7,4.2-2.2,6c-0.9,1.1-2.2,2.2-3.9,3.3L212.6,217.9z"/>
	<path fill="#FFFFFF" d="M220.5,227.4h1c0.4,2,1,3.4,2,4.3s2,1.2,3,1.2c0.9,0,1.6-0.2,2.1-0.7c0.4-0.5,0.7-1.1,0.7-1.9
		c0-0.8-0.2-1.4-0.7-1.9c-0.3-0.3-0.7-0.6-1.3-0.9l-2.7-1.5c-1.4-0.8-2.5-1.7-3.1-2.6c-0.6-0.9-0.9-2.1-0.9-3.4c0-1.6,0.5-3,1.5-4.2
		c1-1.2,2.4-1.8,4.2-1.8c0.8,0,1.6,0.1,2.5,0.4s1.4,0.4,1.6,0.4c0.3,0,0.5-0.1,0.6-0.2c0.1-0.1,0.2-0.3,0.3-0.6h0.8v6.1h-0.9
		c-0.3-1.4-0.9-2.6-1.7-3.4c-0.8-0.9-1.7-1.3-2.8-1.3c-0.8,0-1.4,0.3-1.8,0.8c-0.4,0.5-0.6,1.1-0.6,1.7c0,0.5,0.2,1,0.5,1.5
		c0.3,0.5,1,1,2,1.6l2,1.1c1.2,0.7,2.1,1.4,2.7,2c1,1.1,1.4,2.4,1.4,4.1c0,1.6-0.5,3-1.5,4.4s-2.5,2-4.4,2c-0.5,0-1-0.1-1.5-0.2
		c-0.5-0.1-1.1-0.3-1.8-0.6l-0.6-0.2c-0.2-0.1-0.4-0.2-0.4-0.2c-0.1,0-0.1,0-0.2,0c-0.2,0-0.4,0.1-0.5,0.3c-0.1,0.2-0.3,0.5-0.5,0.9
		h-0.9V227.4z"/>
	<path fill="#FFFFFF" d="M153.6,266.3c1.2-0.1,2-0.4,2.4-0.9c0.4-0.5,0.6-1.5,0.6-3v-18.6c0-1.6-0.2-2.6-0.6-3s-1.2-0.7-2.4-0.8
		v-1.1h11.8c3.1,0,5.5,0.6,7.1,1.7c1.6,1.2,2.4,3.2,2.4,6c0,1.4-0.3,2.7-1,3.9s-1.7,2.2-3.2,2.9c-1.1,0.5-2.2,0.8-3.3,0.9
		c-1.1,0.1-2.8,0.2-4.9,0.2v7.9c0,1.5,0.2,2.6,0.7,3c0.5,0.5,1.3,0.7,2.5,0.8v1.1h-12.2V266.3z M166.9,252.2
		c1.2-0.8,1.7-2.7,1.7-5.5c0-1.9-0.3-3.5-0.8-4.6c-0.6-1.2-1.6-1.8-3.2-1.8c-0.7,0-1.2,0.1-1.6,0.3c-0.3,0.2-0.5,0.6-0.5,1.2v11.3
		C164.7,253.1,166.2,252.8,166.9,252.2z"/>
	<path fill="#FFFFFF" d="M175.2,266.3c0.6-0.2,1.1-0.4,1.4-0.7c0.3-0.3,0.4-0.9,0.4-1.8v-21.5c0-0.9-0.1-1.5-0.4-1.8
		c-0.3-0.3-0.7-0.5-1.4-0.7v-1h6.9v24.9c0,0.9,0.1,1.5,0.4,1.8c0.3,0.3,0.7,0.5,1.4,0.7v1h-8.7V266.3z"/>
	<path fill="#FFFFFF" d="M187.4,258.9c1.6-1.1,4.1-2.2,7.5-3.4v-3.1c0-1.2-0.2-2.2-0.7-2.8c-0.5-0.6-1.3-0.9-2.4-0.9
		c-0.7,0-1.2,0.1-1.6,0.4c-0.4,0.3-0.6,0.6-0.6,1.1c0,0.2,0,0.3,0.1,0.4c0,0.1,0.1,0.2,0.2,0.3l0.2,0.3c0.2,0.2,0.3,0.5,0.4,0.8
		c0.1,0.3,0.2,0.6,0.2,0.9c0,0.8-0.2,1.4-0.7,1.8c-0.5,0.4-1,0.6-1.6,0.6c-0.7,0-1.3-0.2-1.8-0.7c-0.5-0.5-0.7-1.2-0.7-2.1
		c0-1.6,0.7-2.9,2-3.8s3-1.4,4.9-1.4c2.1,0,3.8,0.5,5.2,1.4c1.4,0.9,2.1,2.6,2.1,5.1v10.2c0,0.3,0.1,0.6,0.2,0.8
		c0.1,0.2,0.3,0.3,0.5,0.3c0.1,0,0.3,0,0.4-0.1s0.3-0.2,0.5-0.5l0.6,0.9c-0.7,1-1.5,1.6-2.4,2c-0.5,0.2-1.1,0.4-1.7,0.4
		c-1.1,0-1.9-0.4-2.4-1.1c-0.3-0.4-0.5-1-0.6-1.8c-1,1.2-2.2,2-3.4,2.5c-0.8,0.3-1.5,0.5-2.3,0.5c-1,0-1.9-0.4-2.8-1.1
		c-0.9-0.7-1.3-1.9-1.3-3.4C185,261.5,185.8,260,187.4,258.9z M193.8,264.3c0.3-0.2,0.6-0.6,1-1.2V257c-1,0.3-1.8,0.7-2.6,1.3
		c-1.3,1-1.9,2.3-1.9,3.8c0,0.9,0.2,1.6,0.5,2.1c0.4,0.5,0.8,0.7,1.2,0.7C192.7,264.9,193.3,264.7,193.8,264.3z"/>
	<path fill="#FFFFFF" d="M215.1,248.7c1.1,0.9,1.7,2,1.7,3.3c0,0.7-0.2,1.4-0.7,1.9c-0.4,0.5-1,0.8-1.7,0.8c-0.5,0-0.9-0.1-1.2-0.4
		c-0.7-0.4-1-1.2-1-2.4c0-0.1,0-0.3,0-0.5c0-0.2,0-0.5,0-0.8c0-0.7-0.1-1.2-0.4-1.5c-0.3-0.3-0.7-0.4-1.1-0.4
		c-1.1,0-1.9,0.7-2.4,2.1c-0.5,1.4-0.7,3.1-0.7,4.9c0,2.6,0.5,4.8,1.4,6.6c0.9,1.8,2.1,2.7,3.7,2.7c1,0,1.8-0.2,2.5-0.7
		c0.4-0.3,0.9-0.8,1.5-1.6l0.7,0.7c-1.2,1.9-2.6,3.2-4.2,3.9c-0.8,0.4-1.7,0.6-2.7,0.6c-2.4,0-4.3-1-5.8-2.9s-2.2-4.3-2.2-7.1
		c0-2.9,0.8-5.4,2.4-7.5c1.6-2.1,3.7-3.1,6.3-3.1C212.6,247.4,214,247.8,215.1,248.7z"/>
	<path fill="#FFFFFF" d="M220.2,250.1c1.5-1.8,3.3-2.7,5.4-2.7c1.2,0,2.3,0.4,3.4,1.1c1.1,0.7,1.9,1.7,2.5,3c0.4,1,0.7,2.2,0.9,3.8
		c0.1,0.7,0.1,1.3,0.1,1.7h-9.4c0.1,1.7,0.3,3.1,0.7,4.4c0.7,2.3,2,3.5,3.8,3.5c0.9,0,1.7-0.3,2.4-0.9c0.5-0.4,1-1,1.7-1.9l0.8,0.6
		c-1.1,2.1-2.4,3.6-3.9,4.5c-1,0.5-2.1,0.8-3.3,0.8c-1.8,0-3.5-0.8-5.1-2.4c-1.6-1.6-2.4-4.2-2.4-7.8
		C218,254.4,218.7,251.9,220.2,250.1z M228,255.5c0-2.5-0.2-4.2-0.5-5.2s-0.9-1.5-1.9-1.5c-1,0-1.6,0.6-2,1.7
		c-0.4,1.1-0.6,2.8-0.6,5H228z"/>
</g>
<g>
	<path fill="#4E3415" d="M151.8,231.4l14.3-26.3c-2.8,0-4.5,0-5.1,0.1c-0.5,0.1-1,0.1-1.5,0.3c-1.6,0.4-2.8,1.2-3.7,2.6
		c-0.5,0.8-1.1,2.2-1.8,4.3h-1l0.8-8.7h19.5v0.7L159,230.6c5.1,0,8.5-0.4,10.2-1.3c1.8-0.9,3.1-3.3,4.1-7.4h1l-1,10.1h-21.5V231.4z"
		/>
	<path fill="#4E3415" d="M177.7,215.1c1.6-2,3.5-2.9,5.9-2.9c2.4,0,4.4,1,6,3c1.5,2,2.3,4.4,2.3,7.3c0,2.8-0.8,5.2-2.3,7.3
		c-1.5,2-3.5,3-6,3c-2.4,0-4.4-1-5.9-3c-1.6-2-2.3-4.4-2.3-7.3C175.3,219.5,176.1,217.1,177.7,215.1z M181.1,228.6
		c0.4,1.8,1.2,2.7,2.5,2.7c1.2,0,2-0.7,2.3-2.1c0.4-1.4,0.6-3.7,0.6-6.8c0-3.1-0.2-5.4-0.6-6.8c-0.4-1.4-1.1-2.1-2.3-2.1
		c-1.2,0-2.1,0.9-2.5,2.7c-0.3,1.2-0.4,3.3-0.4,6.2C180.7,225.4,180.8,227.5,181.1,228.6z"/>
	<path fill="#4E3415" d="M195.2,214.9c1.5-1.8,3.3-2.7,5.4-2.7c1.2,0,2.3,0.4,3.4,1.1c1.1,0.7,1.9,1.7,2.5,3c0.4,1,0.7,2.2,0.9,3.8
		c0.1,0.7,0.1,1.3,0.1,1.7h-9.4c0.1,1.7,0.3,3.1,0.7,4.4c0.7,2.3,2,3.5,3.8,3.5c0.9,0,1.7-0.3,2.4-0.9c0.5-0.4,1-1,1.7-1.9l0.8,0.6
		c-1.1,2.1-2.4,3.6-3.9,4.5c-1,0.5-2.1,0.8-3.3,0.8c-1.8,0-3.5-0.8-5.1-2.4c-1.6-1.6-2.4-4.2-2.4-7.8
		C192.9,219.2,193.7,216.7,195.2,214.9z M195,204.8c0.5-0.5,1-0.8,1.6-0.8c0.7,0,1.2,0.3,1.7,0.8c0.5,0.5,0.7,1.2,0.7,1.9
		c0,0.8-0.2,1.4-0.7,1.9c-0.5,0.5-1,0.8-1.7,0.8c-0.6,0-1.1-0.3-1.6-0.8c-0.5-0.5-0.7-1.2-0.7-2C194.4,206,194.6,205.4,195,204.8z
		 M202.9,220.2c0-2.5-0.2-4.2-0.5-5.2s-0.9-1.5-1.9-1.5c-1,0-1.6,0.6-2,1.7c-0.4,1.1-0.6,2.8-0.6,5H202.9z M206,208.7
		c-0.5,0.5-1,0.8-1.6,0.8c-0.7,0-1.2-0.3-1.7-0.8c-0.5-0.5-0.7-1.2-0.7-1.9c0-0.8,0.2-1.4,0.7-1.9c0.5-0.5,1-0.8,1.7-0.8
		c0.6,0,1.1,0.3,1.6,0.8c0.5,0.5,0.7,1.2,0.7,2C206.7,207.5,206.5,208.2,206,208.7z"/>
	<path fill="#4E3415" d="M210.8,216.2c1.1-0.9,1.9-1.6,2.5-2.3c1-1.2,1.5-2.2,1.5-3.3c0-0.3-0.1-0.5-0.2-0.7
		c-0.1-0.2-0.3-0.3-0.6-0.3c-0.4,0.1-0.7,0.1-0.8,0.1c-0.8,0-1.4-0.3-2-0.9c-0.5-0.6-0.8-1.4-0.8-2.4c0-1.1,0.3-1.9,0.8-2.6
		s1.3-1,2.2-1c1,0,1.9,0.4,2.6,1.3s1.1,2.1,1.1,3.6c0,2.2-0.7,4.2-2.2,6c-0.9,1.1-2.2,2.2-3.9,3.3L210.8,216.2z"/>
	<path fill="#4E3415" d="M218.7,225.7h1c0.4,2,1,3.4,2,4.3s2,1.2,3,1.2c0.9,0,1.6-0.2,2.1-0.7c0.4-0.5,0.7-1.1,0.7-1.9
		c0-0.8-0.2-1.4-0.7-1.9c-0.3-0.3-0.7-0.6-1.3-0.9l-2.7-1.5c-1.4-0.8-2.5-1.7-3.1-2.6c-0.6-0.9-0.9-2.1-0.9-3.4c0-1.6,0.5-3,1.5-4.2
		c1-1.2,2.4-1.8,4.2-1.8c0.8,0,1.6,0.1,2.5,0.4s1.4,0.4,1.6,0.4c0.3,0,0.5-0.1,0.6-0.2c0.1-0.1,0.2-0.3,0.3-0.6h0.8v6.1h-0.9
		c-0.3-1.4-0.9-2.6-1.7-3.4c-0.8-0.9-1.7-1.3-2.8-1.3c-0.8,0-1.4,0.3-1.8,0.8c-0.4,0.5-0.6,1.1-0.6,1.7c0,0.5,0.2,1,0.5,1.5
		c0.3,0.5,1,1,2,1.6l2,1.1c1.2,0.7,2.1,1.4,2.7,2c1,1.1,1.4,2.4,1.4,4.1c0,1.6-0.5,3-1.5,4.4s-2.5,2-4.4,2c-0.5,0-1-0.1-1.5-0.2
		c-0.5-0.1-1.1-0.3-1.8-0.6l-0.6-0.2c-0.2-0.1-0.4-0.2-0.4-0.2c-0.1,0-0.1,0-0.2,0c-0.2,0-0.4,0.1-0.5,0.3c-0.1,0.2-0.3,0.5-0.5,0.9
		h-0.9V225.7z"/>
	<path fill="#4E3415" d="M151.8,264.6c1.2-0.1,2-0.4,2.4-0.9c0.4-0.5,0.6-1.5,0.6-3v-18.6c0-1.6-0.2-2.6-0.6-3s-1.2-0.7-2.4-0.8
		v-1.1h11.8c3.1,0,5.5,0.6,7.1,1.7c1.6,1.2,2.4,3.2,2.4,6c0,1.4-0.3,2.7-1,3.9s-1.7,2.2-3.2,2.9c-1.1,0.5-2.2,0.8-3.3,0.9
		c-1.1,0.1-2.8,0.2-4.9,0.2v7.9c0,1.5,0.2,2.6,0.7,3c0.5,0.5,1.3,0.7,2.5,0.8v1.1h-12.2V264.6z M165.1,250.5
		c1.2-0.8,1.7-2.7,1.7-5.5c0-1.9-0.3-3.5-0.8-4.6c-0.6-1.2-1.6-1.8-3.2-1.8c-0.7,0-1.2,0.1-1.6,0.3c-0.3,0.2-0.5,0.6-0.5,1.2v11.3
		C162.9,251.3,164.4,251.1,165.1,250.5z"/>
	<path fill="#4E3415" d="M173.4,264.6c0.6-0.2,1.1-0.4,1.4-0.7c0.3-0.3,0.4-0.9,0.4-1.8v-21.5c0-0.9-0.1-1.5-0.4-1.8
		c-0.3-0.3-0.7-0.5-1.4-0.7v-1h6.9v24.9c0,0.9,0.1,1.5,0.4,1.8c0.3,0.3,0.7,0.5,1.4,0.7v1h-8.7V264.6z"/>
	<path fill="#4E3415" d="M185.6,257.2c1.6-1.1,4.1-2.2,7.5-3.4v-3.1c0-1.2-0.2-2.2-0.7-2.8c-0.5-0.6-1.3-0.9-2.4-0.9
		c-0.7,0-1.2,0.1-1.6,0.4c-0.4,0.3-0.6,0.6-0.6,1.1c0,0.2,0,0.3,0.1,0.4c0,0.1,0.1,0.2,0.2,0.3l0.2,0.3c0.2,0.2,0.3,0.5,0.4,0.8
		c0.1,0.3,0.2,0.6,0.2,0.9c0,0.8-0.2,1.4-0.7,1.8c-0.5,0.4-1,0.6-1.6,0.6c-0.7,0-1.3-0.2-1.8-0.7c-0.5-0.5-0.7-1.2-0.7-2.1
		c0-1.6,0.7-2.9,2-3.8s3-1.4,4.9-1.4c2.1,0,3.8,0.5,5.2,1.4c1.4,0.9,2.1,2.6,2.1,5.1v10.2c0,0.3,0.1,0.6,0.2,0.8
		c0.1,0.2,0.3,0.3,0.5,0.3c0.1,0,0.3,0,0.4-0.1s0.3-0.2,0.5-0.5l0.6,0.9c-0.7,1-1.5,1.6-2.4,2c-0.5,0.2-1.1,0.4-1.7,0.4
		c-1.1,0-1.9-0.4-2.4-1.1c-0.3-0.4-0.5-1-0.6-1.8c-1,1.2-2.2,2-3.4,2.5c-0.8,0.3-1.5,0.5-2.3,0.5c-1,0-1.9-0.4-2.8-1.1
		c-0.9-0.7-1.3-1.9-1.3-3.4C183.2,259.8,184,258.3,185.6,257.2z M192,262.6c0.3-0.2,0.6-0.6,1-1.2v-6.2c-1,0.3-1.8,0.7-2.6,1.3
		c-1.3,1-1.9,2.3-1.9,3.8c0,0.9,0.2,1.6,0.5,2.1c0.4,0.5,0.8,0.7,1.2,0.7C190.9,263.2,191.5,263,192,262.6z"/>
	<path fill="#4E3415" d="M213.3,247c1.1,0.9,1.7,2,1.7,3.3c0,0.7-0.2,1.4-0.7,1.9c-0.4,0.5-1,0.8-1.7,0.8c-0.5,0-0.9-0.1-1.2-0.4
		c-0.7-0.4-1-1.2-1-2.4c0-0.1,0-0.3,0-0.5c0-0.2,0-0.5,0-0.8c0-0.7-0.1-1.2-0.4-1.5c-0.3-0.3-0.7-0.4-1.1-0.4
		c-1.1,0-1.9,0.7-2.4,2.1c-0.5,1.4-0.7,3.1-0.7,4.9c0,2.6,0.5,4.8,1.4,6.6c0.9,1.8,2.1,2.7,3.7,2.7c1,0,1.8-0.2,2.5-0.7
		c0.4-0.3,0.9-0.8,1.5-1.6l0.7,0.7c-1.2,1.9-2.6,3.2-4.2,3.9c-0.8,0.4-1.7,0.6-2.7,0.6c-2.4,0-4.3-1-5.8-2.9s-2.2-4.3-2.2-7.1
		c0-2.9,0.8-5.4,2.4-7.5c1.6-2.1,3.7-3.1,6.3-3.1C210.8,245.7,212.2,246.1,213.3,247z"/>
	<path fill="#4E3415" d="M218.4,248.4c1.5-1.8,3.3-2.7,5.4-2.7c1.2,0,2.3,0.4,3.4,1.1c1.1,0.7,1.9,1.7,2.5,3c0.4,1,0.7,2.2,0.9,3.8
		c0.1,0.7,0.1,1.3,0.1,1.7h-9.4c0.1,1.7,0.3,3.1,0.7,4.4c0.7,2.3,2,3.5,3.8,3.5c0.9,0,1.7-0.3,2.4-0.9c0.5-0.4,1-1,1.7-1.9l0.8,0.6
		c-1.1,2.1-2.4,3.6-3.9,4.5c-1,0.5-2.1,0.8-3.3,0.8c-1.8,0-3.5-0.8-5.1-2.4c-1.6-1.6-2.4-4.2-2.4-7.8
		C216.2,252.7,216.9,250.2,218.4,248.4z M226.2,253.7c0-2.5-0.2-4.2-0.5-5.2s-0.9-1.5-1.9-1.5c-1,0-1.6,0.6-2,1.7
		c-0.4,1.1-0.6,2.8-0.6,5H226.2z"/>
</g>
<linearGradient id="SVGID_1_" gradientUnits="userSpaceOnUse" x1="99.6655" y1="55.2378" x2="139.4355" y2="55.2378">
	<stop  offset="0" style="stop-color:#757345"/>
	<stop  offset="1" style="stop-color:#D39E46"/>
</linearGradient>
<path fill="url(#SVGID_1_)" d="M139.4,45.2c0,0-15.6-18.6-31.5-10.4c-15.9,8.2-4.5,36.9-1.6,38.8s7.6,4,7.6,4l25.5-30.9"/>
<linearGradient id="SVGID_2_" gradientUnits="userSpaceOnUse" x1="264.2949" y1="33.6694" x2="257.9982" y2="69.3813">
	<stop  offset="0" style="stop-color:#757345"/>
	<stop  offset="1" style="stop-color:#D39E46"/>
</linearGradient>
<path fill="url(#SVGID_2_)" d="M244.1,39l28.4,32.9c0,0,13.5-14.7,3.1-30.7S244.1,39,244.1,39z"/>
<g>
	<path fill="#171A05" d="M250.2,38.4c-1.5-1.4-2.8-2.6-4-3.5c-3.1,1.5-5.9,3.3-8.1,4.9c0.9,0.8,2.1,1.9,3.7,3.3
		C244.1,41.5,247.1,39.8,250.2,38.4z"/>
	<path fill="#171A05" d="M104,66.3c-3.1-6.1-2.6-14.6,1.6-25.3c1.4-3.6,6.9-5.4,11.5-5.4c1.6,0,3.2,0.2,4.7,0.6
		c2.2,0.6,6.5,2.4,12.6,7.8c1.5-1.5,2.6-2.6,3.4-3.4c-6.5-6-11.5-8.3-14.8-9.1c-1.9-0.5-3.9-0.7-5.9-0.7c-6.3,0-13.8,2.6-16.1,8.5
		c-4.7,12-5.2,21.9-1.4,29.3c2.1,4,5.2,7,8.3,9.2c0.5-1,1.4-2.4,2.5-4.2C108,71.7,105.5,69.4,104,66.3z"/>
	<path fill="#171A05" d="M134.4,44c0.9,0.8,1.9,1.8,2.9,2.8c0.6,0.6,1.2,1.2,2,1.9c0.6,0.5,1.2,0.9,1.8,1.3c1.5-1.6,2.6-2.8,3.4-3.6
		c-0.7-0.4-1.4-0.9-2.1-1.4c-0.6-0.5-1-0.9-1.6-1.5c-1-1-2-2-2.9-2.9"/>
	<path fill="#171A05" d="M277,39.7c-5-5.8-10.4-8.6-16.6-8.6c-4.8,0-9.8,1.7-14.2,3.8c1.1,1,2.5,2.1,4,3.5c3.3-1.4,6.8-2.5,10.2-2.5
		c4.8,0,8.9,2.2,12.9,6.9c3.7,4.3,5.1,8.2,4.7,12.5c-0.4,3.5-2,7-4.1,10.4c1.4,1.8,2.5,3.2,3.1,4c2.9-4.2,5.2-9,5.8-13.8
		C283.4,50.2,281.5,45,277,39.7z"/>
	<path fill="#171A05" d="M118.7,77.6c-0.6-0.2-4.5-1.4-8.3-4.1c-1.1,1.8-2,3.3-2.5,4.2c4,2.8,7.8,4.1,9.1,4.5c0.6-1,1.6-2.4,2.8-4.3
		L118.7,77.6z"/>
	<path fill="#171A05" d="M268.1,73c1.4,1.9,2.3,3.2,2.8,4c2-2.1,4.1-4.6,6-7.3c-0.7-0.9-1.7-2.2-3.1-4
		C272.1,68.3,270.1,70.8,268.1,73z"/>
	<path fill="#171A05" d="M134.4,44c-2.5,2.6-5.9,6.2-10.4,11.3c-6.1,6.9-10.7,13.7-13.5,18.2c3.8,2.7,7.7,4,8.3,4.1l1.2,0.3
		c1.9-2.8,4.5-6.6,8.1-11.7c5.1-7.1,9.8-12.6,13.1-16.3c-0.6-0.4-1.2-0.8-1.8-1.3"/>
	<path fill="#171A05" d="M257.9,60.2c4.9,5.8,8.1,9.9,10.2,12.8c2-2.2,4-4.7,5.7-7.3c-2.4-3.1-5.9-7.5-10.9-13.6
		c-4.7-5.8-9.2-10.4-12.8-13.7c-3.1,1.4-6,3.1-8.4,4.7C245.7,46.7,251.4,52.5,257.9,60.2z"/>
</g>
<g>
	<ellipse fill="#171A05" cx="162.4" cy="96.7" rx="12" ry="10.9"/>
	<ellipse fill="#171A05" cx="222.8" cy="98.3" rx="12" ry="10.9"/>
	<path fill="#171A05" d="M233,77c0,0-2.9-6.6-10.2-9.3c-7.3-2.7-13.3,1.6-13.1,4.6c0.1,3.1,2.4,5.2,5.9,4.6c3.4-0.6,7.7,0.5,10.4,2
		c2.7,1.5,4.9,2.1,6.1,0.7C233.4,78.2,233,77,233,77z"/>
	<path fill="#171A05" d="M148.7,76.8c0,0,3-6.5,10.3-9.1c7.3-2.6,13.2,1.8,13,4.9c-0.2,3.1-2.5,5.2-5.9,4.5
		c-3.4-0.6-7.7,0.4-10.5,1.9c-2.7,1.5-4.9,2-6.2,0.6C148.2,78.1,148.7,76.8,148.7,76.8z"/>
</g>
<radialGradient id="SVGID_3_" cx="193.0034" cy="131.2739" r="26.2515" gradientUnits="userSpaceOnUse">
	<stop  offset="0" style="stop-color:#FFFFFF"/>
	<stop  offset="1" style="stop-color:#F6AA45"/>
</radialGradient>
<circle fill="url(#SVGID_3_)" cx="193" cy="131.3" r="26.3"/>
<g>
	<ellipse fill="#171A05" cx="193" cy="118" rx="17.8" ry="8.8"/>
	<ellipse fill="#171A05" cx="183.1" cy="119.8" rx="7.9" ry="8.1"/>
	<ellipse fill="#171A05" cx="202.9" cy="118.9" rx="7.9" ry="8.1"/>
</g>
<polyline fill="none" stroke="#171A05" stroke-width="7" stroke-linecap="round" points="193,126.9 193,148.3 193,153.9 "/>
<path fill="none" stroke="#171A05" stroke-width="7" stroke-linecap="round" d="M216.3,145.4c0,0-3,14-11,13.7
	c-8-0.3-10.7-5.3-10.7-5.3"/>
<path fill="none" stroke="#171A05" stroke-width="7" stroke-linecap="round" d="M169.7,145.4c0,0,3,14,11,13.7
	c8-0.3,10.7-5.3,10.7-5.3"/>
<g>
	<defs>
		<path id="SVGID_4_" d="M235.6,156.2c0,0,26.2-3.4,33.3-32.5c7.1-29,3.1-31.3,3.1-31.3s40.3-30,14.2-60.6c-26.2-30.6-61.2,3-61.2,3
			s-6.6-9.6-32-9.6s-39.6,10.9-39.6,10.9s-1.7,0.7-3.3-0.6c-0.7-0.6-11.2-12.5-23.9-15.8c-14.2-3.7-31.2,1.7-36.4,15.1
			c-18.9,48.5,24.7,59.3,24.7,59.3s-2.7,29.3,10.7,43.5c13.4,14.2,21.3,16.9,21.3,16.9s0.1-12,5.6-10.4c5.4,1.6,2.1,13.7,11.6,21.9
			s13.2,12.2,28.7,12.2c15.6,0,23.7-7.4,28.2-12.4c4.4-5,11.7-21,11.7-21s0.6-2.7,4.4-0.7c3.9,2,2.1,6.3,2.1,6.3L235.6,156.2z"/>
	</defs>
	<clipPath id="SVGID_5_">
		<use xlink:href="#SVGID_4_"  overflow="visible"/>
	</clipPath>
	<radialGradient id="SVGID_6_" cx="131.4346" cy="123.855" r="26.2517" gradientUnits="userSpaceOnUse">
		<stop  offset="0" style="stop-color:#FFFFFF"/>
		<stop  offset="1" style="stop-color:#F6AA45"/>
	</radialGradient>
	<circle clip-path="url(#SVGID_5_)" fill="url(#SVGID_6_)" cx="131.4" cy="123.9" r="26.3"/>
	<radialGradient id="SVGID_7_" cx="253.3242" cy="123.855" r="26.2517" gradientUnits="userSpaceOnUse">
		<stop  offset="0" style="stop-color:#FFFFFF"/>
		<stop  offset="1" style="stop-color:#F6AA45"/>
	</radialGradient>
	<circle clip-path="url(#SVGID_5_)" fill="url(#SVGID_7_)" cx="253.3" cy="123.9" r="26.3"/>
</g>
<g>
	<path fill="#F6AA45" d="M139.9,152.3c0,0-46.6-6.6-62.1,30.6s-2,62.9,29.7,62.3s37.7-18.9,41.2-50.5
		C152.2,163.2,139.9,152.3,139.9,152.3z"/>
	<path fill="#171A05" d="M139.9,152.3c0,0-46.6-6.6-62.1,30.6s-2,62.9,29.7,62.3s37.7-18.9,41.2-50.5
		C152.2,163.2,139.9,152.3,139.9,152.3z"/>
	<path fill="#F6AA45" d="M106.6,235.5c-7,0-16.4-1.6-21.5-9.3c-5.8-8.6-5.1-23,1.8-39.6c9.1-21.8,32-25.1,44.9-25.1
		c1.1,0,2.2,0,3.1,0.1c2.4,4,6.3,13.8,4.3,32.1c-1.4,12.5-3.3,25.1-8.3,32.4c-2.9,4.2-8.2,9.1-23.4,9.4
		C107.1,235.5,106.9,235.5,106.6,235.5L106.6,235.5z"/>
	<radialGradient id="SVGID_8_" cx="110.4248" cy="202.4824" r="26.2517" gradientUnits="userSpaceOnUse">
		<stop  offset="0.1104" style="stop-color:#FFFFFF"/>
		<stop  offset="1" style="stop-color:#F6AA45"/>
	</radialGradient>
	<circle fill="url(#SVGID_8_)" cx="110.4" cy="202.5" r="26.3"/>
</g>
<path fill="#F6AA45" d="M250.1,152.3c0,0,46.6-6.6,62.1,30.6c15.4,37.2,2,62.9-29.7,62.3c-31.7-0.6-37.7-18.9-41.2-50.5
	C237.8,163.2,250.1,152.3,250.1,152.3z"/>
<path fill="#171A05" d="M250.1,152.3c0,0,46.6-6.6,62.1,30.6c15.4,37.2,2,62.9-29.7,62.3c-31.7-0.6-37.7-18.9-41.2-50.5
	C237.8,163.2,250.1,152.3,250.1,152.3z"/>
<path fill="#F6AA45" d="M283.4,235.5c7,0,16.4-1.6,21.5-9.3c5.8-8.6,5.1-23-1.8-39.6c-9.1-21.8-32-25.1-44.9-25.1
	c-1.1,0-2.2,0-3.1,0.1c-2.4,4-6.3,13.8-4.3,32.1c1.4,12.5,3.3,25.1,8.3,32.4c2.9,4.2,8.2,9.1,23.4,9.4
	C282.9,235.5,283.1,235.5,283.4,235.5L283.4,235.5z"/>
<radialGradient id="SVGID_9_" cx="315.6543" cy="202.4824" r="26.252" gradientTransform="matrix(-1 0 0 1 595.2305 0)" gradientUnits="userSpaceOnUse">
	<stop  offset="0.1104" style="stop-color:#FFFFFF"/>
	<stop  offset="1" style="stop-color:#F6AA45"/>
</radialGradient>
<circle fill="url(#SVGID_9_)" cx="279.6" cy="202.5" r="26.3"/>
<radialGradient id="SVGID_10_" cx="370.166" cy="335.9971" r="26.252" gradientTransform="matrix(-1 0 0 1 595.2305 0)" gradientUnits="userSpaceOnUse">
	<stop  offset="0.1104" style="stop-color:#FFFFFF"/>
	<stop  offset="1" style="stop-color:#F6AA45"/>
</radialGradient>
<circle fill="url(#SVGID_10_)" cx="225.1" cy="336" r="26.3"/>
<radialGradient id="SVGID_11_" cx="440.2871" cy="335.9971" r="26.252" gradientTransform="matrix(-1 0 0 1 595.2305 0)" gradientUnits="userSpaceOnUse">
	<stop  offset="0.1104" style="stop-color:#FFFFFF"/>
	<stop  offset="1" style="stop-color:#F6AA45"/>
</radialGradient>
<circle fill="url(#SVGID_11_)" cx="154.9" cy="336" r="26.3"/>
<g>
	<path fill="#4E3415" d="M273.9,355.9c1.6-1.6,3.6-2.4,5.8-2.4c2.3,0,4.2,0.8,5.8,2.4c1.6,1.6,2.4,3.6,2.4,5.8
		c0,2.3-0.8,4.2-2.4,5.8c-1.6,1.6-3.6,2.4-5.8,2.4c-2.3,0-4.2-0.8-5.8-2.4c-1.6-1.6-2.4-3.6-2.4-5.8
		C271.4,359.5,272.2,357.5,273.9,355.9z M274.5,366.9c1.4,1.4,3.2,2.2,5.2,2.2c2,0,3.8-0.7,5.2-2.2c1.4-1.4,2.2-3.2,2.2-5.2
		c0-2-0.7-3.8-2.2-5.2c-1.4-1.4-3.2-2.2-5.2-2.2c-2,0-3.8,0.7-5.2,2.2c-1.4,1.4-2.2,3.2-2.2,5.2
		C272.3,363.8,273.1,365.5,274.5,366.9z M276.1,357.8c0.9-1,2-1.5,3.4-1.5c0.4,0,0.7,0,1.1,0.1c0.3,0.1,0.7,0.2,1,0.4l0.4,0.2
		c0.1,0,0.2,0.1,0.2,0.1s0.1,0,0.2,0c0.2,0,0.3-0.1,0.4-0.2c0.1-0.1,0.1-0.3,0.2-0.6h0.5l0.1,4h-0.6c-0.2-1.2-0.7-2.1-1.2-2.7
		c-0.6-0.6-1.3-0.9-2.1-0.9c-0.8,0-1.5,0.4-2.1,1.1c-0.6,0.8-0.8,2-0.8,3.6c0,1.1,0.2,2.1,0.7,3c0.5,0.9,1.3,1.4,2.5,1.4
		c0.8,0,1.6-0.3,2.2-0.8c0.4-0.3,0.7-0.8,1.1-1.4l0.5,0.3c-0.4,0.7-0.8,1.2-1.2,1.6c-0.8,0.7-1.8,1.1-2.9,1.1
		c-1.3,0-2.5-0.5-3.4-1.5c-0.9-1-1.4-2.2-1.4-3.8C274.7,360,275.2,358.7,276.1,357.8z"/>
</g>
</svg>
