<?xml version="1.0" encoding="utf-8"?>
<!-- Generator: Adobe Illustrator 13.0.0, SVG Export Plug-In . SVG Version: 6.00 Build 14948)  -->
<!DOCTYPE svg PUBLIC "-//W3C//DTD SVG 1.1//EN" "http://www.w3.org/Graphics/SVG/1.1/DTD/svg11.dtd">
<svg version="1.1" id="sponsor-logo_qdos" xmlns="http://www.w3.org/2000/svg" xmlns:xlink="http://www.w3.org/1999/xlink" x="0px"
	 y="0px" width="390px" height="150px" viewBox="0 0 390 150" enable-background="new 0 0 390 150" xml:space="preserve">
<path fill="#FFEA53" d="M161.9,55.8c0-1.1,0.1-2.1,0.2-3.2s0.3-2.1,0.5-3.1c0.2-1,0.5-2,0.8-3c0.3-1,0.7-1.9,1-2.9
	c0.4-0.9,0.8-1.8,1.3-2.7c0.5-0.9,1-1.7,1.6-2.6c0.6-0.8,1.2-1.6,1.8-2.4c0.6-0.8,1.3-1.5,2-2.2c0.7-0.7,1.4-1.4,2.2-2
	c0.8-0.6,1.6-1.2,2.4-1.8c0.8-0.6,1.7-1.1,2.6-1.6c0.9-0.5,1.8-0.9,2.7-1.3c0.9-0.4,1.9-0.7,2.9-1c1-0.3,2-0.6,3-0.8
	c1-0.2,2-0.4,3.1-0.5c1-0.1,2.1-0.2,3.2-0.2V13.7c-1.4,0-2.9,0.1-4.3,0.2c-1.4,0.1-2.8,0.4-4.2,0.6c-1.4,0.3-2.7,0.6-4,1
	c-1.3,0.4-2.6,0.9-3.9,1.4c-1.3,0.5-2.5,1.1-3.7,1.8c-1.2,0.6-2.3,1.4-3.5,2.1c-1.1,0.8-2.2,1.6-3.2,2.4c-1,0.9-2,1.8-3,2.7
	s-1.9,1.9-2.7,3s-1.7,2.1-2.4,3.2c-0.8,1.1-1.5,2.3-2.1,3.5c-0.6,1.2-1.2,2.4-1.8,3.7c-0.5,1.3-1,2.5-1.4,3.9c-0.4,1.3-0.8,2.7-1,4
	c-0.3,1.4-0.5,2.8-0.6,4.2c-0.1,1.4-0.2,2.8-0.2,4.3H161.9"/>
<path fill="#FFEA53" d="M162.7,55.8C163,39,176.3,25.7,193,25.4c0.4,0,0.8-0.3,0.8-0.8c0-3.6,0-7.3,0-10.9c0-0.4-0.3-0.8-0.8-0.8
	c-23.5,0.3-42.5,19.3-42.8,42.8c0,0.4,0.3,0.8,0.8,0.8c3.6,0,7.3,0,10.9,0c1,0,1-1.5,0-1.5c-1,0-1,1.5,0,1.5c1,0,1-1.5,0-1.5
	c-3.6,0-7.3,0-10.9,0c0.3,0.3,0.5,0.5,0.8,0.8c0.3-22.7,18.6-41,41.3-41.3c-0.3-0.3-0.5-0.5-0.8-0.8c0,3.6,0,7.3,0,10.9
	c0.3-0.3,0.5-0.5,0.8-0.8c-17.6,0.3-31.6,14.3-31.9,31.9C161.1,56.8,162.7,56.8,162.7,55.8"/>
<path fill="#FFEA53" d="M198.2,24.7c1.1,0,2.1,0.1,3.2,0.2c1,0.1,2.1,0.3,3.1,0.5c1,0.2,2,0.5,3,0.8c1,0.3,1.9,0.7,2.9,1
	c0.9,0.4,1.8,0.8,2.7,1.3c0.9,0.5,1.7,1,2.6,1.6c0.8,0.6,1.6,1.2,2.4,1.8c0.8,0.6,1.5,1.3,2.2,2c0.7,0.7,1.4,1.4,2,2.2
	c0.6,0.8,1.2,1.6,1.8,2.4c0.6,0.8,1.1,1.7,1.6,2.6c0.5,0.9,0.9,1.8,1.3,2.7c0.4,0.9,0.7,1.9,1,2.9c0.3,1,0.6,2,0.8,3
	c0.2,1,0.4,2,0.5,3.1c0.1,1,0.2,2.1,0.2,3.2h10.9c0-1.4-0.1-2.9-0.2-4.3c-0.1-1.4-0.4-2.8-0.6-4.2c-0.3-1.4-0.6-2.7-1-4
	s-0.9-2.6-1.4-3.9c-0.5-1.3-1.1-2.5-1.8-3.7s-1.4-2.3-2.1-3.5c-0.8-1.1-1.6-2.2-2.4-3.2s-1.8-2-2.7-3c-1-1-1.9-1.9-3-2.7
	s-2.1-1.7-3.2-2.4c-1.1-0.8-2.3-1.5-3.5-2.1c-1.2-0.6-2.4-1.2-3.7-1.8c-1.3-0.5-2.5-1-3.9-1.4c-1.3-0.4-2.7-0.8-4-1
	c-1.4-0.3-2.8-0.5-4.2-0.6s-2.8-0.2-4.3-0.2V24.7"/>
<path fill="#FFEA53" d="M198.2,25.4c16.8,0.3,30.1,13.6,30.4,30.4c0,0.4,0.3,0.8,0.8,0.8c3.6,0,7.3,0,10.9,0c0.4,0,0.8-0.3,0.8-0.8
	c-0.3-23.5-19.3-42.5-42.8-42.8c-0.4,0-0.8,0.3-0.8,0.8c0,3.6,0,7.3,0,10.9c0,1,1.5,1,1.5,0c0-1-1.5-1-1.5,0c0.5,0,1,0,1.5,0
	c0-3.6,0-7.3,0-10.9c-0.3,0.3-0.5,0.5-0.8,0.8c22.7,0.3,41,18.6,41.3,41.3c0.3-0.3,0.5-0.5,0.8-0.8c-3.6,0-7.3,0-10.9,0
	c0.3,0.3,0.5,0.5,0.8,0.8c-0.3-17.6-14.3-31.6-31.9-31.9C197.2,23.9,197.2,25.4,198.2,25.4"/>
<path fill="#004F7A" d="M229.3,60.9c0,1.1-0.1,2.1-0.2,3.2c-0.1,1-0.3,2.1-0.5,3.1c-0.2,1-0.5,2-0.8,3c-0.3,1-0.7,1.9-1,2.9
	c-0.4,0.9-0.8,1.8-1.3,2.7c-0.5,0.9-1,1.7-1.6,2.6c-0.6,0.8-1.2,1.6-1.8,2.4c-0.6,0.8-1.3,1.5-2,2.2c-0.7,0.7-1.4,1.4-2.2,2
	c-0.8,0.6-1.6,1.2-2.4,1.8c-0.8,0.6-1.7,1.1-2.6,1.6s-1.8,0.9-2.7,1.3c-0.9,0.4-1.9,0.7-2.9,1c-1,0.3-2,0.6-3,0.8
	c-1,0.2-2,0.4-3.1,0.5c-1,0.1-2.1,0.2-3.2,0.2v10.9c1.4,0,2.9-0.1,4.3-0.2c1.4-0.1,2.8-0.4,4.2-0.6c1.4-0.3,2.7-0.6,4-1
	c1.3-0.4,2.6-0.9,3.9-1.4c1.3-0.5,2.5-1.1,3.7-1.8c1.2-0.6,2.3-1.4,3.5-2.1c1.1-0.8,2.2-1.6,3.2-2.4s2-1.8,3-2.7
	c1-0.9,1.9-1.9,2.7-3c0.9-1,1.7-2.1,2.4-3.2c0.8-1.1,1.5-2.3,2.1-3.5c0.6-1.2,1.2-2.4,1.8-3.7c0.5-1.3,1-2.5,1.4-3.9
	c0.4-1.3,0.8-2.7,1-4c0.3-1.4,0.5-2.8,0.6-4.2c0.1-1.4,0.2-2.8,0.2-4.3H229.3"/>
<path fill="#004F7A" d="M228.5,60.9c-0.3,16.8-13.6,30.1-30.4,30.4c-0.4,0-0.8,0.3-0.8,0.8c0,3.6,0,7.3,0,10.9
	c0,0.4,0.3,0.8,0.8,0.8c23.5-0.3,42.5-19.3,42.8-42.8c0-0.4-0.3-0.8-0.8-0.8c-3.6,0-7.3,0-10.9,0c-1,0-1,1.5,0,1.5s1-1.5,0-1.5
	c0,0.5,0,1,0,1.5c3.6,0,7.3,0,10.9,0c-0.3-0.3-0.5-0.5-0.8-0.8c-0.3,22.7-18.6,41-41.3,41.3c0.3,0.3,0.5,0.5,0.8,0.8
	c0-3.6,0-7.3,0-10.9c-0.3,0.3-0.5,0.5-0.8,0.8c17.6-0.3,31.6-14.3,31.9-31.9C230.1,59.9,228.6,59.9,228.5,60.9"/>
<path fill="#FFEA53" d="M193.3,92c-1.1,0-2.1-0.1-3.2-0.2c-1-0.1-2.1-0.3-3.1-0.5c-1-0.2-2-0.5-3-0.8c-1-0.3-1.9-0.7-2.9-1
	c-0.9-0.4-1.8-0.8-2.7-1.3s-1.7-1-2.6-1.6c-0.8-0.6-1.6-1.2-2.4-1.8c-0.8-0.6-1.5-1.3-2.2-2c-0.7-0.7-1.4-1.4-2-2.2
	c-0.6-0.8-1.2-1.6-1.8-2.4c-0.6-0.8-1.1-1.7-1.6-2.6c-0.5-0.9-0.9-1.8-1.3-2.7c-0.4-0.9-0.7-1.9-1-2.9c-0.3-1-0.6-2-0.8-3
	c-0.2-1-0.4-2-0.5-3.1c-0.1-1-0.2-2.1-0.2-3.2h-10.9c0,1.4,0.1,2.9,0.2,4.3c0.1,1.4,0.4,2.8,0.6,4.2c0.3,1.4,0.6,2.7,1,4
	c0.4,1.3,0.9,2.6,1.4,3.9c0.5,1.3,1.1,2.5,1.8,3.7c0.6,1.2,1.4,2.3,2.1,3.5c0.8,1.1,1.6,2.2,2.4,3.2c0.9,1,1.8,2,2.7,3
	c1,1,1.9,1.9,3,2.7c1,0.9,2.1,1.7,3.2,2.4c1.1,0.8,2.3,1.5,3.5,2.1c1.2,0.6,2.4,1.2,3.7,1.8c1.3,0.5,2.5,1,3.9,1.4
	c1.3,0.4,2.7,0.8,4,1c1.4,0.3,2.8,0.5,4.2,0.6c1.4,0.1,2.8,0.2,4.3,0.2V92"/>
<path fill="#FFEA53" d="M193.3,91.3c-16.8-0.3-30.1-13.6-30.4-30.4c0-0.4-0.3-0.8-0.8-0.8c-3.6,0-7.3,0-10.9,0
	c-0.4,0-0.8,0.3-0.8,0.8c0.3,23.5,19.3,42.5,42.8,42.8c0.4,0,0.8-0.3,0.8-0.8c0-3.6,0-7.3,0-10.9c0-1-1.5-1-1.5,0c0,1,1.5,1,1.5,0
	c-0.5,0-1,0-1.5,0c0,3.6,0,7.3,0,10.9c0.3-0.3,0.5-0.5,0.8-0.8c-22.7-0.3-41-18.6-41.3-41.3c-0.3,0.3-0.5,0.5-0.8,0.8
	c3.6,0,7.3,0,10.9,0c-0.3-0.3-0.5-0.5-0.8-0.8c0.3,17.6,14.3,31.6,31.9,31.9C194.3,92.8,194.3,91.3,193.3,91.3"/>
<polyline fill="#004F7A" points="240.2,95.7 232.6,103.3 208.7,79.5 216.4,71.8 240.2,95.7 "/>
<path fill="#004F7A" d="M239.7,95.2c-2.5,2.5-5.1,5.1-7.6,7.6c0.4,0,0.7,0,1.1,0c-8-8-15.9-15.9-23.9-23.9c0,0.4,0,0.7,0,1.1
	c2.5-2.5,5.1-5.1,7.6-7.6c-0.4,0-0.7,0-1.1,0c8,8,15.9,15.9,23.9,23.9c0.7,0.7,1.8-0.4,1.1-1.1c-8-8-15.9-15.9-23.9-23.9
	c-0.3-0.3-0.8-0.3-1.1,0c-2.5,2.5-5.1,5.1-7.6,7.6c-0.3,0.3-0.3,0.8,0,1.1c8,8,15.9,15.9,23.9,23.9c0.3,0.3,0.8,0.3,1.1,0
	c2.5-2.5,5.1-5.1,7.6-7.6C241.5,95.6,240.4,94.5,239.7,95.2"/>
<g>
	<path fill="#004F7A" d="M174.8,128.9c-0.5,1.5-1.1,2.7-2,3.7l3,2.8l-2.8,3l-3.1-3c-1,0.6-1.8,1-2.5,1.2c-1.2,0.4-2.6,0.6-4.2,0.6
		c-3.4,0-6.2-1-8.4-3c-2.7-2.4-4-6-4-10.8c0-4.8,1.4-8.4,4.1-10.8c2.3-2,5.1-3,8.4-3c3.4,0,6.2,1.1,8.5,3.2c2.6,2.4,4,5.9,4,10.3
		C175.7,125.4,175.4,127.3,174.8,128.9z M164.9,132.4c0.3-0.1,0.7-0.2,1.2-0.4l-2.6-2.5l2.8-2.9l2.7,2.5c0.4-0.9,0.7-1.6,0.9-2.2
		c0.3-1,0.4-2.1,0.4-3.4c0-2.9-0.6-5.2-1.8-6.8c-1.2-1.6-3-2.4-5.3-2.4c-2.2,0-3.9,0.8-5.2,2.3s-1.9,3.8-1.9,6.9
		c0,3.6,0.9,6.1,2.8,7.7c1.2,1,2.6,1.5,4.3,1.5C163.7,132.6,164.3,132.6,164.9,132.4z"/>
	<path fill="#004F7A" d="M189.8,117.5c0.9,0.5,1.6,1.2,2.2,2.1v-9.2h5.1v26.1h-4.9v-2.7c-0.7,1.1-1.5,2-2.5,2.5
		c-0.9,0.5-2.1,0.8-3.4,0.8c-2.3,0-4.2-0.9-5.7-2.7c-1.5-1.8-2.3-4.2-2.3-7c0-3.3,0.8-5.9,2.3-7.8c1.5-1.9,3.5-2.8,6.1-2.8
		C187.9,116.7,188.9,117,189.8,117.5z M191.1,131.3c0.7-1.1,1.1-2.4,1.1-4.1c0-2.4-0.6-4.1-1.8-5.1c-0.7-0.6-1.6-0.9-2.6-0.9
		c-1.5,0-2.6,0.6-3.3,1.7c-0.7,1.1-1,2.5-1,4.2c0,1.8,0.4,3.2,1.1,4.3c0.7,1.1,1.8,1.6,3.2,1.6C189.3,132.9,190.3,132.3,191.1,131.3
		z"/>
	<path fill="#004F7A" d="M218.1,134.2c-1.6,2-4.1,3-7.4,3c-3.3,0-5.8-1-7.4-3s-2.4-4.4-2.4-7.3c0-2.8,0.8-5.2,2.4-7.2
		s4.1-3.1,7.4-3.1c3.3,0,5.8,1,7.4,3.1c1.6,2,2.4,4.5,2.4,7.2C220.5,129.7,219.7,132.2,218.1,134.2z M214,131.4
		c0.8-1.1,1.2-2.5,1.2-4.5c0-1.9-0.4-3.4-1.2-4.5c-0.8-1-1.9-1.6-3.4-1.6c-1.5,0-2.6,0.5-3.4,1.6c-0.8,1-1.2,2.5-1.2,4.5
		c0,1.9,0.4,3.4,1.2,4.5c0.8,1,1.9,1.6,3.4,1.6C212.1,133,213.2,132.4,214,131.4z"/>
	<path fill="#004F7A" d="M228.2,130.4c0.1,0.9,0.3,1.5,0.7,1.9c0.6,0.7,1.8,1,3.5,1c1,0,1.8-0.1,2.4-0.4s0.9-0.7,0.9-1.3
		c0-0.6-0.2-1-0.7-1.3c-0.5-0.3-2.2-0.8-5.3-1.5c-2.2-0.5-3.7-1.2-4.6-2c-0.9-0.8-1.3-2-1.3-3.5c0-1.8,0.7-3.3,2.1-4.6
		c1.4-1.3,3.4-1.9,5.9-1.9c2.4,0,4.4,0.5,5.9,1.4s2.4,2.6,2.6,5h-5.1c-0.1-0.7-0.3-1.2-0.6-1.5c-0.6-0.7-1.5-1-2.8-1
		c-1.1,0-1.9,0.2-2.4,0.5c-0.5,0.3-0.7,0.7-0.7,1.2c0,0.6,0.2,1,0.7,1.3c0.5,0.3,2.3,0.7,5.3,1.4c2,0.5,3.5,1.2,4.5,2.1
		c1,1,1.5,2.2,1.5,3.6c0,1.9-0.7,3.5-2.1,4.7c-1.4,1.2-3.6,1.8-6.6,1.8c-3,0-5.3-0.6-6.7-1.9s-2.2-2.9-2.2-4.9H228.2z"/>
</g>
</svg>
