<?xml version="1.0" encoding="utf-8"?>
<!-- Generator: Adobe Illustrator 13.0.0, SVG Export Plug-In . SVG Version: 6.00 Build 14948)  -->
<!DOCTYPE svg PUBLIC "-//W3C//DTD SVG 1.1//EN" "http://www.w3.org/Graphics/SVG/1.1/DTD/svg11.dtd">
<svg version="1.1" id="sponsor-logo_inspirational-magazine"
	 xmlns="http://www.w3.org/2000/svg" xmlns:xlink="http://www.w3.org/1999/xlink" x="0px" y="0px" width="390px" height="150px"
	 viewBox="0 0 390 150" enable-background="new 0 0 390 150" xml:space="preserve">
<g>
	<g>
		<path fill="#231F20" d="M98.7,92.3h-4.2v-1.2c3.1,0,6-0.2,8.9-0.5l-1.4,5.3c2.6-3.5,5.3-5.3,8.3-5.3c3.1,0,4.8,1.5,4.8,4.3
			c0,0.3,0,0.7-0.1,1c2.4-3.5,5.1-5.3,8.3-5.3c3.1,0,4.9,1.5,4.9,3.9c0,0.8-0.1,1.6-0.3,2.3l-3.6,12.7c-0.1,0.4-0.2,0.8-0.2,1.3
			c0,0.5,0.4,0.9,1,0.9c2,0,3.8-2.2,5.7-6.6l1,0.5c-1.8,5.5-4.5,8.2-8.3,8.2c-2.1,0-3.4-1.2-3.4-3.2c0-0.9,0.2-1.8,0.6-3l3.2-11.1
			c0.3-1,0.4-1.8,0.4-2.2c0-1.1-0.8-1.8-2.2-1.8c-2.9,0-6.9,3.7-8.2,8.5l-3.2,12.1h-4.2l4.2-15.9c0.3-1.1,0.5-1.9,0.5-2.5
			c0-1.3-0.9-2.1-2.4-2.1c-3,0-6.8,3.8-8,8.1l-3.4,12.4h-4.1L98.7,92.3z"/>
		<path fill="#231F20" d="M142,96.4c-2.4,4.3-3.6,9-3.6,11.6c0,2.7,1.3,4.1,3.6,4.1c2.6,0,4.6-1.7,6.3-5c0.5-0.9,1.3-3.2,2.3-6.8
			c0.5-1.9,0.7-3.5,0.7-4.6c0-2.6-1.2-4-3.6-4C145.4,91.8,143.7,93.4,142,96.4 M141.3,113.5c-4.1,0-7.1-3.2-7.1-8.1
			c0-3.4,1.5-6.8,4.4-10c2.9-3.2,6-4.9,8.8-4.9c2.8,0,4.4,1.2,5,3.7l1-3.2h4l-4.4,15.2c-0.6,2-0.9,3.3-0.9,4s0.5,1.2,1,1.2
			c1.7,0,3.8-2.2,5.6-6.7l1.2,0.4c-2,5.5-4.9,8.4-8.2,8.4c-2.4,0-3.4-1.3-3.5-3.9C146.4,112.2,144,113.5,141.3,113.5"/>
		<path fill="#231F20" d="M169.1,101.9c0,1.4,1.1,2.6,3,2.6c2,0,3.3-0.7,4.1-2.3c1.3-2.5,2-5.5,2-7.1c0-2.1-1.2-3.3-3.3-3.3
			C171.6,91.8,169.1,96.3,169.1,101.9 M162,119c0,3,2.5,4.7,7,4.7c6.3,0,10.4-2.9,10.4-6.3c0-2.4-1.3-3.1-4.9-3.3l-2.6-0.2
			c-2.7-0.2-4.8-0.3-6.2-0.7C163.3,114.6,162,116.9,162,119 M165.1,99.2c0-4.5,4.2-8.7,9.3-8.7c3.6,0,5.8,1.4,7.3,4.4
			c1.1-3.3,2.3-5,4.1-5c1.3,0,2.2,0.9,2.2,2c0,1.3-0.8,2.1-1.9,2.1c-1.1,0-1.5-0.9-1.9-0.9c-1,0-1.1,1.9-1.9,4.4
			c-1.8,5.5-4.5,8.2-9.6,8.2c-1.9,0-3.5-0.4-4.9-1.4c-2,0.9-3,2-3,2.9c0,1.3,1.5,1.8,4.5,2l5.9,0.3c4.4,0.3,6.4,2.1,6.4,5.9
			c0,5.4-5.2,9.6-13.3,9.6c-6.1,0-9.9-2.5-9.9-6.2c0-2.7,1.9-4.4,5.9-6.3c-1.9-0.2-3-1.5-3-3.2c0-2.1,1.8-4.3,5.4-6
			C165.7,102.2,165.1,100.9,165.1,99.2"/>
		<path fill="#231F20" d="M193.8,96.4c-2.4,4.3-3.6,9-3.6,11.6c0,2.7,1.3,4.1,3.6,4.1c2.6,0,4.6-1.7,6.3-5c0.5-0.9,1.3-3.2,2.3-6.8
			c0.5-1.9,0.7-3.5,0.7-4.6c0-2.6-1.2-4-3.6-4C197.2,91.8,195.5,93.4,193.8,96.4 M193,113.5c-4.1,0-7.1-3.2-7.1-8.1
			c0-3.4,1.5-6.8,4.4-10c2.9-3.2,6-4.9,8.8-4.9c2.8,0,4.4,1.2,5,3.7l1-3.2h4l-4.4,15.2c-0.6,2-0.9,3.3-0.9,4s0.5,1.2,1,1.2
			c1.7,0,3.8-2.2,5.6-6.7l1.2,0.4c-2,5.5-4.9,8.4-8.2,8.4c-2.4,0-3.4-1.3-3.5-3.9C198.2,112.2,195.8,113.5,193,113.5"/>
		<path fill="#231F20" d="M213.3,111.2c0,1.5-0.5,2.3-1.3,2.3c-0.8,0-1.1-0.3-1.1-1.2c0-0.9,0.6-1.7,1.7-2.8L227.3,95
			c-2.1,0.2-3.9,0.3-5.4,0.3c-1.6,0-2.9-0.3-4.1-0.9l-1.8,3.2l-1.1-0.6l3.7-6.5c3.5,1.3,6.5,2,9.2,2c0.6,0,1.3-0.1,1.8-0.1
			c0.1-1.2,0.6-1.7,1.4-1.7c0.5,0,0.9,0.3,0.9,1c0,0.8-0.9,2.1-2.8,3.8l-13,12.7c4.9,0.5,7.7,2.6,9.5,2.6c1.2,0,1.9-0.5,1.9-1
			c0-1.2-2.6-0.1-2.6-2.4c0-1,0.7-1.7,1.8-1.7c1.3,0,2.3,1.1,2.3,3.2c0,2.7-2.5,4.8-6.3,4.8c-2.4,0-4.1-0.6-5.6-1.1l-4-1.5V111.2z"
			/>
		<path fill="#231F20" d="M241.8,79.4c1.5,0,2.6,1.1,2.6,2.6c0,1.5-1.1,2.7-2.6,2.7c-1.5,0-2.7-1.2-2.7-2.7
			C239.1,80.6,240.3,79.4,241.8,79.4 M238.6,92.3h-4.2v-1.2c3.3,0,6.3-0.2,9-0.5l-5.3,18.8c-0.1,0.2-0.1,0.5-0.1,0.7
			c0,0.7,0.6,1.3,1.4,1.3c1.7,0,4-2.2,5.8-6.5l1.1,0.5c-1.9,5.3-5.5,8.2-8.7,8.2c-2.1,0-3.6-1.3-3.6-3.4c0-0.6,0.2-1.5,0.5-2.8
			L238.6,92.3z"/>
		<path fill="#231F20" d="M249.2,112.9l5.4-20.6h-4.2v-1.2c3.3,0,6.2-0.1,8.9-0.5l-1.4,5.3c2.5-3.6,5.3-5.4,8.5-5.4
			c3.3,0,5.3,1.6,5.3,4.1c0,0.8-0.2,1.7-0.4,2.5l-3.7,12.6c-0.1,0.4-0.2,0.6-0.2,0.8c0,0.6,0.5,1,1.1,1c2,0,3.8-2.2,5.7-6.6l1.1,0.5
			c-2.1,5.5-4.5,8.2-8.3,8.2c-2.4,0-3.7-1.3-3.7-3c0-0.5,0.1-1.4,0.4-2.4l3.4-11.8c0.2-0.9,0.3-1.6,0.3-1.9c0-1.5-0.7-2.2-2.4-2.2
			c-3.1,0-7.1,3.6-8.6,9.3l-3,11.4H249.2z"/>
		<path fill="#231F20" d="M283.7,100.7c5.7,0,8.8-2.5,8.8-6.3c0-1.7-0.9-2.6-2.6-2.6c-2.5,0-4.8,3-6.8,8.8H283.7z M281.7,107.1
			c0,3.3,1.7,5.1,4.8,5.1c2.8,0,5.6-2,7.3-5.6l1.2,0.7c-2,4.1-5.3,6.3-9,6.3c-4.9,0-8.6-3.6-8.6-9.1c0-3,1.1-5.9,3.4-8.6
			c3-3.6,6.5-5.4,10.4-5.4c3.3,0,5.4,1.9,5.4,4.5c0,4.1-4.8,7-13.5,7h-0.5C282.1,104.1,281.7,105.8,281.7,107.1"/>
		<path fill="#231F20" d="M64.3,69.4V60h1.3c1.3,5.6,4.2,8.5,8.3,8.5c4.3,0,7.3-2.7,7.3-6.8c0-2.9-1.7-4.6-5.6-5.7l-3-0.9
			c-5.6-1.6-8.2-4.4-8.2-9.5c0-5.4,3.4-8.9,8.6-8.9c2.6,0,4.6,0.6,6.6,2.3l1.8-1.9h0.7V46h-1.1c-1.3-5.3-4.2-8-8.1-8
			c-3.6,0-6.2,2.3-6.2,5.4c0,2.9,2,3.8,5.5,4.8l3.4,0.9c5.4,1.5,8.1,4.4,8.1,10c0,6.2-3.8,10.7-9.7,10.7c-2.7,0-4.8-0.8-7.1-2.4
			l-1.8,2H64.3z"/>
		<path fill="#231F20" d="M102.3,53.5c5.9,0,8-2,8-7.7c0-5.8-2-7.1-6.8-7.1h-3.9v14.8H102.3z M88.8,69v-1.2h4.6V38.7h-4.6v-1.2h15.6
			c8.4,0,12.6,2.9,12.6,8.7c0,5.8-4.3,8.5-13.2,8.5h-4.2v13.3h4.9V69H88.8z"/>
	</g>
	<polygon fill="#231F20" points="120.2,69 120.2,67.9 124.9,67.9 124.9,38.7 120.2,38.7 120.2,37.5 135.6,37.5 135.6,38.7 131,38.7 
		131,67.9 135.6,67.9 135.6,69 	"/>
	<g>
		<path fill="#231F20" d="M151.9,51.5c5.2,0,7.3-1.7,7.3-6.4c0-5.3-1.7-6.4-6.3-6.4h-3.6v12.8H151.9z M138.7,69v-1.2h4.6V38.7h-4.6
			v-1.2h15.6c7.7,0,11.4,1.9,11.4,7.3c0,4.1-3.1,6.4-9.6,7.4v0.4c6.1,1.1,8.6,3.7,8.6,9.8v2c0,2.7,0.7,3.7,3.3,3.7
			c0.3,0,0.9-0.1,1.4-0.3v1.3c-0.9,0.2-1.8,0.4-2.6,0.4c-6.4,0-8.5-2-8.7-7.3l-0.1-3c-0.2-5.1-1.7-6.5-8.6-6.7v15.2h4.6V69H138.7z"
			/>
	</g>
	<path fill="#231F20" d="M189.2,58.3l-4.5-12.8h-0.5l-4.5,12.8H189.2z M187.7,67.9h4.8l-2.9-8.3h-10.4l-2.8,8.3h4.9V69h-10.1v-1.2
		h3.8l10.9-31.1h1.6l11.2,31.1h3.8V69h-14.8V67.9z"/>
	<g>
		<path fill="#231F20" d="M230.7,47.5h-1.4c-1.2-6.7-3-9-8.1-9c-0.5,0-1,0-1.5,0v29.3h5.1V69h-16.3v-1.2h5.1V38.6H212
			c-5.1,0-6.8,2-8.1,9h-1.4l0.4-10h27.3L230.7,47.5z"/>
	</g>
	<polygon fill="#231F20" points="233.8,69 233.8,67.9 238.4,67.9 238.4,38.7 233.8,38.7 233.8,37.5 249.1,37.5 249.1,38.7 
		244.5,38.7 244.5,67.9 249.1,67.9 249.1,69 	"/>
	<g>
		<path fill="#231F20" d="M267.6,68.6c5.6,0,7.7-3.5,7.7-11.4v-7.8c0-8-2.1-11.4-7.7-11.4c-5.6,0-7.7,3.5-7.7,11.4v7.8
			C259.9,65.2,262.1,68.6,267.6,68.6 M267.7,36.8c8.2,0,14.4,7,14.4,16.5c0,9.5-6.2,16.5-14.4,16.5c-8.3,0-14.5-7-14.5-16.5
			C253.2,43.8,259.4,36.8,267.7,36.8"/>
	</g>
	<polygon fill="#231F20" points="311.7,58.5 311.7,38.7 307.1,38.7 307.1,37.5 317.6,37.5 317.6,38.7 313.1,38.7 313.1,69.6 
		311.3,69.6 291.9,39.4 291.5,39.4 291.5,67.9 296.1,67.9 296.1,69 285.6,69 285.6,67.9 290.2,67.9 290.2,38.7 285.6,38.7 
		285.6,37.5 297.7,37.5 311.3,58.5 	"/>
	<path fill="#231F20" d="M336.5,58.3L332,45.5h-0.5l-4.5,12.8H336.5z M335,67.9h4.8l-2.9-8.3h-10.4l-2.8,8.3h4.9V69h-10.1v-1.2h3.8
		l10.9-31.1h1.6L346,67.9h3.8V69H335V67.9z"/>
	<g>
		<path fill="#231F20" d="M351.2,69v-1.2h4.6V38.7h-4.6v-1.2h15.3v1.2h-4.6v29.2h4.9c6.3,0,8.7-2.6,9.5-9.7h1.2L377.2,69H351.2z"/>
	</g>
	<polygon fill="#231F20" points="58.3,58.6 58.3,38.7 53.7,38.7 53.7,37.5 64.2,37.5 64.2,38.7 59.6,38.7 59.6,69.6 57.9,69.6 
		38.5,39.5 38.1,39.5 38.1,67.9 42.7,67.9 42.7,69.1 32.2,69.1 32.2,67.9 36.8,67.9 36.8,38.7 32.2,38.7 32.2,37.5 44.3,37.5 
		57.8,58.6 	"/>
	<polygon fill="#231F20" points="12.5,69.1 12.5,67.9 17.1,67.9 17.1,38.7 12.5,38.7 12.5,37.5 27.8,37.5 27.8,38.7 23.2,38.7 
		23.2,67.9 27.8,67.9 27.8,69.1 	"/>
</g>
</svg>
