<?xml version="1.0" encoding="utf-8"?>
<!-- Generator: Adobe Illustrator 13.0.0, SVG Export Plug-In . SVG Version: 6.00 Build 14948)  -->
<!DOCTYPE svg PUBLIC "-//W3C//DTD SVG 1.1//EN" "http://www.w3.org/Graphics/SVG/1.1/DTD/svg11.dtd">
<svg version="1.1" id="Duncan_Lawrie" xmlns="http://www.w3.org/2000/svg" xmlns:xlink="http://www.w3.org/1999/xlink" x="0px"
	 y="0px" width="390px" height="150px" viewBox="0 0 390 150" enable-background="new 0 0 390 150" xml:space="preserve">
<path fill="#8B2D4C" d="M40,58.4c-0.1-0.1-0.4-0.2-0.8-0.2v-0.5h9.5c1.5,0,2.9,0.2,4,0.7c1.1,0.4,2.1,1.1,2.8,1.8
	c0.7,0.8,1.3,1.7,1.6,2.7c0.3,1,0.5,2.2,0.5,3.4c0,1.2-0.2,2.3-0.5,3.4c-0.3,1.1-0.9,2-1.6,2.8c-0.7,0.8-1.6,1.4-2.8,1.8
	c-1.1,0.4-2.5,0.7-4,0.7h-9.5v-0.5c0.4,0,0.7-0.1,0.8-0.2c0.1-0.1,0.2-0.4,0.2-0.9V59.3C40.1,58.8,40.1,58.5,40,58.4 M48.2,72.8
	c1.2,0,2.3-0.2,3.1-0.5c0.9-0.3,1.5-0.8,2.1-1.4c0.5-0.6,0.9-1.3,1.2-2c0.2-0.8,0.4-1.6,0.4-2.5c0-0.9-0.1-1.7-0.4-2.5
	c-0.2-0.8-0.6-1.5-1.2-2c-0.5-0.6-1.2-1.1-2.1-1.4s-1.9-0.5-3.1-0.5h-5.6v12.9H48.2z"/>
<path fill="#8B2D4C" d="M78.9,72.3c-0.5,0.7-1.2,1.3-2,1.8c-0.8,0.4-1.8,0.7-2.8,0.9c-1,0.2-2,0.2-3,0.2c-1,0-2-0.1-3-0.2
	c-1-0.2-2-0.5-2.8-0.9c-0.8-0.4-1.5-1-2-1.8c-0.5-0.7-0.8-1.7-0.8-2.8V59.3c0-0.4-0.1-0.7-0.2-0.9c-0.1-0.1-0.3-0.2-0.7-0.2v-0.5
	h4.1v0.5c-0.3,0-0.6,0.1-0.7,0.2c-0.1,0.1-0.2,0.4-0.2,0.9V69c0,1.5,0.6,2.5,1.7,3.1c1.1,0.6,2.6,0.9,4.5,0.9c1.9,0,3.4-0.3,4.5-0.9
	c1.1-0.6,1.7-1.7,1.7-3.1v-9.7c0-0.4-0.1-0.7-0.2-0.9c-0.1-0.1-0.3-0.2-0.7-0.2v-0.5h4.1v0.5c-0.3,0-0.6,0.1-0.7,0.2
	c-0.1,0.1-0.2,0.4-0.2,0.9v10.2C79.7,70.6,79.4,71.5,78.9,72.3"/>
<path fill="#8B2D4C" d="M86,74.5c0.4,0,0.7-0.1,0.8-0.2c0.1-0.1,0.2-0.4,0.2-0.9V59.3c0-0.4-0.1-0.7-0.2-0.9
	c-0.1-0.1-0.4-0.2-0.8-0.2v-0.5h5.7v0.5c-0.4,0-0.7,0-0.8,0.1c-0.1,0.1-0.2,0.2-0.2,0.3c0,0.1,0.1,0.3,0.4,0.7l10.7,12.2V59.3
	c0-0.4-0.1-0.7-0.2-0.9c-0.1-0.1-0.4-0.2-0.8-0.2v-0.5h4.3v0.5c-0.4,0-0.7,0.1-0.8,0.2c-0.1,0.1-0.2,0.4-0.2,0.9v14.2
	c0,0.4,0.1,0.7,0.2,0.9c0.1,0.1,0.4,0.2,0.8,0.2V75h-5.3v-0.5c0.5,0,0.8,0,0.9-0.1s0.2-0.1,0.2-0.3s0-0.2-0.1-0.3
	c-0.1-0.1-0.2-0.2-0.3-0.4L89.2,60.8v12.7c0,0.4,0.1,0.7,0.2,0.9c0.1,0.1,0.4,0.2,0.8,0.2V75H86V74.5"/>
<path fill="#8B2D4C" d="M124.1,62.6c0.1-0.2,0.1-0.3,0.1-0.3v-0.4c0-0.2-0.2-0.4-0.5-0.6c-0.3-0.2-0.8-0.5-1.4-0.7
	c-0.6-0.2-1.2-0.5-1.9-0.6c-0.7-0.2-1.4-0.3-2.1-0.3c-1.1,0-2.1,0.2-3,0.5c-0.9,0.4-1.7,0.8-2.3,1.5c-0.6,0.6-1.1,1.3-1.4,2.1
	c-0.3,0.8-0.5,1.7-0.5,2.6c0,0.9,0.2,1.8,0.5,2.6c0.3,0.8,0.8,1.5,1.4,2c0.6,0.6,1.3,1,2.2,1.3c0.8,0.3,1.8,0.5,2.8,0.5
	c1,0,1.9-0.1,2.7-0.3c0.8-0.2,1.5-0.5,2-0.8c0.6-0.3,1-0.6,1.3-0.9c0.3-0.3,0.4-0.5,0.4-0.7c0-0.3-0.1-0.6-0.2-0.8l0.4-0.2l2.8,3.6
	L127,73c-0.2-0.2-0.4-0.3-0.5-0.3s-0.2-0.1-0.3-0.1c-0.2,0-0.6,0.1-1,0.4c-0.4,0.3-0.9,0.6-1.6,0.9c-0.7,0.3-1.4,0.6-2.3,0.8
	c-0.9,0.2-2,0.4-3.2,0.4c-1.3,0-2.6-0.2-3.8-0.5c-1.2-0.4-2.2-0.9-3-1.7c-0.9-0.7-1.5-1.7-2-2.8c-0.5-1.1-0.7-2.4-0.7-3.8
	s0.3-2.7,0.8-3.8c0.5-1.1,1.2-2,2.1-2.8c0.9-0.8,1.9-1.3,3.1-1.8c1.2-0.4,2.4-0.6,3.8-0.6c1.1,0,2.1,0.1,2.8,0.2
	c0.7,0.1,1.5,0.3,2.3,0.6c0.5,0.2,1,0.4,1.3,0.5c0.3,0.2,0.6,0.2,0.8,0.2c0.2,0,0.4-0.1,0.6-0.4l0.5,0.2l-1.9,4L124.1,62.6"/>
<path fill="#8B2D4C" d="M127.6,74.5c0.4,0,0.7-0.1,0.8-0.3c0.1-0.2,0.3-0.4,0.4-0.7l6.2-14.2c0.1-0.3,0.2-0.5,0.2-0.7
	s-0.1-0.2-0.2-0.4c-0.1-0.1-0.4-0.2-0.8-0.2v-0.4h6.4v0.5c-0.2,0-0.4,0-0.6,0.1c-0.2,0.1-0.3,0.2-0.3,0.4c0,0.1,0,0.3,0.1,0.4
	c0.1,0.1,0.1,0.3,0.2,0.4l6.7,14.3c0.1,0.2,0.2,0.4,0.4,0.5c0.2,0.2,0.4,0.3,0.9,0.3V75h-5v-0.5c0.5,0,0.8,0,0.9-0.1
	c0.2-0.1,0.2-0.2,0.2-0.4c0-0.2,0-0.3-0.1-0.5c-0.1-0.1-0.1-0.3-0.2-0.4l-1.6-3.3h-9.6l-1.3,3c-0.1,0.2-0.2,0.5-0.3,0.7
	c-0.1,0.2-0.2,0.4-0.2,0.5c0,0.2,0.1,0.3,0.2,0.4c0.2,0.1,0.4,0.1,0.8,0.1V75h-4.4V74.5 M133.7,67.7h7.7l-4-8.3L133.7,67.7z"/>
<path fill="#8B2D4C" d="M150.5,74.5c0.4,0,0.7-0.1,0.8-0.2c0.1-0.1,0.2-0.4,0.2-0.9V59.3c0-0.4-0.1-0.7-0.2-0.9
	c-0.1-0.1-0.4-0.2-0.8-0.2v-0.5h5.7v0.5c-0.4,0-0.7,0-0.8,0.1c-0.1,0.1-0.2,0.2-0.2,0.3c0,0.1,0.1,0.3,0.4,0.7l10.7,12.2V59.3
	c0-0.4-0.1-0.7-0.2-0.9c-0.1-0.1-0.4-0.2-0.8-0.2v-0.5h4.3v0.5c-0.4,0-0.7,0.1-0.8,0.2c-0.1,0.1-0.2,0.4-0.2,0.9v14.2
	c0,0.4,0.1,0.7,0.2,0.9c0.1,0.1,0.4,0.2,0.8,0.2V75h-5.3v-0.5c0.5,0,0.8,0,0.9-0.1s0.2-0.1,0.2-0.3s0-0.2-0.1-0.3
	c-0.1-0.1-0.2-0.2-0.3-0.4l-11.1-12.7v12.7c0,0.4,0.1,0.7,0.2,0.9c0.1,0.1,0.4,0.2,0.8,0.2V75h-4.3V74.5"/>
<path fill="#8B2D4C" d="M238.2,75.8c0-0.3-0.1-0.5-0.2-0.6c-0.1-0.1-0.4-0.2-0.8-0.2h-15.8v-0.5c0.4,0,0.7-0.1,0.8-0.2
	c0.1-0.1,0.2-0.4,0.2-0.9V59.3c0-0.4-0.1-0.7-0.2-0.9c-0.1-0.1-0.4-0.2-0.8-0.2v-0.5h4.4v0.5c-0.4,0-0.7,0.1-0.8,0.2
	c-0.1,0.1-0.2,0.4-0.2,0.9v13.5h12.3c0.4,0,0.7-0.1,0.8-0.3c0.1-0.2,0.2-0.5,0.2-0.9h0.5v4.1H238.2"/>
<path fill="#8B2D4C" d="M240.3,74.5c0.4,0,0.7-0.1,0.8-0.3c0.1-0.2,0.3-0.4,0.4-0.7l6.2-14.2c0.1-0.3,0.2-0.5,0.2-0.7
	s-0.1-0.2-0.2-0.4c-0.1-0.1-0.4-0.2-0.8-0.2v-0.4h6.4v0.5c-0.2,0-0.4,0-0.6,0.1c-0.2,0.1-0.3,0.2-0.3,0.4c0,0.1,0,0.3,0.1,0.4
	c0.1,0.1,0.1,0.3,0.2,0.4l6.7,14.3c0.1,0.2,0.2,0.4,0.4,0.5c0.2,0.2,0.4,0.3,0.9,0.3V75h-5v-0.5c0.5,0,0.8,0,0.9-0.1
	c0.2-0.1,0.2-0.2,0.2-0.4c0-0.2,0-0.3-0.1-0.5c-0.1-0.1-0.1-0.3-0.2-0.4l-1.6-3.3h-9.6l-1.3,3c-0.1,0.2-0.2,0.5-0.3,0.7
	c-0.1,0.2-0.2,0.4-0.2,0.5c0,0.2,0.1,0.3,0.2,0.4c0.2,0.1,0.4,0.1,0.8,0.1V75h-4.4V74.5 M246.4,67.7h7.7l-4-8.3L246.4,67.7z"/>
<path fill="#8B2D4C" d="M268.6,74.5c0.4,0,0.6,0,0.7-0.1c0.1-0.1,0.2-0.2,0.2-0.4c0-0.1-0.1-0.3-0.2-0.5c-0.1-0.2-0.2-0.4-0.2-0.6
	l-5.5-13.8c-0.2-0.4-0.3-0.7-0.5-0.8c-0.2-0.1-0.4-0.2-0.7-0.2v-0.5h4.5v0.5c-0.7,0-1.1,0.1-1.1,0.4c0,0.1,0,0.3,0.1,0.4
	c0.1,0.1,0.1,0.3,0.2,0.5l4.8,11.8h0.1l4.3-11.8c0.1-0.2,0.1-0.3,0.2-0.4c0.1-0.1,0.1-0.3,0.1-0.4c0-0.3-0.3-0.4-0.8-0.4v-0.5h4.7
	v0.5c-0.6,0-0.8,0.1-0.8,0.3c0,0.1,0,0.3,0.1,0.4c0.1,0.1,0.1,0.3,0.2,0.5l4.4,11.9h0.1l4-11.6c0.1-0.2,0.1-0.4,0.2-0.5
	c0.1-0.1,0.1-0.3,0.1-0.5c0-0.3-0.3-0.5-1-0.5v-0.5h4.5v0.5c-0.4,0-0.6,0-0.8,0.1c-0.2,0.1-0.3,0.3-0.4,0.6l-5,14.1
	c-0.1,0.2-0.1,0.3-0.2,0.5c-0.1,0.2-0.1,0.4-0.1,0.5c0,0.3,0.3,0.5,0.8,0.5V75h-4.2v-0.5c0.4,0,0.6,0,0.7-0.1
	c0.1-0.1,0.1-0.2,0.1-0.3c0-0.1,0-0.3-0.1-0.5c-0.1-0.2-0.2-0.5-0.3-0.7l-4.7-12h-0.1l-4.2,12c-0.1,0.2-0.1,0.4-0.2,0.6
	c-0.1,0.2-0.1,0.4-0.1,0.6c0,0.2,0.1,0.4,0.3,0.4s0.4,0.1,0.6,0V75h-4.6V74.5"/>
<path fill="#8B2D4C" d="M299.3,74.3c0.1,0.1,0.4,0.2,0.8,0.2V75h-4.4v-0.5c0.4,0,0.7-0.1,0.8-0.2s0.2-0.4,0.2-0.9V59.3
	c0-0.4-0.1-0.7-0.2-0.9c-0.1-0.1-0.4-0.2-0.8-0.2v-0.5h12c1.7,0,3,0.4,3.8,1.3c0.8,0.9,1.2,2,1.2,3.5c0,1.5-0.4,2.7-1.2,3.4
	c-0.8,0.8-2,1.2-3.5,1.2l4.3,6.6c0.2,0.3,0.3,0.5,0.5,0.6c0.1,0.1,0.3,0.1,0.5,0.1V75H309v-0.5c0.3,0,0.5,0,0.5-0.1
	c0.1,0,0.1-0.1,0.1-0.3s0-0.3-0.1-0.4c-0.1-0.1-0.2-0.3-0.3-0.6l-3.9-6.1h-6.2v6.2C299.1,73.9,299.2,74.2,299.3,74.3 M307.5,65
	c0.9,0,1.6-0.2,2-0.6c0.4-0.4,0.6-1.1,0.6-1.9c0-0.9-0.2-1.6-0.6-2.1s-1.2-0.6-2.4-0.6h-8V65H307.5z"/>
<path fill="#8B2D4C" d="M320.4,74.5c0.4,0,0.7-0.1,0.8-0.2c0.1-0.1,0.2-0.4,0.2-0.9V59.3c0-0.4-0.1-0.7-0.2-0.9
	c-0.1-0.1-0.4-0.2-0.8-0.2v-0.5h4.4v0.5c-0.4,0-0.7,0.1-0.8,0.2c-0.1,0.1-0.2,0.4-0.2,0.9v14.2c0,0.4,0.1,0.7,0.2,0.9
	c0.1,0.1,0.4,0.2,0.8,0.2V75h-4.4V74.5"/>
<path fill="#8B2D4C" d="M333.6,58.4c-0.1-0.1-0.4-0.2-0.7-0.2v-0.5h15.8c0.4,0,0.7-0.1,0.8-0.2c0.1-0.1,0.2-0.4,0.2-0.7h0.5v4.1
	h-0.5c0-0.3-0.1-0.6-0.2-0.7s-0.4-0.2-0.8-0.2h-12.3V65h8.7c0.4,0,0.7-0.1,0.8-0.2c0.1-0.1,0.2-0.4,0.2-0.7h0.5v4.1H346
	c0-0.3-0.1-0.6-0.2-0.7c-0.1-0.1-0.4-0.2-0.8-0.2h-8.7v5.6h12.8c0.4,0,0.7-0.1,0.8-0.2c0.1-0.1,0.2-0.4,0.2-0.7h0.5v4h-0.5
	c0-0.3-0.1-0.6-0.2-0.7c-0.1-0.1-0.4-0.2-0.8-0.2h-16.3v-0.5c0.4,0,0.6-0.1,0.7-0.2c0.1-0.1,0.2-0.4,0.2-0.9V59.3
	C333.7,58.8,333.7,58.5,333.6,58.4"/>
<path fill="#8B2D4C" d="M40.3,92.4c-0.1-0.1-0.2-0.1-0.5-0.1V92H46c2.3,0,3.5,0.9,3.5,2.8c0,0.4-0.1,0.8-0.3,1.2
	c-0.2,0.4-0.4,0.7-0.7,0.9c-0.3,0.3-0.6,0.5-1,0.6c-0.4,0.1-0.8,0.2-1.2,0.2h-4.4v3.5c0,0.3,0,0.4,0.1,0.5c0.1,0.1,0.2,0.1,0.5,0.1
	v0.3h-2.6v-0.3c0.2,0,0.4,0,0.5-0.1c0.1-0.1,0.1-0.3,0.1-0.5v-8.3C40.4,92.7,40.3,92.5,40.3,92.4 M46.1,96.4c0.6,0,1.1-0.1,1.4-0.4
	c0.3-0.3,0.5-0.7,0.5-1.2c0-0.6-0.2-1-0.5-1.2c-0.4-0.3-0.9-0.4-1.7-0.4h-3.9v3.2H46.1z"/>
<path fill="#8B2D4C" d="M64,101.8c0.1,0.1,0.2,0.1,0.5,0.1v0.3h-2.6v-0.3c0.2,0,0.4,0,0.5-0.1c0.1-0.1,0.1-0.3,0.1-0.5v-8.3
	c0-0.3,0-0.4-0.1-0.5c-0.1-0.1-0.2-0.1-0.5-0.1V92H69c1,0,1.8,0.3,2.2,0.8c0.5,0.5,0.7,1.2,0.7,2.1c0,0.9-0.2,1.6-0.7,2
	c-0.5,0.5-1.2,0.7-2.1,0.7l2.5,3.9c0.1,0.2,0.2,0.3,0.3,0.3c0.1,0.1,0.2,0.1,0.3,0.1v0.3h-2.5v-0.3c0.2,0,0.3,0,0.3,0
	c0,0,0.1-0.1,0.1-0.2c0-0.1,0-0.2-0.1-0.2c0-0.1-0.1-0.2-0.2-0.3l-2.3-3.6h-3.7v3.7C63.9,101.5,64,101.7,64,101.8 M68.8,96.3
	c0.6,0,0.9-0.1,1.2-0.4c0.2-0.2,0.3-0.6,0.3-1.1c0-0.6-0.1-1-0.4-1.2c-0.2-0.3-0.7-0.4-1.4-0.4h-4.7v3.1H68.8z"/>
<path fill="#8B2D4C" d="M85.7,101.9c0.2,0,0.4,0,0.5-0.1c0.1-0.1,0.1-0.3,0.1-0.5v-8.3c0-0.3,0-0.4-0.1-0.5
	c-0.1-0.1-0.2-0.1-0.5-0.1V92h2.6v0.3c-0.2,0-0.4,0-0.5,0.1c-0.1,0.1-0.1,0.3-0.1,0.5v8.3c0,0.3,0,0.4,0.1,0.5
	c0.1,0.1,0.2,0.1,0.5,0.1v0.3h-2.6V101.9"/>
<path fill="#8B2D4C" d="M103.2,92v0.3c-0.1,0-0.3,0-0.4,0.1c-0.1,0.1-0.2,0.2-0.2,0.3c0,0.1,0,0.2,0.1,0.3c0.1,0.1,0.1,0.2,0.2,0.3
	l3.3,7l3-7.2c0-0.1,0.1-0.2,0.1-0.3c0-0.1,0-0.2,0-0.2c0-0.2-0.2-0.3-0.5-0.3V92h2.4v0.3c-0.2,0-0.4,0.1-0.5,0.4l-3.5,8.4
	c0,0.1-0.1,0.2-0.1,0.3s-0.1,0.2-0.1,0.3c0,0.2,0.2,0.3,0.5,0.3v0.3h-2.7v-0.3c0.3,0,0.4-0.1,0.4-0.2c0-0.1,0-0.2-0.1-0.4
	s-0.1-0.3-0.3-0.6l-3.7-8c-0.1-0.2-0.2-0.3-0.3-0.3c-0.1-0.1-0.2-0.1-0.4-0.1V92H103.2"/>
<path fill="#8B2D4C" d="M121.3,101.9c0.2,0,0.4-0.1,0.5-0.2c0.1-0.1,0.2-0.2,0.2-0.4l3.7-8.4c0.1-0.2,0.1-0.3,0.1-0.4
	c0-0.1,0-0.1-0.1-0.2c-0.1-0.1-0.2-0.1-0.5-0.1V92h3.7v0.3c-0.1,0-0.2,0-0.4,0.1c-0.1,0-0.2,0.1-0.2,0.2c0,0.1,0,0.2,0.1,0.2
	c0,0.1,0.1,0.2,0.1,0.2l4,8.4c0,0.1,0.1,0.2,0.2,0.3c0.1,0.1,0.3,0.2,0.5,0.2v0.3h-2.9v-0.3c0.3,0,0.5,0,0.6-0.1
	c0.1,0,0.1-0.1,0.1-0.2c0-0.1,0-0.2,0-0.3c0-0.1-0.1-0.2-0.1-0.2l-0.9-1.9h-5.6l-0.8,1.8c-0.1,0.1-0.1,0.3-0.2,0.4
	c-0.1,0.1-0.1,0.2-0.1,0.3c0,0.1,0,0.2,0.1,0.2c0.1,0,0.3,0.1,0.5,0.1v0.3h-2.6V101.9 M124.9,97.9h4.5l-2.3-4.9L124.9,97.9z"/>
<path fill="#8B2D4C" d="M153.7,93.8c0-0.2,0-0.3-0.1-0.4c-0.1-0.1-0.2-0.1-0.5-0.1h-3.6v8c0,0.3,0,0.4,0.1,0.5
	c0.1,0.1,0.2,0.1,0.5,0.1v0.3h-2.7v-0.3c0.2,0,0.4,0,0.5-0.1c0.1-0.1,0.1-0.3,0.1-0.5v-8h-3.6c-0.2,0-0.4,0-0.5,0.1
	c-0.1,0.1-0.1,0.2-0.1,0.4h-0.3v-2.4h0.3c0,0.2,0,0.3,0.1,0.4c0.1,0.1,0.2,0.1,0.5,0.1h8.7c0.2,0,0.4,0,0.5-0.1
	c0.1-0.1,0.1-0.2,0.1-0.4h0.3v2.4H153.7"/>
<path fill="#8B2D4C" d="M166.5,92.4c-0.1-0.1-0.2-0.1-0.4-0.1V92h9.3c0.2,0,0.4,0,0.5-0.1c0.1-0.1,0.1-0.2,0.1-0.4h0.3v2.4h-0.3
	c0-0.2,0-0.3-0.1-0.4c-0.1-0.1-0.2-0.1-0.5-0.1h-7.3v3h5.1c0.2,0,0.4,0,0.5-0.1c0.1-0.1,0.1-0.2,0.1-0.4h0.3v2.4h-0.3
	c0-0.2,0-0.3-0.1-0.4c-0.1-0.1-0.2-0.1-0.5-0.1h-5.1v3.3h7.5c0.2,0,0.4,0,0.5-0.1c0.1-0.1,0.1-0.2,0.1-0.4h0.3v2.3h-0.3
	c0-0.2,0-0.3-0.1-0.4c-0.1-0.1-0.2-0.1-0.5-0.1H166v-0.3c0.2,0,0.4,0,0.4-0.1c0.1-0.1,0.1-0.3,0.1-0.5v-8.3
	C166.6,92.7,166.5,92.5,166.5,92.4"/>
<path fill="#8B2D4C" d="M206,92.4c-0.1-0.1-0.2-0.1-0.5-0.1V92h6.4c1.3,0,2.2,0.2,2.8,0.7c0.5,0.5,0.8,1.2,0.8,2.1
	c0,0.2,0,0.4-0.1,0.6c-0.1,0.2-0.1,0.4-0.3,0.6c-0.1,0.2-0.3,0.3-0.5,0.5c-0.2,0.1-0.5,0.2-0.8,0.2v0c0.6,0.1,1.1,0.4,1.4,0.8
	c0.4,0.4,0.5,1,0.5,1.7c0,1-0.3,1.8-0.9,2.2s-1.6,0.7-3,0.7h-6.4v-0.3c0.2,0,0.4,0,0.5-0.1c0.1-0.1,0.1-0.3,0.1-0.5v-8.3
	C206.1,92.7,206,92.5,206,92.4 M211.9,96.2c0.4,0,0.8,0,1.1-0.1c0.3-0.1,0.5-0.2,0.6-0.3c0.2-0.1,0.3-0.3,0.3-0.5
	c0-0.2,0.1-0.4,0.1-0.6c0-0.5-0.2-0.8-0.5-1.1c-0.3-0.3-0.8-0.4-1.6-0.4h-4.3v3H211.9z M212.1,100.9c0.4,0,0.8,0,1.1-0.1
	c0.3-0.1,0.5-0.2,0.6-0.3c0.1-0.1,0.2-0.3,0.3-0.5c0.1-0.2,0.1-0.5,0.1-0.8c0-0.6-0.2-1-0.5-1.3c-0.3-0.3-0.9-0.4-1.7-0.4h-4.4v3.4
	H212.1z"/>
<path fill="#8B2D4C" d="M227.4,101.9c0.2,0,0.4-0.1,0.5-0.2s0.2-0.2,0.2-0.4l3.7-8.4c0.1-0.2,0.1-0.3,0.1-0.4c0-0.1,0-0.1-0.1-0.2
	c-0.1-0.1-0.2-0.1-0.5-0.1V92h3.7v0.3c-0.1,0-0.2,0-0.4,0.1c-0.1,0-0.2,0.1-0.2,0.2c0,0.1,0,0.2,0.1,0.2c0,0.1,0.1,0.2,0.1,0.2
	l4,8.4c0,0.1,0.1,0.2,0.2,0.3c0.1,0.1,0.3,0.2,0.5,0.2v0.3h-2.9v-0.3c0.3,0,0.5,0,0.6-0.1c0.1,0,0.1-0.1,0.1-0.2c0-0.1,0-0.2,0-0.3
	c0-0.1-0.1-0.2-0.1-0.2l-0.9-1.9h-5.6l-0.8,1.8c-0.1,0.1-0.1,0.3-0.2,0.4c-0.1,0.1-0.1,0.2-0.1,0.3c0,0.1,0,0.2,0.1,0.2
	c0.1,0,0.3,0.1,0.5,0.1v0.3h-2.6V101.9 M231,97.9h4.5l-2.3-4.9L231,97.9z"/>
<path fill="#8B2D4C" d="M251.2,101.9c0.2,0,0.4,0,0.5-0.1c0.1-0.1,0.1-0.3,0.1-0.5v-8.3c0-0.3,0-0.4-0.1-0.5
	c-0.1-0.1-0.3-0.1-0.5-0.1V92h3.4v0.3c-0.2,0-0.4,0-0.5,0.1c-0.1,0-0.1,0.1-0.1,0.2c0,0,0.1,0.2,0.3,0.4l6.3,7.2v-7.2
	c0-0.3,0-0.4-0.1-0.5c-0.1-0.1-0.3-0.1-0.5-0.1V92h2.5v0.3c-0.2,0-0.4,0-0.5,0.1c-0.1,0.1-0.1,0.3-0.1,0.5v8.3c0,0.3,0,0.4,0.1,0.5
	c0.1,0.1,0.2,0.1,0.5,0.1v0.3h-3.1v-0.3c0.3,0,0.5,0,0.6,0c0.1,0,0.1-0.1,0.1-0.2c0-0.1,0-0.1-0.1-0.2c-0.1-0.1-0.1-0.1-0.2-0.2
	l-6.5-7.5v7.5c0,0.3,0,0.4,0.1,0.5c0.1,0.1,0.2,0.1,0.5,0.1v0.3h-2.5V101.9"/>
<path fill="#8B2D4C" d="M278.1,101.8c0.1,0.1,0.2,0.1,0.5,0.1v0.3H276v-0.3c0.2,0,0.4,0,0.5-0.1c0.1-0.1,0.1-0.3,0.1-0.5v-8.3
	c0-0.3,0-0.4-0.1-0.5c-0.1-0.1-0.2-0.1-0.5-0.1V92h2.6v0.3c-0.2,0-0.4,0-0.5,0.1c-0.1,0.1-0.1,0.3-0.1,0.5v3.5l4.8-3.6
	c0.1,0,0.2-0.1,0.2-0.2c0.1-0.1,0.1-0.1,0.1-0.2c0-0.2-0.2-0.2-0.6-0.2V92h3.5v0.3c-0.3,0-0.6,0.1-0.8,0.3l-3.9,2.9l4.3,5.9
	c0.1,0.2,0.2,0.3,0.4,0.4s0.3,0.1,0.5,0.1v0.3h-2.9v-0.3c0.3,0,0.4,0,0.5,0c0.1,0,0.1-0.1,0.1-0.1c0-0.1-0.1-0.3-0.3-0.5l-3.6-4.9
	l-2.3,1.8v3.2C278,101.5,278,101.7,278.1,101.8"/>
<path fill="#8B2D4C" d="M298.5,101.9c0.2,0,0.4,0,0.5-0.1c0.1-0.1,0.1-0.3,0.1-0.5v-8.3c0-0.3,0-0.4-0.1-0.5
	c-0.1-0.1-0.2-0.1-0.5-0.1V92h2.6v0.3c-0.2,0-0.4,0-0.5,0.1c-0.1,0.1-0.1,0.3-0.1,0.5v8.3c0,0.3,0,0.4,0.1,0.5
	c0.1,0.1,0.2,0.1,0.5,0.1v0.3h-2.6V101.9"/>
<path fill="#8B2D4C" d="M315,101.9c0.2,0,0.4,0,0.5-0.1c0.1-0.1,0.1-0.3,0.1-0.5v-8.3c0-0.3,0-0.4-0.1-0.5c-0.1-0.1-0.3-0.1-0.5-0.1
	V92h3.4v0.3c-0.2,0-0.4,0-0.5,0.1c-0.1,0-0.1,0.1-0.1,0.2c0,0,0.1,0.2,0.3,0.4l6.3,7.2v-7.2c0-0.3,0-0.4-0.1-0.5
	c-0.1-0.1-0.3-0.1-0.5-0.1V92h2.5v0.3c-0.2,0-0.4,0-0.5,0.1c-0.1,0.1-0.1,0.3-0.1,0.5v8.3c0,0.3,0,0.4,0.1,0.5
	c0.1,0.1,0.2,0.1,0.5,0.1v0.3h-3.1v-0.3c0.3,0,0.5,0,0.6,0c0.1,0,0.1-0.1,0.1-0.2c0-0.1,0-0.1-0.1-0.2c-0.1-0.1-0.1-0.1-0.2-0.2
	l-6.5-7.5v7.5c0,0.3,0,0.4,0.1,0.5c0.1,0.1,0.2,0.1,0.5,0.1v0.3H315V101.9"/>
<path fill="#8B2D4C" d="M348.7,95c0-0.1,0-0.2,0-0.3c0-0.1-0.1-0.2-0.3-0.4c-0.2-0.2-0.4-0.4-0.8-0.5c-0.3-0.2-0.8-0.3-1.3-0.5
	c-0.5-0.1-1.1-0.2-1.8-0.2c-0.6,0-1.2,0.1-1.7,0.3c-0.5,0.2-1,0.5-1.4,0.9c-0.4,0.4-0.7,0.8-0.9,1.3c-0.2,0.5-0.3,1.1-0.3,1.7
	c0,0.5,0.1,1,0.3,1.4c0.2,0.5,0.5,0.9,0.9,1.2c0.4,0.3,0.9,0.6,1.4,0.8c0.6,0.2,1.3,0.3,2,0.3c0.2,0,0.5,0,0.8-0.1
	c0.3,0,0.6-0.1,0.9-0.2c0.3-0.1,0.6-0.2,0.9-0.3c0.3-0.1,0.5-0.2,0.7-0.4v-1.4h-2.1c-0.2,0-0.4,0-0.5,0.1c-0.1,0.1-0.1,0.2-0.1,0.4
	h-0.3v-2.2h0.3c0,0.1,0,0.2,0.1,0.3c0.1,0.1,0.2,0.1,0.5,0.1h4v0.3c-0.1,0-0.2,0.1-0.3,0.1s-0.1,0.2-0.1,0.3v1.6
	c0,0.2,0.1,0.3,0.3,0.4v0.2c-0.4,0.4-0.8,0.7-1.2,0.9c-0.4,0.3-0.9,0.5-1.4,0.6c-0.5,0.2-0.9,0.3-1.4,0.3c-0.5,0.1-0.9,0.1-1.4,0.1
	c-0.8,0-1.6-0.1-2.4-0.3c-0.7-0.2-1.4-0.5-1.9-1c-0.5-0.4-0.9-1-1.2-1.7c-0.3-0.7-0.5-1.4-0.5-2.3c0-0.6,0.1-1.2,0.4-1.9
	c0.3-0.6,0.6-1.2,1.1-1.7c0.5-0.5,1.1-0.9,1.8-1.2c0.7-0.3,1.6-0.5,2.5-0.5c0.6,0,1.2,0.1,1.8,0.2c0.5,0.1,1,0.3,1.4,0.4
	c0.4,0.2,0.7,0.3,1,0.5c0.2,0.1,0.4,0.2,0.5,0.2c0.1,0,0.2,0,0.2-0.1c0,0,0.1-0.1,0.1-0.1l0.3,0.1l-0.9,2L348.7,95"/>
<polyline fill="#45C0BF" points="175,85 39.8,85 39.8,82.5 172.9,82.5 175,85 "/>
<g>
	<defs>
		<rect id="SVGID_1_" x="39.2" y="46.7" width="312.4" height="56"/>
	</defs>
	<clipPath id="SVGID_2_">
		<use xlink:href="#SVGID_1_"  overflow="visible"/>
	</clipPath>
	<polyline clip-path="url(#SVGID_2_)" fill="#45C0BF" points="216.4,85 351.6,85 351.6,82.5 218.4,82.5 216.4,85 	"/>
</g>
<path fill="#8B2D4C" d="M194,78.7v-3.2c0.8,0,2-0.1,2.9-0.1v8.1h5.1c2.9,0,5.6-0.2,7.5-0.4c4.2-3.8,6.8-9.3,6.8-15.5
	c0-11.1-8.6-20.1-19.4-20.9v24.7c-0.9,0.2-1.8,0.2-2.9,0.2V46.8c-10.9,0.7-19.6,9.8-19.6,20.9c0,11.6,9.4,21,21,21
	c4.4,0,8.6-1.4,11.9-3.8h-13.8C193.9,83.7,194,81.9,194,78.7"/>
<g>
	<defs>
		<rect id="SVGID_3_" x="39.2" y="46.7" width="312.4" height="56"/>
	</defs>
	<clipPath id="SVGID_4_">
		<use xlink:href="#SVGID_3_"  overflow="visible"/>
	</clipPath>
	<path clip-path="url(#SVGID_4_)" fill="#FFFFFF" d="M196.9,71.5V46.8c-0.5,0-1-0.1-1.5-0.1c-0.5,0-0.9,0-1.4,0.1v24.9
		C195.1,71.7,196,71.6,196.9,71.5"/>
</g>
<path fill="#FFFFFF" d="M202,83.5h-5.1v-8.1c-0.8,0.1-2.1,0.1-2.9,0.1v3.2c0,3.2-0.1,5-0.5,6.2h13.8c0.8-0.5,1.5-1.1,2.2-1.7
	C207.6,83.3,204.9,83.5,202,83.5"/>
<path fill="#FFFFFF" d="M199.5,52.9c-0.4-0.1-0.9-0.2-1.4-0.2v1.6c3.3,0.9,5.7,3.3,5.7,8.7c0,4.8-1.6,7.4-3.9,8.7
	c-1.7,1-3.6,1.3-6.5,1.3h-3.7V53.8h3.2v-1.3h-6.5c0.3,1.1,0.5,2.9,0.5,6.2v9.6c0,3.2-0.1,5-0.5,6.2h7.8c3.3,0,6.2-0.5,8.3-1.9
	c2.6-1.7,4.6-4.8,4.6-9.4C206.9,57.6,204.4,54,199.5,52.9"/>
</svg>
