<?xml version="1.0" encoding="utf-8"?>
<!-- Generator: Adobe Illustrator 13.0.0, SVG Export Plug-In . SVG Version: 6.00 Build 14948)  -->
<!DOCTYPE svg PUBLIC "-//W3C//DTD SVG 1.1//EN" "http://www.w3.org/Graphics/SVG/1.1/DTD/svg11.dtd">
<svg version="1.1" id="sponsor-logo_sport4all" xmlns="http://www.w3.org/2000/svg" xmlns:xlink="http://www.w3.org/1999/xlink"
	 x="0px" y="0px" width="390px" height="150px" viewBox="0 0 390 150" enable-background="new 0 0 390 150" xml:space="preserve">
<g>
	<g>
		<path fill="#221F1F" d="M179.5,35.2c0,0,50.7-21.1,101.3-23c53.7-2,132.2,12.3,73.2,65.3C355,73.5,369.6,4.7,179.5,35.2"/>
		<path fill="#221F1F" d="M210.5,114.8c0,0-50.7,21.1-101.3,23c-53.7,2-132.2-12.3-73.2-65.3C35,76.5,20.4,145.3,210.5,114.8"/>
	</g>
	<path fill="#312F81" d="M72.6,83.3c0,2.1-0.4,3.9-1.2,5.5c-0.8,1.6-1.8,2.9-3.2,4c-1.3,1.1-2.9,1.9-4.7,2.4
		c-1.8,0.5-3.7,0.8-5.7,0.8c-1.4,0-2.7-0.1-3.8-0.3c-1.2-0.2-2.2-0.5-3.1-0.8c-0.9-0.3-1.7-0.7-2.3-1c-0.6-0.3-1-0.7-1.3-0.9
		c-0.3-0.3-0.5-0.7-0.6-1.2c-0.1-0.5-0.2-1.2-0.2-2.2c0-0.6,0-1.2,0.1-1.6c0-0.4,0.1-0.8,0.2-1c0.1-0.3,0.2-0.5,0.4-0.6
		c0.2-0.1,0.3-0.2,0.5-0.2c0.3,0,0.7,0.2,1.2,0.5c0.5,0.3,1.2,0.7,2,1.1c0.8,0.4,1.8,0.8,2.9,1.1c1.1,0.3,2.5,0.5,4,0.5
		c1,0,1.9-0.1,2.7-0.4c0.8-0.2,1.4-0.6,2-1c0.5-0.4,1-1,1.3-1.6c0.3-0.6,0.4-1.3,0.4-2.1c0-0.9-0.2-1.7-0.7-2.3
		c-0.5-0.6-1.1-1.2-1.9-1.7c-0.8-0.5-1.7-1-2.7-1.4c-1-0.4-2-0.9-3.1-1.4c-1.1-0.5-2.1-1.1-3.1-1.7c-1-0.6-1.9-1.4-2.7-2.3
		c-0.8-0.9-1.4-1.9-1.9-3.1c-0.5-1.2-0.7-2.6-0.7-4.3c0-1.9,0.4-3.6,1.1-5c0.7-1.4,1.7-2.7,2.9-3.6c1.2-1,2.6-1.7,4.3-2.1
		c1.6-0.5,3.4-0.7,5.2-0.7c0.9,0,1.9,0.1,2.8,0.2c0.9,0.1,1.8,0.3,2.7,0.6c0.8,0.2,1.6,0.5,2.2,0.8c0.6,0.3,1.1,0.6,1.3,0.8
		c0.2,0.2,0.3,0.4,0.4,0.5c0.1,0.1,0.1,0.3,0.2,0.6c0.1,0.2,0.1,0.5,0.1,0.9c0,0.4,0,0.8,0,1.3c0,0.6,0,1.1,0,1.5
		c0,0.4-0.1,0.8-0.2,1c-0.1,0.3-0.2,0.5-0.3,0.6c-0.1,0.1-0.3,0.2-0.5,0.2c-0.2,0-0.6-0.1-1.1-0.4c-0.5-0.3-1.1-0.6-1.8-0.9
		c-0.7-0.3-1.6-0.6-2.5-0.9c-0.9-0.3-2-0.4-3.1-0.4c-0.9,0-1.7,0.1-2.3,0.3c-0.7,0.2-1.2,0.5-1.7,0.9c-0.4,0.4-0.8,0.8-1,1.4
		c-0.2,0.5-0.3,1.1-0.3,1.7c0,0.9,0.2,1.7,0.7,2.3c0.5,0.6,1.1,1.2,1.9,1.7c0.8,0.5,1.7,1,2.8,1.4c1,0.4,2.1,0.9,3.1,1.4
		c1.1,0.5,2.1,1.1,3.1,1.7c1,0.6,1.9,1.4,2.7,2.3c0.8,0.9,1.5,1.9,1.9,3.1C72.3,80.3,72.6,81.7,72.6,83.3"/>
	<path fill="#312F81" d="M106,80c0,2.5-0.3,4.7-0.8,6.6c-0.5,2-1.3,3.6-2.3,5c-1,1.4-2.3,2.4-3.8,3.2c-1.5,0.7-3.2,1.1-5.2,1.1
		c-0.8,0-1.5-0.1-2.2-0.2c-0.7-0.2-1.3-0.4-1.9-0.7c-0.6-0.3-1.2-0.7-1.9-1.2c-0.6-0.5-1.3-1-1.9-1.7v13c0,0.2-0.1,0.4-0.2,0.6
		c-0.1,0.2-0.3,0.3-0.6,0.4c-0.3,0.1-0.7,0.2-1.2,0.3c-0.5,0.1-1.1,0.1-1.9,0.1s-1.4,0-1.9-0.1c-0.5-0.1-0.9-0.1-1.2-0.3
		c-0.3-0.1-0.5-0.3-0.6-0.4c-0.1-0.2-0.2-0.4-0.2-0.6V66.7c0-0.2,0.1-0.4,0.2-0.5c0.1-0.2,0.3-0.3,0.5-0.4c0.3-0.1,0.6-0.2,1-0.2
		c0.4-0.1,1-0.1,1.6-0.1c0.6,0,1.1,0,1.6,0.1c0.4,0.1,0.8,0.1,1,0.2c0.3,0.1,0.4,0.2,0.5,0.4c0.1,0.2,0.2,0.3,0.2,0.5v3.2
		c0.8-0.8,1.6-1.5,2.4-2.2c0.8-0.6,1.6-1.2,2.4-1.6c0.8-0.4,1.6-0.7,2.5-0.9c0.9-0.2,1.8-0.3,2.7-0.3c2,0,3.7,0.4,5.2,1.2
		c1.4,0.8,2.6,1.9,3.5,3.3c0.9,1.4,1.5,3,2,4.8C105.8,76,106,77.9,106,80 M97.9,80.6c0-1.2-0.1-2.3-0.3-3.4c-0.2-1.1-0.5-2-0.9-2.9
		c-0.4-0.8-1-1.5-1.7-2c-0.7-0.5-1.5-0.8-2.6-0.8c-0.5,0-1,0.1-1.5,0.2c-0.5,0.2-1,0.4-1.5,0.8c-0.5,0.4-1.1,0.8-1.6,1.4
		c-0.6,0.6-1.1,1.2-1.8,2.1V85c1.1,1.4,2.1,2.4,3.1,3.2c1,0.8,2,1.1,3.1,1.1c1,0,1.9-0.3,2.6-0.8c0.7-0.5,1.3-1.2,1.7-2
		c0.5-0.8,0.8-1.8,1-2.8C97.8,82.7,97.9,81.6,97.9,80.6z"/>
	<path fill="#312F81" d="M140.1,80.1c0,2.3-0.3,4.5-0.9,6.4c-0.6,1.9-1.6,3.6-2.8,5c-1.3,1.4-2.8,2.5-4.7,3.2
		c-1.9,0.8-4.1,1.1-6.6,1.1c-2.4,0-4.6-0.3-6.4-1c-1.8-0.7-3.3-1.7-4.5-3c-1.2-1.3-2.1-2.9-2.7-4.8c-0.6-1.9-0.9-4.1-0.9-6.5
		c0-2.3,0.3-4.5,0.9-6.4c0.6-1.9,1.6-3.6,2.8-5c1.3-1.4,2.8-2.5,4.7-3.2c1.9-0.8,4.1-1.1,6.6-1.1c2.5,0,4.6,0.3,6.4,1
		c1.8,0.7,3.3,1.6,4.5,2.9c1.2,1.3,2.1,2.9,2.6,4.8C139.8,75.5,140.1,77.7,140.1,80.1 M132.1,80.5c0-1.4-0.1-2.6-0.3-3.8
		c-0.2-1.1-0.6-2.1-1.1-3c-0.5-0.8-1.2-1.5-2.1-2c-0.9-0.5-1.9-0.7-3.2-0.7c-1.2,0-2.2,0.2-3,0.6c-0.9,0.4-1.6,1-2.1,1.8
		c-0.6,0.8-1,1.8-1.3,2.9c-0.3,1.1-0.4,2.4-0.4,3.9c0,1.4,0.1,2.6,0.3,3.8c0.2,1.1,0.6,2.1,1.1,3c0.5,0.8,1.2,1.5,2.1,2
		c0.9,0.5,1.9,0.7,3.2,0.7c1.2,0,2.2-0.2,3.1-0.6c0.9-0.4,1.6-1,2.1-1.8c0.6-0.8,1-1.8,1.2-2.9C132,83.2,132.1,81.9,132.1,80.5z"/>
	<path fill="#312F81" d="M163.9,69.2c0,0.7,0,1.3-0.1,1.8s-0.1,0.8-0.2,1.1c-0.1,0.3-0.2,0.4-0.3,0.6c-0.1,0.1-0.3,0.2-0.5,0.2
		c-0.2,0-0.3,0-0.6-0.1c-0.2-0.1-0.4-0.2-0.7-0.2c-0.3-0.1-0.5-0.2-0.9-0.2c-0.3-0.1-0.6-0.1-1-0.1c-0.4,0-0.9,0.1-1.3,0.3
		c-0.4,0.2-0.9,0.4-1.3,0.8c-0.5,0.4-0.9,0.9-1.5,1.5c-0.5,0.6-1,1.4-1.6,2.3v17.2c0,0.2-0.1,0.4-0.2,0.5c-0.1,0.2-0.3,0.3-0.6,0.4
		c-0.3,0.1-0.7,0.2-1.2,0.2c-0.5,0.1-1.1,0.1-1.9,0.1c-0.8,0-1.4,0-1.9-0.1c-0.5-0.1-0.9-0.1-1.2-0.2c-0.3-0.1-0.5-0.2-0.6-0.4
		c-0.1-0.2-0.2-0.3-0.2-0.5V66.7c0-0.2,0-0.4,0.2-0.5c0.1-0.2,0.3-0.3,0.6-0.4c0.3-0.1,0.6-0.2,1-0.2c0.4-0.1,1-0.1,1.6-0.1
		c0.7,0,1.2,0,1.6,0.1c0.4,0.1,0.8,0.1,1,0.2c0.2,0.1,0.4,0.2,0.5,0.4c0.1,0.2,0.2,0.3,0.2,0.5v3.4c0.7-1,1.4-1.9,2-2.5
		c0.6-0.7,1.2-1.2,1.8-1.6c0.6-0.4,1.2-0.7,1.7-0.8c0.6-0.2,1.2-0.2,1.7-0.2c0.3,0,0.6,0,0.9,0c0.3,0,0.6,0.1,1,0.2
		c0.3,0.1,0.6,0.2,0.9,0.2c0.2,0.1,0.4,0.2,0.5,0.3c0.1,0.1,0.2,0.2,0.2,0.3c0.1,0.1,0.1,0.3,0.1,0.5c0,0.2,0.1,0.5,0.1,1
		C163.9,67.9,163.9,68.5,163.9,69.2"/>
	<path fill="#312F81" d="M185,91.5c0,0.9-0.1,1.6-0.2,2.1c-0.1,0.5-0.3,0.8-0.4,1c-0.2,0.2-0.5,0.4-0.8,0.5
		c-0.4,0.2-0.8,0.3-1.3,0.4c-0.5,0.1-1,0.2-1.6,0.3c-0.6,0.1-1.1,0.1-1.7,0.1c-1.5,0-2.9-0.2-4-0.6c-1.1-0.4-2.1-1-2.8-1.8
		c-0.7-0.8-1.3-1.8-1.6-3.1c-0.4-1.2-0.5-2.7-0.5-4.4V71.9h-3.3c-0.4,0-0.7-0.2-0.9-0.7c-0.2-0.5-0.3-1.3-0.3-2.4
		c0-0.6,0-1.1,0.1-1.5c0.1-0.4,0.1-0.7,0.2-1c0.1-0.2,0.2-0.4,0.4-0.5c0.2-0.1,0.3-0.2,0.5-0.2h3.3v-6.1c0-0.2,0.1-0.4,0.2-0.6
		c0.1-0.2,0.3-0.3,0.6-0.4c0.3-0.1,0.7-0.2,1.2-0.2c0.5-0.1,1.1-0.1,1.9-0.1c0.8,0,1.4,0,1.9,0.1c0.5,0.1,0.9,0.1,1.2,0.2
		c0.3,0.1,0.5,0.3,0.6,0.4c0.1,0.2,0.2,0.4,0.2,0.6v6.1h6c0.2,0,0.4,0.1,0.5,0.2c0.2,0.1,0.3,0.3,0.4,0.5c0.1,0.2,0.2,0.6,0.2,1
		c0.1,0.4,0.1,0.9,0.1,1.5c0,1.1-0.1,1.9-0.3,2.4c-0.2,0.5-0.5,0.7-0.9,0.7h-6v12.9c0,1.5,0.2,2.6,0.7,3.4c0.5,0.8,1.3,1.1,2.5,1.1
		c0.4,0,0.8,0,1.1-0.1c0.3-0.1,0.6-0.2,0.9-0.2c0.3-0.1,0.5-0.2,0.6-0.2c0.2-0.1,0.3-0.1,0.5-0.1c0.1,0,0.2,0,0.4,0.1
		c0.1,0.1,0.2,0.2,0.3,0.4c0.1,0.2,0.1,0.5,0.2,0.9C185,90.4,185,90.9,185,91.5"/>
	<path fill="#312F81" d="M210,86.4c0,1.6-0.3,2.9-0.9,4.1c-0.6,1.2-1.4,2.2-2.5,3c-1.1,0.8-2.3,1.4-3.8,1.8c-1.5,0.4-3,0.6-4.8,0.6
		c-1,0-2-0.1-2.9-0.2c-0.9-0.2-1.8-0.4-2.5-0.6c-0.7-0.2-1.4-0.5-1.9-0.7c-0.5-0.2-0.9-0.5-1.1-0.7c-0.2-0.2-0.4-0.6-0.5-1
		c-0.1-0.5-0.2-1.1-0.2-2.1c0-0.6,0-1.1,0.1-1.4c0-0.4,0.1-0.6,0.2-0.9c0.1-0.2,0.2-0.4,0.3-0.4c0.1-0.1,0.3-0.1,0.5-0.1
		c0.2,0,0.6,0.1,1,0.4c0.4,0.3,1,0.5,1.7,0.8c0.7,0.3,1.4,0.6,2.3,0.9c0.9,0.3,1.9,0.4,3,0.4c0.7,0,1.3-0.1,1.9-0.2
		c0.5-0.1,1-0.3,1.4-0.6c0.4-0.3,0.7-0.6,0.9-1c0.2-0.4,0.3-0.9,0.3-1.4c0-0.6-0.2-1.1-0.6-1.6c-0.4-0.4-0.9-0.8-1.5-1.2
		c-0.6-0.3-1.3-0.6-2.1-0.9c-0.8-0.3-1.6-0.6-2.4-1c-0.8-0.4-1.6-0.8-2.4-1.2c-0.8-0.5-1.5-1-2.1-1.7c-0.6-0.7-1.1-1.4-1.5-2.4
		c-0.4-0.9-0.6-2-0.6-3.3c0-1.3,0.3-2.5,0.8-3.6c0.5-1.1,1.3-2,2.2-2.8c1-0.8,2.1-1.4,3.5-1.8c1.4-0.4,2.9-0.6,4.7-0.6
		c0.9,0,1.7,0.1,2.5,0.2c0.8,0.1,1.5,0.3,2.2,0.5c0.7,0.2,1.2,0.4,1.7,0.6c0.5,0.2,0.8,0.4,1,0.6c0.2,0.2,0.3,0.3,0.4,0.5
		c0.1,0.2,0.1,0.3,0.2,0.6c0,0.2,0.1,0.5,0.1,0.8c0,0.3,0,0.7,0,1.2c0,0.6,0,1,0,1.4c0,0.4-0.1,0.6-0.2,0.8
		c-0.1,0.2-0.2,0.3-0.3,0.4c-0.1,0.1-0.3,0.1-0.4,0.1c-0.2,0-0.5-0.1-0.9-0.3c-0.4-0.2-0.9-0.4-1.5-0.7c-0.6-0.2-1.3-0.5-2-0.7
		c-0.8-0.2-1.6-0.3-2.6-0.3c-0.7,0-1.3,0.1-1.8,0.2s-0.9,0.4-1.3,0.6c-0.3,0.3-0.6,0.6-0.7,0.9c-0.2,0.4-0.2,0.7-0.2,1.2
		c0,0.6,0.2,1.2,0.6,1.6c0.4,0.4,0.9,0.8,1.5,1.1c0.6,0.3,1.4,0.6,2.2,0.9c0.8,0.3,1.6,0.6,2.5,0.9c0.8,0.3,1.7,0.7,2.5,1.2
		c0.8,0.5,1.5,1,2.2,1.7c0.6,0.7,1.2,1.4,1.5,2.4C209.8,84.1,210,85.2,210,86.4"/>
	<path fill="#312F81" d="M313.4,91.8c0.2,0.7,0.4,1.3,0.5,1.8c0.1,0.4,0,0.8-0.2,1c-0.2,0.2-0.6,0.3-1.2,0.4c-0.6,0-1.4,0.1-2.4,0.1
		c-1,0-1.9,0-2.5-0.1c-0.6,0-1-0.1-1.3-0.2c-0.3-0.1-0.5-0.2-0.7-0.4c-0.1-0.2-0.2-0.4-0.3-0.6l-2.7-8h-15l-2.5,7.8
		c-0.1,0.3-0.2,0.5-0.3,0.7c-0.1,0.2-0.4,0.3-0.6,0.5c-0.3,0.1-0.7,0.2-1.3,0.2c-0.5,0-1.3,0.1-2.1,0.1c-0.9,0-1.7,0-2.2-0.1
		c-0.5-0.1-0.9-0.2-1.1-0.5c-0.2-0.2-0.3-0.6-0.2-1c0.1-0.4,0.2-1,0.5-1.7l12.3-35.4c0.1-0.3,0.3-0.6,0.4-0.8
		c0.2-0.2,0.4-0.4,0.8-0.5c0.4-0.1,0.9-0.2,1.5-0.2c0.6,0,1.5,0,2.5,0c1.2,0,2.2,0,2.9,0c0.7,0,1.3,0.1,1.7,0.2
		c0.4,0.1,0.7,0.3,0.9,0.5c0.2,0.2,0.3,0.5,0.4,0.9L313.4,91.8 M295.1,62.5L295.1,62.5l-5.7,17h11.3L295.1,62.5z"/>
	<path fill="#312F81" d="M325.2,93.7c0,0.2-0.1,0.4-0.2,0.5c-0.1,0.2-0.3,0.3-0.6,0.4c-0.3,0.1-0.7,0.2-1.2,0.2
		c-0.5,0.1-1.1,0.1-1.9,0.1c-0.8,0-1.4,0-1.9-0.1c-0.5-0.1-0.9-0.1-1.2-0.2c-0.3-0.1-0.5-0.2-0.6-0.4c-0.1-0.2-0.2-0.3-0.2-0.5V53.1
		c0-0.2,0.1-0.4,0.2-0.6c0.1-0.2,0.3-0.3,0.6-0.4c0.3-0.1,0.7-0.2,1.2-0.3c0.5-0.1,1.1-0.1,1.9-0.1c0.8,0,1.4,0,1.9,0.1
		c0.5,0.1,0.9,0.1,1.2,0.3c0.3,0.1,0.5,0.2,0.6,0.4c0.1,0.2,0.2,0.4,0.2,0.6V93.7"/>
	<path fill="#312F81" d="M339.7,93.7c0,0.2-0.1,0.4-0.2,0.5c-0.1,0.2-0.3,0.3-0.6,0.4c-0.3,0.1-0.7,0.2-1.2,0.2
		c-0.5,0.1-1.1,0.1-1.9,0.1c-0.8,0-1.4,0-1.9-0.1c-0.5-0.1-0.9-0.1-1.2-0.2c-0.3-0.1-0.5-0.2-0.6-0.4c-0.1-0.2-0.2-0.3-0.2-0.5V53.1
		c0-0.2,0.1-0.4,0.2-0.6c0.1-0.2,0.3-0.3,0.6-0.4c0.3-0.1,0.7-0.2,1.2-0.3c0.5-0.1,1.1-0.1,1.9-0.1c0.8,0,1.4,0,1.9,0.1
		c0.5,0.1,0.9,0.1,1.2,0.3c0.3,0.1,0.5,0.2,0.6,0.4c0.1,0.2,0.2,0.4,0.2,0.6V93.7"/>
	<path fill="#DF3726" d="M244.3,85.7h-18.9v-7.4L245.8,52h8.2c0,0,2.8,0.4,2.2,5.2s-2.3,21.8-2.3,21.8h18.6l0.7,0
		c0.3-1.6,0.4-2.5,0.4-4.2c0-15.6-12.7-28.3-28.3-28.3c-15.6,0-28.3,12.7-28.3,28.3c0,14.8,11.4,27,25.9,28.2L244.3,85.7"/>
	<path fill="#DF3726" d="M252.9,85.4l-1.7,17.1c9.2-2,16.8-8.5,20.3-17.1H252.9"/>
	<polyline fill="#DF3726" points="248.3,59.7 233.6,78.4 246,78.4 248.3,59.7 	"/>
</g>
</svg>
